<svg id="Layer_2" data-name="Layer 2" xmlns="http://www.w3.org/2000/svg" viewBox="0 0 125.25 127.56"><defs><style>.cls-1{fill:#f3bb1c}.cls-4{fill:#26255e}</style></defs><g id="Layer_1-2" data-name="Layer 1"><path class="cls-1" d="M125.23 73.49c-.01-.43-.05-.86-.06-1.3-.4-7.65-2.51-15.16-6.1-21.87-.34-.66-.71-1.3-1.09-1.94-2.26-3.83-4.99-7.36-8.12-10.48-3.13-3.14-6.66-5.87-10.48-8.12-.59-.35-1.2-.7-1.83-1.02-7.59-4.09-16.14-6.24-24.82-6.24-5.44 0-10.76.81-15.85 2.45-.23-.06-.45-.13-.67-.19-1.71-.53-3.39-1.32-4.99-2.31-1.53-.93-2.97-2.09-4.3-3.42-1.48-1.48-2.52-3.35-3.62-5.34-.7-1.25-1.41-2.54-2.27-3.81-.02-.03-.05-.06-.07-.09-.03-.05-.06-.11-.09-.16-.02-.02-.04-.03-.05-.05-.07-.08-.13-.16-.19-.24-.02-.03-.04-.05-.07-.08-1.41-1.89-3.08-3.53-4.94-4.88-1.94-1.41-4.04-2.5-6.23-3.24C27.15.39 24.8 0 22.43 0 10.06 0 0 10.07 0 22.42c0 6.47 2.87 12.64 7.89 17.04.15.14.31.27.45.4l.32.27c.95.76 1.98 1.54 3.04 2.35 4.89 3.72 10.44 7.94 12.06 13.55-2.36 6.05-3.56 12.44-3.56 19 0 8.65 2.13 17.15 6.18 24.71.35.66.7 1.3 1.09 1.94 2.26 3.85 5 7.38 8.12 10.48 3.13 3.15 6.66 5.89 10.47 8.12.63.37 1.26.72 1.88 1.06 6.74 3.62 14.28 5.73 21.95 6.14.4.02.8.04 1.21.05.52.02 1.09.03 1.63.03 28.96 0 52.52-23.57 52.52-52.53 0-.51-.02-1.02-.02-1.54ZM14.39 38.93c-1.03-.77-2.02-1.52-2.89-2.23l-.3-.26c-4.29-3.57-6.74-8.69-6.74-14.02 0-9.9 8.05-17.97 17.97-17.97 1.88 0 3.74.3 5.54.93 1.76.59 3.46 1.48 5.05 2.62 1.59 1.18 3.03 2.61 4.24 4.26.01.04.03.05.06.08l.02.04c.75 1.1 1.38 2.26 2.07 3.48 1.2 2.18 2.43 4.43 4.36 6.34 1.57 1.57 3.29 2.93 5.1 4.05.63.39 1.25.74 1.9 1.06-10.51 4.83-19.15 13-24.55 23.29-2.8-4.8-7.53-8.4-11.83-11.67ZM25.88 85.8c-.8-3.52-1.22-7.13-1.22-10.77 0-6.29 1.19-12.4 3.55-18.16.16-.4.33-.8.53-1.19C34.09 43.42 44.3 34 56.94 29.62c.23-.08.44-.14.66-.22 4.83-1.62 9.93-2.44 15.13-2.44 3.1 0 6.18.31 9.2.9 4.39.85 8.64 2.31 12.64 4.38l-8.26 8.26-48.12 48.14-8.27 8.25c-1.81-3.52-3.16-7.24-4.04-11.09Zm20.99 29.76c-2.52-1.6-4.88-3.45-7.06-5.5-.37-.34-.73-.69-1.08-1.04-.35-.34-.69-.69-1.04-1.05-2.02-2.16-3.87-4.54-5.49-7.07l66.38-66.38c2.52 1.6 4.89 3.45 7.08 5.5.35.34.7.68 1.06 1.03.35.35.69.7 1.02 1.06 2.06 2.16 3.89 4.54 5.51 7.07l-66.38 66.38Zm22.27 7.41c-2.43-.17-4.8-.52-7.13-1.05-3.85-.87-7.57-2.23-11.13-4.08l8.26-8.25 48.12-48.13 8.3-8.3c2.02 3.98 3.49 8.27 4.34 12.66.37 1.86.61 3.74.76 5.63l-51.52 51.52Zm6.24.05 45.34-45.34c-1.31 24.4-20.94 44.03-45.34 45.34Z"/><path d="M120.72 77.68c-1.31 24.4-20.94 44.03-45.34 45.34l45.34-45.34Z" style="fill:#00b2d9"/><path class="cls-4" d="M119.9 65.82c-.85-4.39-2.32-8.68-4.34-12.66l-8.3 8.3-48.12 48.13-8.26 8.25c3.56 1.85 7.28 3.21 11.13 4.08 2.33.53 4.7.88 7.13 1.05l51.52-51.52c-.15-1.89-.39-3.77-.76-5.63Zm-55.91 52.6c-.42 0-.81-.07-1.17-.18-1.64-.51-2.81-2.02-2.81-3.8 0-1.09.45-2.09 1.17-2.81s1.72-1.17 2.81-1.17c2.2 0 3.98 1.78 3.98 3.98s-1.78 3.98-3.98 3.98Zm16.33-15.74c-2.2 0-3.98-1.78-3.98-3.98s1.78-3.98 3.98-3.98 3.98 1.78 3.98 3.98-1.78 3.98-3.98 3.98Zm16.35-15.74c-2.2 0-3.98-1.78-3.98-3.98s1.78-3.98 3.98-3.98 3.98 1.78 3.98 3.98-1.78 3.98-3.98 3.98Zm16.34-15.76c-2.2 0-3.98-1.78-3.98-3.98 0-1.09.45-2.08 1.17-2.81.7-.72 1.7-1.17 2.81-1.17 1.92 0 3.52 1.37 3.89 3.18.05.26.08.53.08.8 0 2.2-1.78 3.98-3.97 3.98Z"/><path class="cls-1" d="M116.98 67.2c0 2.2-1.78 3.98-3.97 3.98s-3.98-1.78-3.98-3.98c0-1.09.45-2.08 1.17-2.81.7-.72 1.7-1.17 2.81-1.17 1.92 0 3.52 1.37 3.89 3.18.05.26.08.53.08.8Z"/><path class="cls-4" d="m113.25 49.18-66.38 66.38c-2.52-1.6-4.88-3.45-7.06-5.5l67.93-67.95c2.06 2.16 3.89 4.54 5.51 7.07Z"/><path d="m107.74 42.11-67.93 67.95c-.37-.34-.73-.69-1.08-1.04-.35-.34-.69-.69-1.04-1.05l67.97-67.95c.35.34.7.68 1.06 1.03.35.35.69.7 1.02 1.06Z" style="fill:#e11f2a"/><path class="cls-4" d="m105.66 40.02-67.97 67.95c-2.02-2.16-3.87-4.54-5.49-7.07l66.38-66.38c2.52 1.6 4.89 3.45 7.08 5.5Z"/><path class="cls-1" d="M100.65 82.96c0 2.2-1.78 3.98-3.98 3.98s-3.98-1.78-3.98-3.98 1.78-3.98 3.98-3.98 3.98 1.78 3.98 3.98Z"/><path class="cls-4" d="M81.93 27.86c-3.02-.59-6.1-.9-9.2-.9-5.2 0-10.3.82-15.13 2.44-.22.08-.43.14-.66.22C44.3 34 34.09 43.42 28.74 55.68c-.2.39-.37.79-.53 1.19-2.36 5.76-3.55 11.87-3.55 18.16 0 3.64.42 7.25 1.22 10.77.88 3.85 2.23 7.57 4.04 11.09l8.27-8.25L86.31 40.5l8.26-8.26c-4-2.07-8.25-3.53-12.64-4.38Zm-45.8 58.72c-.7.73-1.7 1.18-2.81 1.18-1.78 0-3.28-1.18-3.8-2.8-.11-.37-.17-.77-.17-1.18 0-2.2 1.78-3.98 3.97-3.98s3.98 1.78 3.98 3.98c0 1.1-.45 2.1-1.17 2.8Zm-2.81-16.63c-2.19 0-3.97-1.79-3.97-3.98s1.78-3.98 3.97-3.98 3.98 1.78 3.98 3.98-1.78 3.98-3.98 3.98Zm14.72-23.56c2.2 0 3.98 1.78 3.98 3.98s-1.78 3.98-3.98 3.98-3.98-1.8-3.98-3.98 1.78-3.98 3.98-3.98Zm1.03 25.03c-2.2 0-3.98-1.78-3.98-3.98s1.78-3.98 3.98-3.98 3.97 1.78 3.97 3.98-1.78 3.98-3.97 3.98Zm9.7-36.66c0-2.2 1.78-3.98 3.98-3.98s3.98 1.78 3.98 3.98-1.78 3.98-3.98 3.98-3.98-1.78-3.98-3.98Zm6.04 20.31c-2.2 0-3.98-1.78-3.98-3.98s1.78-3.98 3.98-3.98 3.97 1.78 3.97 3.98-1.78 3.98-3.97 3.98Zm18.56-17.5c-.71.72-1.7 1.17-2.81 1.17-2.2 0-3.98-1.78-3.98-3.98s1.78-3.98 3.98-3.98c.27 0 .55.03.8.08 1.82.37 3.18 1.97 3.18 3.9 0 1.09-.45 2.08-1.17 2.81Z"/><path class="cls-1" d="M84.54 34.76c0 1.09-.45 2.08-1.17 2.81-.71.72-1.7 1.17-2.81 1.17-2.2 0-3.98-1.78-3.98-3.98s1.78-3.98 3.98-3.98c.27 0 .55.03.8.08 1.82.37 3.18 1.97 3.18 3.9ZM84.3 98.7c0 2.2-1.78 3.98-3.98 3.98s-3.98-1.78-3.98-3.98 1.78-3.98 3.98-3.98 3.98 1.78 3.98 3.98ZM68.78 51.09c0 2.2-1.78 3.98-3.97 3.98s-3.98-1.78-3.98-3.98 1.78-3.98 3.98-3.98 3.97 1.78 3.97 3.98ZM67.97 114.44c0 2.2-1.78 3.98-3.98 3.98-.42 0-.81-.07-1.17-.18-1.64-.51-2.81-2.02-2.81-3.8 0-1.09.45-2.09 1.17-2.81s1.72-1.17 2.81-1.17c2.2 0 3.98 1.78 3.98 3.98Z"/><circle class="cls-1" cx="62.75" cy="34.76" r="3.98"/><path class="cls-1" d="M53.04 67.44c0 2.2-1.78 3.98-3.97 3.98s-3.98-1.78-3.98-3.98 1.78-3.98 3.98-3.98 3.97 1.78 3.97 3.98ZM52.02 50.37c0 2.18-1.78 3.98-3.98 3.98s-3.98-1.8-3.98-3.98 1.78-3.98 3.98-3.98 3.98 1.78 3.98 3.98Z"/><path class="cls-4" d="M50.77 27.31c-10.51 4.83-19.15 13-24.55 23.29-2.8-4.8-7.53-8.4-11.83-11.67-1.03-.77-2.02-1.52-2.89-2.23l-.3-.26c-4.29-3.57-6.74-8.69-6.74-14.02 0-9.9 8.05-17.97 17.97-17.97 1.88 0 3.74.3 5.54.93 1.76.59 3.46 1.48 5.05 2.62 1.59 1.18 3.03 2.61 4.24 4.26.01.04.03.05.06.08l.02.04c.75 1.1 1.38 2.26 2.07 3.48 1.2 2.18 2.43 4.43 4.36 6.34 1.57 1.57 3.29 2.93 5.1 4.05.63.39 1.25.74 1.9 1.06Z"/><path class="cls-1" d="M41.04 9.9h-.01s-.05-.06-.07-.09c-.03-.05-.06-.11-.09-.16.06.09.12.19.17.25ZM40.82 9.6c-.07-.08-.13-.16-.19-.24l.03-.02c.06.08.11.16.16.26ZM37.34 12.38l.11.13c-.05-.06-.08-.1-.11-.13ZM37.3 65.97c0 2.19-1.78 3.98-3.98 3.98s-3.97-1.79-3.97-3.98 1.78-3.98 3.97-3.98 3.98 1.78 3.98 3.98ZM37.3 83.78c0 1.1-.45 2.1-1.17 2.8-.7.73-1.7 1.18-2.81 1.18-1.78 0-3.28-1.18-3.8-2.8-.11-.37-.17-.77-.17-1.18 0-2.2 1.78-3.98 3.97-3.98s3.98 1.78 3.98 3.98ZM8.34 39.86l-.46-.38v-.02c.16.14.32.27.46.4Z"/></g></svg>