<svg id="Layer_2" data-name="Layer 2" xmlns="http://www.w3.org/2000/svg" viewBox="0 0 70.08 128.06"><defs><style>.cls-1{fill:#f3bb1c}.cls-2{fill:#00b2d9}.cls-4{fill:#26255e}</style></defs><g id="Layer_1-2" data-name="Layer 1"><path class="cls-4" d="M51.88 58.55v65.39H36.42V85.33l15.46-26.78zM33.84 85.64v38.3H18.38V58.87l15.46 26.77zM51.7 51.14 35.04 79.99 18.38 51.14H51.7z"/><path class="cls-1" d="M69.83 36.97v14.17H56.16l-.42.72v75.95H14.51V52.17l-.6-1.03H.25V36.97h69.58Zm-17.95 86.97V58.55L36.42 85.33l-1.38 2.39-1.2-2.08-15.46-26.77v65.07h33.5ZM35.04 79.99 51.7 51.14H18.38l16.66 28.85Z"/><path class="cls-2" d="M55.74 33.07h.01v3.87h-.01zM55.74 33.07v3.87H14.51v-3.87h41.23z"/><path class="cls-1" d="M14.51.25h41.23v32.82H14.51zM53.81 36.94h1.93v.03h-1.93zM51.88 36.94h1.93v.03h-1.93zM18.38 36.94h33.5v.03h-33.5z"/><path style="fill:#e13a2c" d="M36.42 85.33v38.61h-2.58v-38.3l1.2 2.08 1.38-2.39z"/><path class="cls-1" d="M16.45 36.94h1.93v.03h-1.93zM14.51 36.94h1.94v.03h-1.94z"/></g></svg>