<svg id="Layer_2" data-name="Layer 2" xmlns="http://www.w3.org/2000/svg" viewBox="0 0 119.05 119.05"><defs><style>.cls-3{fill:#e11f2a}.cls-4{fill:#26255e}</style></defs><g id="Layer_1-2" data-name="Layer 1"><path class="cls-3" d="M116.62 59.52c0 5.32-4.13 9.69-9.34 10.07.69-3.25 1.05-6.62 1.05-10.07s-.36-6.81-1.05-10.06c5.21.37 9.34 4.75 9.34 10.06ZM99.51 26.29c0 1.35-.39 2.64-1.13 3.73-2.68-3.53-5.82-6.68-9.35-9.36 1.09-.73 2.38-1.12 3.72-1.12 3.73 0 6.76 3.02 6.76 6.75ZM99.51 93.2c0 3.73-3.03 6.76-6.76 6.76-1.48 0-2.89-.48-4.04-1.35 3.58-2.67 6.77-5.83 9.49-9.36.86 1.14 1.31 2.5 1.31 3.95Z"/><path class="cls-4" d="M59.52 14.34c-24.92 0-45.18 20.26-45.18 45.18S34.6 104.7 59.52 104.7s45.18-20.26 45.18-45.18-20.27-45.18-45.18-45.18Zm0 79.79c-19.08 0-34.61-15.53-34.61-34.61s15.53-34.6 34.61-34.6 34.6 15.52 34.6 34.6-15.52 34.61-34.6 34.61Z"/><path d="M59.52 24.92c19.08 0 34.59 15.53 34.59 34.61S78.6 94.14 59.52 94.14 24.91 78.61 24.91 59.53s15.53-34.61 34.61-34.61Zm24.94 34.6c0-13.75-11.19-24.93-24.93-24.93S34.6 45.78 34.6 59.52s11.19 24.93 24.93 24.93 24.93-11.19 24.93-24.93Z" style="fill:#00b2d9"/><path class="cls-4" d="M59.52 34.59c13.75 0 24.93 11.19 24.93 24.93S73.26 84.45 59.52 84.45 34.59 73.26 34.59 59.52s11.19-24.93 24.93-24.93Z"/><path class="cls-3" d="M69.59 11.75c-3.25-.69-6.62-1.05-10.07-1.05s-6.83.36-10.08 1.05c.39-5.22 4.77-9.34 10.08-9.34s9.68 4.12 10.07 9.34ZM69.59 107.3c-.39 5.22-4.77 9.34-10.07 9.34s-9.69-4.12-10.08-9.34c3.25.68 6.62 1.04 10.08 1.04s6.82-.36 10.07-1.04Z"/><path d="M106.7 46.99c-1.43-5.39-3.76-10.42-6.83-14.93 1.32-1.62 2.05-3.64 2.05-5.77 0-5.06-4.1-9.18-9.17-9.18-2.14 0-4.17.74-5.79 2.07-4.49-3.07-9.53-5.41-14.92-6.84C71.94 5.51 66.37 0 59.52 0S47.09 5.51 46.99 12.34c-5.47 1.45-10.54 3.83-15.08 6.96-1.65-1.42-3.73-2.19-5.92-2.19-5.04 0-9.16 4.12-9.16 9.18 0 2.23.78 4.33 2.21 5.98-2.99 4.45-5.28 9.4-6.69 14.72C5.52 47.08 0 52.68 0 59.52s5.52 12.45 12.35 12.54c1.44 5.42 3.79 10.47 6.87 14.97-1.52 1.68-2.39 3.88-2.39 6.17 0 5.07 4.12 9.18 9.16 9.18 2.31 0 4.53-.88 6.2-2.44 4.47 3.04 9.45 5.35 14.8 6.77.1 6.83 5.67 12.34 12.53 12.34s12.42-5.51 12.52-12.34c5.27-1.41 10.22-3.67 14.63-6.65 1.67 1.5 3.81 2.32 6.08 2.32 5.07 0 9.17-4.11 9.17-9.18 0-2.23-.78-4.32-2.23-5.97 3.14-4.55 5.55-9.68 7.01-15.17 6.82-.11 12.35-5.69 12.35-12.54s-5.53-12.43-12.35-12.53Zm-94.93 22.6c-5.23-.38-9.36-4.75-9.36-10.07s4.13-9.69 9.36-10.06c-.69 3.25-1.05 6.62-1.05 10.06s.36 6.82 1.05 10.07Zm80.98-50.05c3.73 0 6.76 3.02 6.76 6.75 0 1.35-.39 2.64-1.13 3.73-2.68-3.53-5.82-6.68-9.35-9.36 1.09-.73 2.38-1.12 3.72-1.12ZM59.52 2.41c5.3 0 9.68 4.12 10.07 9.34-3.25-.69-6.62-1.05-10.07-1.05s-6.83.36-10.08 1.05c.39-5.22 4.77-9.34 10.08-9.34ZM25.99 19.54c1.43 0 2.77.43 3.9 1.24-3.54 2.7-6.7 5.87-9.38 9.44-.82-1.13-1.27-2.49-1.27-3.93 0-3.73 3.04-6.75 6.75-6.75Zm0 80.42c-3.71 0-6.75-3.03-6.75-6.76 0-1.54.51-2.99 1.44-4.16 2.72 3.58 5.91 6.75 9.51 9.45-1.19.94-2.67 1.47-4.2 1.47Zm33.53 16.68c-5.31 0-9.69-4.12-10.08-9.34 3.25.68 6.62 1.04 10.08 1.04s6.82-.36 10.07-1.04c-.39 5.22-4.77 9.34-10.07 9.34Zm33.23-16.68c-1.48 0-2.89-.48-4.04-1.35 3.58-2.67 6.77-5.83 9.49-9.36.86 1.14 1.31 2.5 1.31 3.95 0 3.73-3.03 6.76-6.76 6.76Zm-33.23 4.74c-24.92 0-45.18-20.26-45.18-45.18S34.6 14.34 59.52 14.34 104.7 34.6 104.7 59.52 84.43 104.7 59.52 104.7Zm47.76-35.11c.69-3.25 1.05-6.62 1.05-10.07s-.36-6.81-1.05-10.06c5.21.37 9.34 4.75 9.34 10.06s-4.13 9.69-9.34 10.07Z" style="fill:#f3bb1c"/><path class="cls-3" d="M30.19 98.49c-1.19.94-2.67 1.47-4.2 1.47-3.71 0-6.75-3.03-6.75-6.76 0-1.54.51-2.99 1.44-4.16 2.72 3.58 5.91 6.75 9.51 9.45ZM29.89 20.78c-3.54 2.7-6.7 5.87-9.38 9.44-.82-1.13-1.27-2.49-1.27-3.93 0-3.73 3.04-6.75 6.75-6.75 1.43 0 2.77.43 3.9 1.24ZM10.72 59.52c0 3.45.36 6.82 1.05 10.07-5.23-.38-9.36-4.75-9.36-10.07s4.13-9.69 9.36-10.06c-.69 3.25-1.05 6.62-1.05 10.06Z"/></g></svg>