<svg id="Layer_2" data-name="Layer 2" xmlns="http://www.w3.org/2000/svg" viewBox="0 0 105.81 127.56"><defs><style>.cls-1{fill:#f3bb1c}.cls-4{fill:#26255e}</style></defs><g id="Layer_1-2" data-name="Layer 1"><path class="cls-1" d="M105.81 18.65 94.57 0 83.78 18.68l.11.06H21.86l.16-.09L10.78 0 0 18.68l.1.06H0l50.09 102.11 2.8 6.71 2.75-6.59 50.17-102.23h-.16l.16-.09ZM10.85 7.96l6.51 10.78H4.63l6.22-10.78Zm51.6 89.76-.61 1.45-8.93 18.21-8.92-18.18-.62-1.48 9.55-22.84 9.53 22.83ZM74.3 73.78l-6.32 12.87-3.9 7.96-11.16-26.73-11.18 26.74-3.91-7.97-6.32-12.88-25-50.98h46.31l.1-.26.11.26h46.29L74.3 73.78Zm14.12-55.04 6.22-10.78 6.51 10.78H88.42Z"/><path class="cls-4" d="M101.15 18.74H88.42l6.22-10.78 6.51 10.78zM99.32 22.79 74.3 73.78 53.03 22.79h46.29z"/><path style="fill:#00b2d9" d="m74.3 73.78-6.32 12.87-15.06-36.1-15.09 36.1-6.32-12.88 21.31-50.98h.21L74.3 73.78z"/><path class="cls-4" d="m67.98 86.65-3.9 7.96-11.16-26.73-11.18 26.74-3.91-7.97 15.09-36.1 15.06 36.1z"/><path style="fill:#e11f2a" d="M62.45 97.71v.01l-.61 1.45-8.93 18.21-8.92-18.18-.62-1.48 9.55-22.84 9.53 22.83z"/><path class="cls-1" d="M53.03 22.79h-.21l.1-.26.11.26z"/><path class="cls-4" d="M52.82 22.79 31.51 73.77l-25-50.98h46.31zM17.36 18.74H4.63l6.22-10.78 6.51 10.78z"/></g></svg>