<svg id="Layer_2" data-name="Layer 2" xmlns="http://www.w3.org/2000/svg" viewBox="0 0 87.86 127.56"><defs><style>.cls-1{fill:#f3bb1c}.cls-2{fill:#00b2d9}.cls-3{fill:#e11f2a}.cls-4{fill:#26255e}</style></defs><g id="Layer_1-2" data-name="Layer 1"><path class="cls-3" d="M87.86 121.24c0 3.49-2.83 6.32-6.32 6.32-2.78 0-5.14-1.8-5.99-4.3-.21-.64-.33-1.32-.33-2.02s.12-1.39.33-2.02c.63-1.87 2.11-3.34 3.97-3.97.63-.21 1.32-.33 2.02-.33s1.39.12 2.02.33c2.5.84 4.3 3.21 4.3 5.99Z"/><path class="cls-1" d="M83.56 12.31v102.94c-.63-.21-1.31-.33-2.02-.33s-1.39.12-2.02.33V12.31c.63.21 1.32.33 2.02.33s1.39-.12 2.02-.33Z"/><path class="cls-4" d="M79.52 12.31v102.94c-1.86.63-3.34 2.1-3.97 3.97h-1.68V8.34h1.68c.63 1.86 2.11 3.34 3.97 3.97Z"/><path class="cls-3" d="M87.86 6.32c0 2.78-1.8 5.14-4.3 5.99-.63.21-1.31.33-2.02.33s-1.39-.12-2.02-.33c-1.86-.63-3.34-2.11-3.97-3.97-.21-.63-.33-1.31-.33-2.02s.12-1.39.33-2.02C76.4 1.8 78.76 0 81.54 0c3.49 0 6.32 2.83 6.32 6.32Z"/><path class="cls-1" d="M75.22 6.32c0 .71.12 1.39.33 2.02H12.31c.21-.63.33-1.31.33-2.02s-.12-1.39-.33-2.02h63.24c-.21.63-.33 1.31-.33 2.02Z"/><path class="cls-2" d="M57.55 8.34h16.32v110.88H57.55z"/><path class="cls-1" d="M75.22 121.24c0 .7.12 1.38.33 2.02H12.31c.21-.64.33-1.32.33-2.02s-.12-1.39-.33-2.02h63.24c-.21.63-.33 1.31-.33 2.02Z"/><path class="cls-4" d="M30.8 8.34h26.75v110.88H30.8z"/><path class="cls-2" d="M14.48 8.34H30.8v110.88H14.48z"/><path class="cls-4" d="M14.48 8.34v110.88h-2.17c-.63-1.87-2.11-3.35-3.97-3.97V12.31c1.86-.63 3.34-2.11 3.97-3.97h2.17Z"/><path class="cls-3" d="M12.64 6.32c0 .71-.12 1.39-.33 2.02-.63 1.86-2.11 3.34-3.97 3.97-.64.21-1.31.33-2.02.33s-1.39-.12-2.02-.33C1.8 11.46 0 9.1 0 6.32 0 2.83 2.83 0 6.32 0c2.78 0 5.14 1.8 5.99 4.3.21.63.33 1.31.33 2.02ZM12.64 121.24c0 .7-.12 1.38-.33 2.02-.85 2.5-3.21 4.3-5.99 4.3-3.49 0-6.32-2.83-6.32-6.32 0-2.78 1.8-5.15 4.3-5.99.63-.21 1.31-.33 2.02-.33s1.38.12 2.02.33c1.86.62 3.34 2.1 3.97 3.97.21.63.33 1.31.33 2.02Z"/><path class="cls-1" d="M8.34 12.31v102.94c-.64-.21-1.31-.33-2.02-.33s-1.39.12-2.02.33V12.31c.63.21 1.31.33 2.02.33s1.38-.12 2.02-.33Z"/></g></svg>