<?xml version="1.0" encoding="UTF-8"?>
<svg id="Layer_2" xmlns="http://www.w3.org/2000/svg" viewBox="0 0 78.56 80">
  <defs>
    <style>
      .cls-1 {
        fill: #f3bb1c;
      }

      .cls-2 {
        fill: #e13a2c;
      }

      .cls-3 {
        fill: #26255e;
      }
    </style>
  </defs>
  <g id="Layer_1-2" data-name="Layer_1">
    <g>
      <path class="cls-3" d="M73.16,42.14c0-1.37-1.11-2.48-2.48-2.48s-2.48,1.11-2.48,2.48,1.11,2.48,2.48,2.48,2.48-1.11,2.48-2.48ZM50.31,59.28c-1.37,0-2.48,1.11-2.48,2.48s1.11,2.48,2.48,2.48,2.48-1.11,2.48-2.48-1.11-2.48-2.48-2.48ZM60.5,49.47c-1.37,0-2.48,1.11-2.48,2.48s1.11,2.48,2.48,2.48,2.48-1.11,2.48-2.48-1.11-2.48-2.48-2.48ZM40.13,74.06c1.37,0,2.48-1.11,2.48-2.48s-1.11-2.48-2.48-2.48-2.48,1.11-2.48,2.48,1.11,2.48,2.48,2.48ZM75.45,44.78l-32.11,32.11c-4.02-.29-7.83-1.36-11.38-3.19l40.31-40.31c1.79,3.52,2.88,7.42,3.18,11.39Z"/>
      <path class="cls-3" d="M70.83,30.91l-41.37,41.36c-1.57-1-3.05-2.15-4.41-3.42l42.36-42.36c1.27,1.36,2.42,2.84,3.42,4.42Z"/>
      <path class="cls-3" d="M66.1,25.19l-42.35,42.35c-1.27-1.35-2.42-2.83-3.42-4.41L61.7,21.76c1.57,1,3.04,2.15,4.4,3.43Z"/>
      <path class="cls-3" d="M52.94,21.91c0-1.37-1.11-2.48-2.48-2.48s-2.48,1.11-2.48,2.48,1.11,2.48,2.48,2.48,2.48-1.11,2.48-2.48ZM41.84,21.91c0-1.37-1.11-2.48-2.48-2.48s-2.48,1.11-2.48,2.48,1.11,2.48,2.48,2.48,2.48-1.11,2.48-2.48ZM40.64,34.58c1.37,0,2.48-1.11,2.48-2.48s-1.11-2.48-2.48-2.48-2.48,1.11-2.48,2.48,1.11,2.48,2.48,2.48ZM30.83,44.76c1.37,0,2.48-1.11,2.48-2.48s-1.11-2.48-2.48-2.48-2.48,1.11-2.48,2.48,1.11,2.48,2.48,2.48ZM21.02,38.89c-1.37,0-2.48,1.11-2.48,2.48s1.11,2.48,2.48,2.48,2.48-1.11,2.48-2.48-1.11-2.48-2.48-2.48ZM21.02,54.95c1.37,0,2.48-1.11,2.48-2.48s-1.11-2.48-2.48-2.48-2.48,1.11-2.48,2.48,1.11,2.48,2.48,2.48ZM15.62,47.02c0-3.92.74-7.73,2.21-11.33.1-.25.2-.49.32-.73,3.35-7.63,9.71-13.51,17.59-16.24.14-.05.27-.09.41-.14,3.01-1.01,6.19-1.52,9.43-1.52,4.75,0,9.42,1.13,13.62,3.27L18.9,60.64c-2.15-4.2-3.28-8.87-3.28-13.62ZM32.67,31.64c0-1.37-1.11-2.48-2.48-2.48s-2.48,1.11-2.48,2.48,1.11,2.48,2.48,2.48,2.48-1.11,2.48-2.48Z"/>
      <path class="cls-3" d="M30.71,16.62c.38.24.77.46,1.17.65-6.55,3.02-11.93,8.11-15.29,14.52-1.74-2.99-4.69-5.23-7.37-7.27-.64-.49-1.26-.96-1.8-1.39l-.19-.16c-2.67-2.23-4.2-5.42-4.2-8.74,0-6.18,5.02-11.2,11.2-11.2,1.17,0,2.33.19,3.45.57,1.1.37,2.16.92,3.15,1.64,1,.73,1.9,1.63,2.65,2.68l.03.03s.01.02.02.03c.46.69.86,1.4,1.28,2.16.75,1.35,1.52,2.75,2.72,3.95.98.98,2.05,1.83,3.18,2.53Z"/>
      <path class="cls-1" d="M76.88,45.32c.03.56.04,1.12.04,1.7v.22l-1.43,1.43c.03-.55.05-1.1.05-1.65v-.36l1.34-1.34Z"/>
      <path class="cls-1" d="M76.92,47.02c0-.58-.01-1.14-.04-1.7l-1.34,1.34c-.01-.43-.03-.85-.05-1.27,0-.2-.02-.4-.04-.61l.68-.68,1.96,1.97-1.17,1.17v-.22Z"/>
      <path class="cls-1" d="M75.54,46.66v.36c0,.55-.02,1.1-.05,1.65l-28.27,28.26c-.54.04-1.09.05-1.64.05h-.36l30.32-30.32Z"/>
      <path class="cls-1" d="M75.54,46.66l-30.32,30.32c-.43-.01-.85-.03-1.27-.05-.21-.01-.41-.02-.61-.04l32.11-32.11c.02.21.03.41.04.61.02.42.04.84.05,1.27Z"/>
      <path class="cls-1" d="M75.49,48.67c-.82,15.21-13.06,27.44-28.27,28.26l28.27-28.26Z"/>
      <path class="cls-1" d="M73.57,32.09l-1.3,1.3c-.28-.53-.57-1.06-.88-1.57-.18-.31-.36-.61-.56-.91l.78-.78,1.96,1.96Z"/>
      <circle class="cls-1" cx="70.68" cy="42.14" r="2.48"/>
      <path class="cls-1" d="M72.27,33.39l-40.31,40.31c-.54-.27-1.07-.56-1.59-.87-.31-.18-.61-.37-.91-.56l41.37-41.36c.2.3.38.6.56.91.31.51.6,1.04.88,1.57Z"/>
      <path class="cls-1" d="M67.09,24.2l1.3,1.31-.98.98c-.22-.22-.43-.44-.65-.65-.22-.22-.44-.43-.66-.65l.99-.99Z"/>
      <path class="cls-2" d="M67.41,26.49l-42.36,42.36c-.22-.22-.44-.43-.66-.65s-.43-.44-.64-.66l42.35-42.35c.22.22.44.43.66.65.22.21.43.43.65.65Z"/>
      <path class="cls-1" d="M60.7,18.83l1.96,1.97-.96.96c-.3-.19-.61-.38-.92-.56-.52-.31-1.04-.6-1.58-.87l1.5-1.5Z"/>
      <circle class="cls-1" cx="60.5" cy="51.95" r="2.48"/>
      <path class="cls-1" d="M67.09,24.2l-.99.99c-1.36-1.28-2.83-2.43-4.4-3.43l.96-.96-1.96-1.97.34-.66c.39.2.77.42,1.15.64,2.38,1.4,4.58,3.11,6.53,5.07,1.95,1.93,3.65,4.13,5.06,6.52,2.65,4.48,4.2,9.61,4.48,14.84h0c.01.28.03.55.04.82h-.21s-1.96-1.96-1.96-1.96l-.68.68c-.3-3.97-1.39-7.87-3.18-11.39l1.3-1.3-1.96-1.96-.78.78c-1-1.58-2.15-3.06-3.42-4.42l.98-.98-1.3-1.31Z"/>
      <path class="cls-1" d="M61.7,21.76L20.33,63.13c-.2-.3-.39-.6-.57-.91-.3-.52-.59-1.05-.86-1.58L59.2,20.33c.54.27,1.06.56,1.58.87.31.18.62.37.92.56Z"/>
      <circle class="cls-1" cx="50.46" cy="21.91" r="2.48"/>
      <circle class="cls-1" cx="50.31" cy="61.76" r="2.48"/>
      <path class="cls-1" d="M47.22,76.93c15.21-.82,27.45-13.05,28.27-28.26l1.43-1.43c-.12,17.14-13.99,31.01-31.13,31.12l1.43-1.43Z"/>
      <path class="cls-1" d="M45.58,76.98c.55,0,1.1-.01,1.64-.05l-1.43,1.43h-.21c-.58,0-1.14-.01-1.7-.04l1.34-1.34h.36Z"/>
      <path class="cls-1" d="M78.31,47.02c0,18.05-14.68,32.73-32.73,32.73-.34,0-.69-.01-1.02-.02v-.15s1.23-1.22,1.23-1.22c17.14-.11,31.01-13.98,31.13-31.12l1.17-1.17h.21c0,.31.01.63.01.95Z"/>
      <path class="cls-1" d="M45.58,78.36h.21l-1.22,1.22-1.96-1.96.73-.73c.2.02.4.03.61.04.42.02.84.04,1.27.05l-1.34,1.34c.56.03,1.12.04,1.7.04Z"/>
      <circle class="cls-1" cx="40.64" cy="32.1" r="2.48"/>
      <circle class="cls-1" cx="40.13" cy="71.58" r="2.48"/>
      <circle class="cls-1" cx="39.36" cy="21.91" r="2.48"/>
      <path class="cls-1" d="M35.72,18.65v-1.41s.34-1.32.34-1.32c-.13-.03-.26-.07-.38-.11,3.17-1.01,6.51-1.53,9.9-1.53,5.41,0,10.73,1.34,15.46,3.89l-.34.66-1.5,1.5c-4.2-2.14-8.87-3.27-13.62-3.27-3.24,0-6.42.51-9.43,1.52-.14.05-.27.09-.41.14l-.02-.07Z"/>
      <path class="cls-1" d="M35.71,17.24v1.41s-.35-.05-.35-.05c-.3-.07-.6-.16-.89-.25-.89-.28-1.75-.63-2.59-1.08,1.1-.5,2.23-.95,3.39-1.33.14-.05.27-.09.41-.13.12.04.25.08.38.11l-.35,1.32Z"/>
      <circle class="cls-1" cx="30.83" cy="42.28" r="2.48"/>
      <circle class="cls-1" cx="30.19" cy="31.64" r="2.48"/>
      <path class="cls-1" d="M30.37,72.83c.52.31,1.05.6,1.59.87l-1.45,1.45-1.96-1.97.14-.14.77-.77c.3.19.6.38.91.56Z"/>
      <path class="cls-1" d="M23.51,7.95l2.32-1.52c.54.79.97,1.59,1.41,2.36.68,1.24,1.33,2.42,2.25,3.34.83.82,1.73,1.54,2.68,2.13,1,.62,2.05,1.1,3.11,1.44.13.04.26.08.4.11-.14.04-.27.08-.41.13-1.16.38-2.29.83-3.39,1.33-.4-.19-.79-.41-1.17-.65-1.13-.7-2.2-1.55-3.18-2.53-1.2-1.2-1.97-2.6-2.72-3.95-.42-.76-.82-1.47-1.28-2.16-.01-.01-.01-.02-.02-.03Z"/>
      <path class="cls-1" d="M25.59,6.07c.04.06.07.11.1.16l-.12-.15h.02Z"/>
      <path class="cls-1" d="M25.53,6.03s.03.03.04.05l-1.11.71,1.07-.76Z"/>
      <path class="cls-1" d="M16.59,31.79c3.36-6.41,8.74-11.5,15.29-14.52.84.45,1.7.8,2.59,1.08.29.09.59.18.89.25l.36.05.02.07c-7.88,2.73-14.24,8.61-17.59,16.24l-.31-.14c-.27-1.09-.7-2.1-1.25-3.03Z"/>
      <path class="cls-1" d="M24.39,68.2c.22.22.44.43.66.65l-.98.98-1.31-1.3.99-.99c.21.22.42.44.64.66Z"/>
      <path class="cls-1" d="M25.83,6.43l-2.32,1.52s-.03-.04-.04-.06l-.19-.27,1.18-.83,1.11-.71.12.15s.06.09.09.13c.02.02.03.05.05.07Z"/>
      <circle class="cls-1" cx="21.02" cy="41.37" r="2.48"/>
      <circle class="cls-1" cx="21.02" cy="52.47" r="2.48"/>
      <path class="cls-1" d="M20.33,63.13l-.78.78-1.96-1.96,1.31-1.31c.27.53.56,1.06.86,1.58.18.31.37.61.57.91Z"/>
      <path class="cls-1" d="M15.06,35.17c.06-.18.13-.35.2-.53.4-.98.84-1.93,1.33-2.85.55.93.98,1.94,1.25,3.03l-2.69.66c-.03-.11-.05-.21-.09-.31Z"/>
      <path class="cls-1" d="M15.62,47.02c0,4.75,1.13,9.42,3.28,13.62l-1.31,1.31,1.96,1.96.78-.78c1,1.58,2.15,3.06,3.42,4.41l-.99.99,1.31,1.3.98-.98c1.36,1.27,2.84,2.42,4.41,3.42l-.77.77-.14.14,1.96,1.97,1.45-1.45c3.55,1.83,7.36,2.9,11.38,3.19l-.73.73,1.96,1.96v.15c-.26-.01-.51-.02-.76-.03-5.23-.28-10.36-1.83-14.85-4.48-2.38-1.4-4.58-3.1-6.53-5.06-1.94-1.94-3.65-4.14-5.06-6.53-2.96-5.01-4.53-10.76-4.53-16.61,0-4.09.75-8.07,2.22-11.85.04.1.06.2.09.31l2.69-.66.31.14c-.12.24-.22.48-.32.73-1.47,3.6-2.21,7.41-2.21,11.33Z"/>
      <path class="cls-1" d="M9.22,24.52c2.68,2.04,5.63,4.28,7.37,7.27-.49.92-.93,1.87-1.33,2.85-.07.18-.14.35-.2.53-1.02-3.5-4.47-6.12-7.52-8.44-.66-.5-1.3-.99-1.89-1.47l-.2-.16,1.78-2.13.19.16c.54.43,1.16.9,1.8,1.39Z"/>
      <path class="cls-1" d="M7.23,22.97l-1.78,2.13-.05-.04c-.08-.07-.15-.13-.23-.21l1.74-2.14.32.26Z"/>
      <path class="cls-1" d="M5.17,24.85c.08.08.15.14.23.21l-.24-.2h.01Z"/>
      <path class="cls-1" d="M20.83,5.24c-.99-.72-2.05-1.27-3.15-1.64-1.12-.38-2.28-.57-3.45-.57-6.18,0-11.2,5.02-11.2,11.2,0,3.32,1.53,6.51,4.2,8.74l-.32-.26-1.74,2.14C2.04,22.11.25,18.26.25,14.23.25,6.52,6.52.25,14.23.25c1.48,0,2.94.24,4.34.72,1.36.46,2.67,1.14,3.88,2.02,1.16.85,2.2,1.87,3.08,3.04l-1.07.76-1.18.83.19.27s.03.04.04.06l-.03-.03c-.75-1.05-1.65-1.95-2.65-2.68Z"/>
    </g>
  </g>
</svg>