<?xml version="1.0" encoding="UTF-8"?>
<svg id="Layer_2" xmlns="http://www.w3.org/2000/svg" viewBox="0 0 80.66 80">
  <defs>
    <style>
      .cls-1 {
        fill: #f3bb1c;
      }

      .cls-2 {
        fill: #e13a2c;
      }

      .cls-3 {
        fill: #26255e;
      }
    </style>
  </defs>
  <g id="Layer_1-2" data-name="Layer_1">
    <g>
      <path class="cls-3" d="M49.87,57.67c1.69,2.13,2.6,4.75,2.6,7.51,0,6.7-5.45,12.15-12.14,12.15s-12.15-5.45-12.15-12.15c0-2.76.92-5.38,2.61-7.51l9.54,16,9.54-16Z"/>
      <polygon class="cls-3" points="70.27 18.75 48.03 56.03 40.33 68.95 32.64 56.05 10.38 18.74 15.39 18.74 22.71 18.74 40.33 49.24 57.93 18.75 65.21 18.75 70.27 18.75"/>
      <path class="cls-1" d="M80.41,16.32v2.42h-6.79v-.87l.92-1.54h-.96s.01,0,0-.01h6.83Z"/>
      <path class="cls-1" d="M74.54,16.33l-.92,1.54v-.34c0-.4-.01-.8-.04-1.2h.96Z"/>
      <polygon class="cls-1" points="73.62 17.87 73.62 18.74 73.1 18.74 73.62 17.87"/>
      <path class="cls-1" d="M73.62,17.53v.34l-.52.87h-.69v-2.41h1.17c.03.4.04.8.04,1.2Z"/>
      <path class="cls-1" d="M73.58,16.32s0,.01,0,.01h-1.17s1.17-.01,1.17-.01Z"/>
      <path class="cls-1" d="M72.41,16.33v1.2c0-.4-.01-.8-.04-1.2h.04Z"/>
      <path class="cls-1" d="M71.16,16.32h-3.53V6.43c2.09,2.89,3.31,6.29,3.53,9.89Z"/>
      <path class="cls-1" d="M65.21,18.74h7.89l-21.92,36.74c-.21-.24-.43-.47-.66-.7l-1.69,1.73-.8-.48,22.24-37.28h-5.06Z"/>
      <path class="cls-1" d="M71.16,16.32c-.22-3.6-1.44-7-3.53-9.89v9.89h3.53ZM66.42,3.15c3.44,3.41,5.65,8.04,5.95,13.18h-5.95V3.15Z"/>
      <path class="cls-1" d="M66.42,16.33h5.95c.03.4.04.8.04,1.2h-5.99v-1.2Z"/>
      <polygon class="cls-1" points="66.42 17.53 72.41 17.53 72.41 18.74 65.21 18.74 65.21 16.33 66.42 16.33 66.42 17.53"/>
      <path class="cls-1" d="M72.41,16.32h0s-.04.01-.04.01c-.3-5.14-2.51-9.77-5.95-13.18v13.18h-1.21V.25l2.06,2.04c3.81,3.78,6.03,8.73,6.31,14.03h-1.17Z"/>
      <polygon class="cls-1" points="59.33 16.33 58.63 17.54 53.79 17.54 54.48 16.33 59.33 16.33"/>
      <polygon class="cls-1" points="58.63 17.54 59.33 16.33 65.21 16.33 65.21 18.74 65.21 18.75 57.93 18.75 58.63 17.54"/>
      <polygon class="cls-1" points="58.63 17.54 57.93 18.75 53.09 18.75 53.79 17.54 58.63 17.54"/>
      <polygon class="cls-1" points="57.93 18.75 40.33 49.24 22.71 18.74 27.56 18.74 40.33 40.85 53.09 18.75 57.93 18.75"/>
      <polygon class="cls-1" points="54.49 16.32 54.48 16.33 26.17 16.33 26.16 16.32 54.49 16.32"/>
      <polygon class="cls-1" points="53.79 17.54 53.09 18.75 51.69 18.75 52.38 17.54 53.79 17.54"/>
      <polygon class="cls-1" points="52.39 17.53 52.38 17.54 28.27 17.54 28.26 17.53 52.39 17.53"/>
      <path class="cls-1" d="M51.18,55.48l-1.31,2.19c-.32-.41-.66-.79-1.04-1.16l1.69-1.73c.23.23.45.46.66.7Z"/>
      <polygon class="cls-2" points="50.3 18.74 50.3 18.75 30.36 18.74 50.3 18.74"/>
      <polygon class="cls-2" points="50.3 18.75 48.38 22.06 32.28 22.06 30.36 18.74 50.3 18.75"/>
      <polygon class="cls-2" points="48.38 22.06 40.33 36.01 32.28 22.06 48.38 22.06"/>
      <polygon class="cls-1" points="40.33 36.01 48.38 22.06 48.56 22.06 40.33 36.33 32.09 22.06 32.28 22.06 40.33 36.01"/>
      <polygon class="cls-1" points="40.33 40.85 27.56 18.74 28.96 18.74 40.33 38.43 51.69 18.75 53.09 18.75 40.33 40.85"/>
      <path class="cls-1" d="M49.87,57.67l-9.54,16-9.54-16c.29-.38.61-.74.95-1.08l.9-.54,7.69,12.9,7.7-12.92.8.48c.38.37.72.75,1.04,1.16Z"/>
      <path class="cls-1" d="M30.03,54.88l1.71,1.71c-.34.34-.66.7-.95,1.08l-1.32-2.2c.18-.2.37-.4.56-.59Z"/>
      <polygon class="cls-1" points="51.69 18.75 50.3 18.75 50.3 18.74 30.36 18.74 28.96 18.74 28.27 17.54 52.38 17.54 51.69 18.75"/>
      <polygon class="cls-1" points="50.3 18.75 51.69 18.75 40.33 38.43 28.96 18.74 30.36 18.74 32.28 22.06 32.09 22.06 40.33 36.33 48.56 22.06 48.38 22.06 50.3 18.75"/>
      <polygon class="cls-1" points="28.27 17.54 28.96 18.74 27.56 18.74 26.86 17.54 28.27 17.54"/>
      <polygon class="cls-1" points="26.17 16.33 54.48 16.33 53.79 17.54 52.38 17.54 52.39 17.53 28.26 17.53 28.27 17.54 26.86 17.54 26.17 16.33"/>
      <path class="cls-1" d="M51.18,55.48c2.4,2.67,3.71,6.07,3.71,9.7,0,8.03-6.53,14.57-14.56,14.57s-14.57-6.54-14.57-14.57c0-3.62,1.32-7.04,3.71-9.71l1.32,2.2c-1.69,2.13-2.61,4.75-2.61,7.51,0,6.7,5.45,12.15,12.15,12.15s12.14-5.45,12.14-12.15c0-2.76-.91-5.38-2.6-7.51l1.31-2.19Z"/>
      <polygon class="cls-1" points="26.86 17.54 27.56 18.74 22.71 18.74 22.02 17.54 26.86 17.54"/>
      <polygon class="cls-1" points="21.32 16.33 26.17 16.33 26.86 17.54 22.02 17.54 21.32 16.33"/>
      <polygon class="cls-1" points="22.02 17.54 22.71 18.74 15.39 18.74 15.39 16.33 21.32 16.33 22.02 17.54"/>
      <polygon class="cls-1" points="15.39 16.33 15.39 18.74 10.38 18.74 8.25 18.74 8.25 17.53 14.18 17.53 14.18 16.33 15.39 16.33"/>
      <path class="cls-1" d="M12.97,6.51v9.81h-3.47c.22-3.56,1.42-6.94,3.47-9.81Z"/>
      <path class="cls-1" d="M30.03,54.88c-.19.19-.38.39-.56.59L7.56,18.74h2.82l22.26,37.31-.9.54-1.71-1.71Z"/>
      <path class="cls-1" d="M9.5,16.32h4.68v1.21h-5.93c0-.41.01-.81.04-1.21h1.21Z"/>
      <path class="cls-1" d="M14.18,3.21v13.12h-4.03s2.82-.01,2.82-.01V6.51c-2.05,2.87-3.25,6.25-3.47,9.81h-1.21c.3-5.11,2.49-9.72,5.89-13.11Z"/>
      <path class="cls-1" d="M15.39.29v16.04h-1.21V3.21c-3.4,3.39-5.59,8-5.89,13.11h-1.21c.29-5.28,2.48-10.2,6.24-13.97L15.39.29Z"/>
      <path class="cls-1" d="M8.29,16.32c-.03.4-.04.8-.04,1.21v-1.21h.04Z"/>
      <path class="cls-1" d="M8.25,17.53v1.21h-.69l-.52-.87v-.34c0-.41.01-.81.04-1.21h1.17v1.21Z"/>
      <path class="cls-1" d="M8.25,16.32h-1.17s0-.01,0-.01h1.17Z"/>
      <polygon class="cls-1" points="7.04 17.87 7.56 18.74 7.04 18.74 7.04 17.87"/>
      <path class="cls-1" d="M7.08,16.31s-.01,0,0,.01h-.97s.97-.01.97-.01Z"/>
      <path class="cls-1" d="M7.08,16.32c-.03.4-.04.8-.04,1.21v.34l-.92-1.55h.96Z"/>
      <polygon class="cls-1" points="7.04 17.87 7.04 18.74 .25 18.74 .25 16.32 6.12 16.32 7.04 17.87"/>
    </g>
  </g>
</svg>