<?xml version="1.0" encoding="UTF-8"?>
<svg id="Layer_2" xmlns="http://www.w3.org/2000/svg" viewBox="0 0 79.5 80">
  <defs>
    <style>
      .cls-1 {
        fill: #f3bb1c;
      }

      .cls-2 {
        fill: #e13a2c;
      }

      .cls-3 {
        fill: #26255e;
      }
    </style>
  </defs>
  <g id="Layer_1-2" data-name="Layer_1">
    <g>
      <path class="cls-3" d="M33.77,41.66l-28.97,12c-.13-.14-.28-.27-.44-.37v-26.06c.17-.11.33-.24.47-.38l28.93,11.98c-.11.46-.17.94-.17,1.42s.06.95.18,1.41Z"/>
      <path class="cls-3" d="M36.51,45.48l-11.98,28.96c-.19,0-.38.02-.57.06L5.51,56.04c.03-.17.05-.35.05-.53v-.04l28.95-12c.49.81,1.18,1.51,2,2.01Z"/>
      <path class="cls-3" d="M41.16,46.24l12,28.95c-.14.12-.27.27-.38.43h-26.08c-.11-.15-.23-.29-.36-.42l11.98-28.97c.47.12.95.18,1.43.18s.96-.05,1.41-.17Z"/>
      <path class="cls-3" d="M75.12,27.21v26.07c-.17.11-.32.24-.45.38l-28.96-12c.12-.46.18-.93.18-1.41s-.06-.96-.17-1.42l28.97-11.99c.13.14.27.26.43.37Z"/>
      <path class="cls-3" d="M52.77,4.87c.11.16.24.32.38.46l-11.99,28.94c-.91-.22-1.89-.22-2.83,0L26.54,5.8c.3-.26.55-.57.73-.93h25.5Z"/>
      <path class="cls-3" d="M24.73,6.56l11.79,28.46c-.82.5-1.51,1.19-2.01,2L5.59,25.05v-.07c0-.19-.02-.37-.06-.55L23.54,6.43c.3.09.62.14.95.14.08,0,.16,0,.24-.01Z"/>
      <path class="cls-1" d="M76.58,54.32h-.32l-1.14-.47v-.57c.42-.27.92-.43,1.46-.43s1.05.16,1.47.45v1.02h-1.47Z"/>
      <path class="cls-1" d="M76.58,27.64c.55,0,1.05-.16,1.47-.45v26.11c-.42-.29-.92-.45-1.47-.45s-1.04.16-1.46.43v-26.07c.42.27.93.43,1.46.43Z"/>
      <path class="cls-1" d="M75.12,26.66l.75-.31h0s.39-.17.39-.17h1.79v1.01c-.42.29-.92.45-1.47.45s-1.04-.16-1.46-.43v-.55Z"/>
      <path class="cls-1" d="M76.58,55.23v-.78l.38.16-.27.64s-.07-.02-.11-.02Z"/>
      <path class="cls-1" d="M76.58,26.05v-.8s.07,0,.1-.02l.27.67-.37.15Z"/>
      <path class="cls-1" d="M76.69,55.25l-.11.26v-.28s.08.01.11.02Z"/>
      <path class="cls-1" d="M76.58,25.01v-.02h-.01s-.01-.04-.01-.04l.26-.12.03.06-.25.11.19.18h-.01s-.06.05-.1.05l-.1-.22Z"/>
      <path class="cls-1" d="M76.58,25.01l.1.22s-.07.03-.1.02v-.24Z"/>
      <path class="cls-1" d="M76.58,55.51l.11-.26s.07.04.09.06c.05.05.09.13.09.2,0,.04-.01.09-.01.09-.06.14-.23.18-.36.13l.08-.22Z"/>
      <path class="cls-1" d="M76.58,55.51l-.08.22h-.01s-.06-.02-.09-.04l.18-.18Z"/>
      <path class="cls-1" d="M76.33,55.4c.04-.1.14-.17.25-.17v.28l-.25-.1h0Z"/>
      <path class="cls-1" d="M76.33,54.35c.08-.02.16-.03.25-.03v.13l-.25-.1Z"/>
      <path class="cls-1" d="M76.58,26.18c-.09,0-.17-.01-.25-.03l.25-.1v.13Z"/>
      <path class="cls-1" d="M76.57,24.98h.01s-.01,0-.01,0Z"/>
      <path class="cls-1" d="M76.58,26.18h-.32l.07-.03c.08.02.16.03.25.03Z"/>
      <path class="cls-1" d="M76.26,54.32h.32c-.09,0-.17.01-.25.03l-.07-.03Z"/>
      <path class="cls-1" d="M76.58,58.16c-.18,0-.35-.02-.52-.05l.72-.72-1.03-1.04c.21.22.51.35.83.35.67,0,1.2-.54,1.2-1.19s-.53-1.19-1.2-1.19h1.47v-1.02c.72.47,1.2,1.28,1.2,2.21,0,1.46-1.2,2.65-2.67,2.65Z"/>
      <polygon class="cls-1" points="76.39 24.79 76.56 24.95 76.57 24.98 76.39 24.8 76.39 24.79"/>
      <path class="cls-1" d="M76.21,56.41l.28-.68h.01c.13.05.3.01.36-.13,0,0,.01-.05.01-.09,0-.07-.04-.15-.09-.2-.02-.02-.06-.04-.09-.06l.27-.64-.38-.16v-.13c.67,0,1.2.53,1.2,1.19s-.53,1.19-1.2,1.19c-.32,0-.62-.13-.83-.35l.09-.09.37.15Z"/>
      <path class="cls-1" d="M75.84,56.26l.56-.57s.06.03.09.04l-.28.68-.37-.15Z"/>
      <path class="cls-1" d="M75.5,55.06c.14-.36.45-.63.83-.71l.25.1v.78c-.11,0-.21.07-.25.17l-.83-.34Z"/>
      <path class="cls-1" d="M76.33,55.41l.25.1-.18.18s-.09-.1-.09-.18c0-.03.01-.07.02-.1Z"/>
      <path class="cls-1" d="M76.14,25.17l.17-.07-.17.07Z"/>
      <polygon class="cls-1" points="76.26 54.32 75.12 54.32 75.12 53.85 76.26 54.32"/>
      <polygon class="cls-1" points="76.39 24.8 75.83 24.24 76.21 24.09 76.56 24.95 76.39 24.79 76.39 24.8"/>
      <polygon class="cls-1" points="76.26 26.18 75.87 26.34 75.8 26.18 76.26 26.18"/>
      <path class="cls-1" d="M76.12,25.18h.02s-.02,0-.02,0Z"/>
      <path class="cls-1" d="M76.31,25.1l.27-.11v.26c-.1,0-.2-.06-.24-.15l-.23.09h0s.01-.01.01-.01h.02s.17-.08.17-.08Z"/>
      <polygon class="cls-1" points="76.11 25.18 76.11 25.19 76.09 25.19 76.11 25.18"/>
      <polygon class="cls-1" points="76.09 25.19 76.11 25.19 76.09 25.2 76.09 25.19"/>
      <polygon class="cls-1" points="76.09 25.19 76.09 25.2 76.07 25.2 76.09 25.19"/>
      <polygon class="cls-1" points="76.09 25.2 76.04 25.22 76.07 25.2 76.09 25.2"/>
      <polygon class="cls-1" points="76.07 25.2 76.04 25.22 76.03 25.22 76.07 25.2"/>
      <path class="cls-1" d="M76.06,58.11l-18.45,18.45c-.11-.5-.35-.96-.71-1.32-.01-.01-.02-.02-.03-.02l17.84-17.84c.37.38.84.63,1.35.73Z"/>
      <path class="cls-1" d="M76.58,23.8c-.32,0-.62.13-.83.34l1.03-1.03-.73-.73c.17-.03.35-.05.53-.05,1.47,0,2.67,1.19,2.67,2.65,0,.93-.48,1.74-1.2,2.21v-1.01h-1.47c.67,0,1.2-.54,1.2-1.2s-.53-1.18-1.2-1.18Z"/>
      <path class="cls-1" d="M57.61,3.94l18.44,18.44c-.51.11-.97.36-1.34.73L56.87,5.28s.02-.01.03-.02c.36-.37.6-.83.71-1.32Z"/>
      <path class="cls-1" d="M76.15,26.06l-.56-.53-.08-.08h-.01s.05-.03.05-.03l.41-.17h.03s.05-.03.05-.03l.05-.02h.02s.23-.1.23-.1c.04.09.14.15.24.15v.8l-.25.1s-.09-.02-.13-.04h-.01l-.04-.05Z"/>
      <polygon class="cls-1" points="76.03 25.22 76.04 25.22 75.99 25.24 76.02 25.22 76.03 25.22"/>
      <polygon class="cls-1" points="75.97 25.24 76.02 25.22 75.99 25.24 75.97 25.24"/>
      <polygon class="cls-1" points="75.99 25.24 75.96 25.25 75.97 25.24 75.99 25.24"/>
      <path class="cls-1" d="M75.75,24.14l-1.04-1.03c.37-.37.83-.62,1.34-.73l.73.73-1.03,1.03Z"/>
      <polygon class="cls-1" points="75.96 25.24 75.97 25.24 75.96 25.25 75.96 25.24"/>
      <path class="cls-1" d="M75.96,25.25l-.41.17.41-.17Z"/>
      <path class="cls-1" d="M75.96,25.25l-.41.17h0l.78-.36s-.01-.05-.01-.08c0-.07.03-.13.08-.18l.18.18h.01s-.27.12-.27.12l-.17.07h-.02s-.01.01-.01.01h-.02s-.02.02-.02.02l-.04.02h-.01l-.05.02h0Z"/>
      <path class="cls-1" d="M75.4,55.51c0-.16.03-.31.1-.45l.83.34h0s-.02.08-.02.11c0,.08.04.14.09.18l-.56.57-.25-.11c-.12-.18-.19-.4-.19-.64Z"/>
      <path class="cls-1" d="M75.5,25.43v-.92c.03-.06.06-.12.09-.17l.24-.1.56.56c-.05.05-.08.11-.08.18,0,.03.01.05.01.08l-.78.36h-.04Z"/>
      <path class="cls-1" d="M75.68,25.88l.11.26-.11-.26Z"/>
      <path class="cls-1" d="M75.75,24.16v-.02c.21-.21.51-.34.83-.34.67,0,1.2.53,1.2,1.18s-.53,1.2-1.2,1.2v-.13l.37-.15-.27-.67s.07-.02.1-.04h.01s-.19-.19-.19-.19l.25-.11-.03-.06-.26.12-.35-.86-.38.15-.08-.08Z"/>
      <path class="cls-1" d="M75.75,24.14v.02c-.06.06-.11.12-.16.18l-.07.03.23-.23Z"/>
      <path class="cls-1" d="M75.59,56.15c.05.07.1.14.16.2h-.01l-.22-.22.07.02Z"/>
      <path class="cls-1" d="M75.75,56.35l1.03,1.04-.72.72c-.51-.1-.98-.35-1.35-.73l1.03-1.03h.01Z"/>
      <path class="cls-1" d="M75.66,25.83l.02.05-.02-.05Z"/>
      <path class="cls-1" d="M75.59,56.15l.25.11-.09.09c-.06-.06-.11-.13-.16-.2Z"/>
      <path class="cls-1" d="M75.83,24.24l-.24.1c.05-.06.1-.12.16-.18l.08.08Z"/>
      <path class="cls-1" d="M75.59,25.53l.56.53.04.05c-.29-.1-.52-.31-.65-.58v-.03s-.03-.05-.03-.05l.08.08Z"/>
      <path class="cls-1" d="M75.66,25.83l-.12-.3c.13.27.36.48.65.58h.01s.08.03.13.04l-.07.03h-.46v-.04s-.12-.26-.12-.26l-.02-.05Z"/>
      <polygon class="cls-1" points="75.54 25.42 75.55 25.42 75.5 25.44 75.54 25.42"/>
      <path class="cls-1" d="M75.54,25.53l.12.3-.16-.37s.02.03.03.04v.03Z"/>
      <polygon class="cls-1" points="75.5 25.43 75.54 25.42 75.5 25.44 75.5 25.43"/>
      <polygon class="cls-1" points="75.68 25.88 75.79 26.14 75.8 26.18 75.5 26.18 75.5 25.46 75.66 25.83 75.68 25.88"/>
      <polygon class="cls-1" points="75.5 25.44 75.51 25.45 75.5 25.45 75.5 25.44"/>
      <path class="cls-1" d="M75.5,25.45h.01l.02.05s-.02-.03-.03-.04h0Z"/>
      <polygon class="cls-1" points="75.5 26.43 75.12 26.18 75.5 26.18 75.5 26.43"/>
      <polygon class="cls-1" points="75.49 25.41 75.5 25.43 75.49 25.43 75.49 25.41"/>
      <polygon class="cls-1" points="75.49 25.41 75.5 24.91 75.5 25.43 75.49 25.41"/>
      <rect class="cls-1" x="75.49" y="25.43" width=".01" height=".01"/>
      <polygon class="cls-1" points="75.5 25.44 75.5 25.45 75.49 25.44 75.5 25.44"/>
      <polygon class="cls-1" points="75.5 25.45 75.28 25.54 75.49 25.44 75.5 25.45"/>
      <path class="cls-1" d="M75.4,24.98c0-.17.04-.33.1-.47v.9s-.07-.16-.07-.16c-.02-.09-.03-.18-.03-.27Z"/>
      <polygon class="cls-1" points="75.42 25.25 75.43 25.25 75.49 25.41 75.49 25.43 75.42 25.25"/>
      <path class="cls-1" d="M75.39,25.18l-.09-.22-.07-.17-.03-.1.32-.32.07-.03s-.06.11-.09.17c-.06.14-.1.3-.1.47,0,.09.01.18.03.27h-.01l-.03-.07Z"/>
      <path class="cls-1" d="M75.39,25.18l.03.07-.03-.07Z"/>
      <polygon class="cls-1" points="75.12 26.66 75.12 26.18 75.5 26.43 75.5 26.18 75.8 26.18 75.87 26.34 75.87 26.35 75.12 26.66"/>
      <polygon class="cls-1" points="75.52 24.37 75.2 24.69 75.13 24.53 75.52 24.37"/>
      <path class="cls-1" d="M75.3,24.96l.09.22-.09-.22Z"/>
      <polygon class="cls-1" points="75.12 26.18 74.59 25.83 75.27 25.54 75.28 25.54 75.5 25.45 75.5 25.46 75.5 26.18 75.12 26.18"/>
      <path class="cls-1" d="M75.23,24.79l.07.17-.07-.17Z"/>
      <polygon class="cls-1" points="75.2 24.69 75.23 24.79 75.19 24.7 75.2 24.69"/>
      <polygon class="cls-1" points="74.96 24.93 75.19 24.7 75.23 24.79 75.3 24.96 75.39 25.18 75.42 25.25 75.49 25.43 74.96 24.93"/>
      <path class="cls-1" d="M75.12,53.28v.57l-.45-.19c.13-.14.28-.27.45-.38Z"/>
      <path class="cls-1" d="M75.12,26.66v.55c-.16-.11-.3-.23-.43-.37l.43-.18Z"/>
      <path class="cls-1" d="M74.16,54.44c.12-.29.29-.56.51-.78l.45.19v.47h1.14l.07.03c-.38.08-.69.35-.83.71l-1.36-.56s.01-.04.02-.06Z"/>
      <polygon class="cls-1" points="74.71 25.18 74.96 24.93 75.49 25.43 75.49 25.44 75.28 25.54 75.27 25.54 74.59 25.83 74.71 25.18"/>
      <polygon class="cls-1" points="74.79 24.76 74.96 24.93 74.71 25.18 74.79 24.76"/>
      <polygon class="cls-1" points="74.71 55.31 75.52 56.13 75.12 55.96 74.37 55.65 74.71 55.31"/>
      <path class="cls-1" d="M74.71,57.38l-17.84,17.84c-.36-.38-.83-.63-1.33-.73l18.44-18.45c.11.51.36.97.73,1.34Z"/>
      <path class="cls-1" d="M74.28,23.68v-.13l.43-.44,1.04,1.03-.23.23-.39.16.07.16h-.01s-.07-.15-.07-.15l-.74.31-.39-.39c.05-.28.15-.54.29-.78Z"/>
      <path class="cls-1" d="M74.14,26.01c.13.32.32.6.55.83l-28.97,11.99c-.07-.32-.17-.63-.3-.94l28.72-11.88Z"/>
      <polygon class="cls-1" points="75.19 24.7 74.96 24.93 74.79 24.76 74.71 25.18 74.38 24.85 75.12 24.54 75.19 24.7"/>
      <path class="cls-1" d="M45.71,41.66l28.96,12c-.22.22-.39.49-.51.78-.01.02-.02.04-.02.06l-28.72-11.9c.13-.31.23-.62.29-.94Z"/>
      <path class="cls-1" d="M74.69,26.84c-.23-.23-.42-.51-.55-.83l.45-.18.53.35v.48l-.43.18Z"/>
      <path class="cls-1" d="M74.37,55.65l-.44-.18c.01-.33.08-.66.21-.97l1.36.56c-.07.14-.1.29-.1.45,0,.24.07.46.19.64l-.07-.02-.81-.82-.34.34Z"/>
      <path class="cls-1" d="M73.98,56.04l.39-.39.75.31.4.17.22.22-1.03,1.03c-.37-.37-.62-.83-.73-1.34Z"/>
      <path class="cls-1" d="M73.99,24.46L55.54,6.02c.51-.11.97-.36,1.33-.74l17.84,17.83-.43.44v.13c-.14.24-.24.5-.29.78Z"/>
      <path class="cls-1" d="M74.59,25.83l-.45.18h0c-.13-.32-.2-.64-.21-.98l.45-.18.33.33-.12.65Z"/>
      <path class="cls-1" d="M74.14,26.01l-28.72,11.88c-.12-.3-.27-.59-.44-.87l28.95-11.99c.01.34.08.66.21.97h0Z"/>
      <path class="cls-1" d="M45.42,42.6l28.72,11.9c-.13.31-.2.64-.21.97l-28.96-12c.18-.28.33-.57.45-.87Z"/>
      <path class="cls-1" d="M73.99,24.46l.39.39-.45.18v-.05c0-.18.02-.35.06-.52Z"/>
      <path class="cls-1" d="M74.37,55.65l-.39.39c-.03-.17-.05-.35-.05-.53v-.04l.44.18Z"/>
      <path class="cls-2" d="M73.99,24.46c-.04.17-.06.34-.06.52v.05l-28.95,11.99c-.5-.82-1.19-1.51-2.01-2l11.98-28.95h.06c.18,0,.36-.02.53-.05l18.45,18.44Z"/>
      <path class="cls-1" d="M73.93,55.51c0,.18.02.36.05.53l-18.44,18.45h-.01c-.18-.04-.38-.06-.57-.05l-12-28.95c.82-.5,1.52-1.2,2.01-2.02l28.96,12v.04Z"/>
      <path class="cls-1" d="M55.85,4.25l1.03-1.04.73.73c-.11.49-.35.95-.71,1.32-.01.01-.02.02-.03.02l-.78-.79h-.01l-.08-.09h-.01l-.13-.13v-.02Z"/>
      <path class="cls-1" d="M56.88,77.29l-1.04-1.04,1.03-1.03s.02.01.03.02c.36.36.6.82.71,1.32h0s-.73.73-.73.73Z"/>
      <path class="cls-1" d="M56.09,4.49l.78.79c-.36.38-.82.63-1.33.74l-.4-.4.31-.75-.16-.06.55-.56.02.02.13.13h.01l.08.09h.01Z"/>
      <path class="cls-1" d="M55.45,75.63l-.31-.74.39-.4h.01c.5.1.97.35,1.33.73l-1.03,1.03-.55-.55.16-.07Z"/>
      <polygon class="cls-1" points="55.85 4.25 55.86 4.27 55.84 4.25 55.85 4.25"/>
      <polygon class="cls-1" points="55.84 4.24 55.84 4.25 55.83 4.24 55.84 4.24"/>
      <path class="cls-1" d="M55.53,74.49l-.39.4-.18-.45c.19-.01.39.01.57.05Z"/>
      <polygon class="cls-1" points="55.45 4.87 55.14 5.62 54.81 5.29 55.29 4.81 55.45 4.87"/>
      <polygon class="cls-1" points="55.26 3.66 55.84 4.24 55.83 4.24 55.26 3.66"/>
      <path class="cls-1" d="M55.22,3.62l.03.03-.03-.03Z"/>
      <path class="cls-1" d="M54.55,4.5l.36-.86c.09.05.19.05.27-.02l.65.62h.01c-.2.23-.5.36-.83.36-.09,0-.17-.01-.25-.02-.05-.02-.1-.03-.15-.06l-.06-.02Z"/>
      <polygon class="cls-1" points="54.81 75.22 55.14 74.89 55.45 75.63 55.29 75.7 54.81 75.22"/>
      <path class="cls-1" d="M54.91,3.64l.1-.24.19.2.02.02.03.03h.01s.57.59.57.59l-.65-.62c-.08.07-.18.07-.27.02Z"/>
      <path class="cls-1" d="M54.95,6.07l.19-.45.4.4c-.17.03-.35.05-.53.05h-.06Z"/>
      <path class="cls-1" d="M54.56,76h.01c.14-.06.27-.09.44-.09.33,0,.63.13.83.34l-.64.65c-.07-.07-.17-.1-.26-.07l-.34-.75-.04-.07h0Z"/>
      <path class="cls-1" d="M54.8,77.29s-.08-.13-.08-.2h.29l.19-.19c.05.05.08.12.08.19,0,.09-.04.18-.11.23v.02s-.04.01-.06.02c0,0-.01,0-.02.01h0c-.09,0-.21,0-.29-.08Z"/>
      <path class="cls-1" d="M54.95,6.07l-11.98,28.95c-.27-.17-.56-.32-.86-.44-.01,0-.01-.01-.02-.01l11.9-28.72c.3.14.62.21.96.22Z"/>
      <path class="cls-1" d="M54.91,3.64c-.11-.03-.19-.13-.19-.24h.29l-.1.24Z"/>
      <path class="cls-1" d="M54.01,74.64h-.02s-11.9-28.7-11.9-28.7c.3-.12.59-.27.87-.45l12,28.95c-.32.01-.65.07-.95.2Z"/>
      <path class="cls-1" d="M55.01,78.28c-.67,0-1.2-.53-1.2-1.19h.91c0,.07.03.15.08.2.08.08.2.09.29.07h.02s.04-.02.06-.02v-.02c.07-.05.11-.14.11-.23,0-.07-.03-.14-.08-.19l.64-.65c.22.22.35.51.35.84,0,.66-.52,1.19-1.18,1.19Z"/>
      <path class="cls-1" d="M54.81,3.21c.07-.06.15-.08.2-.08.04,0,.09.01.09.01.12.05.18.17.18.26,0,.08-.03.15-.08.2l-.19-.2h-.29c0-.07.03-.15.08-.2h.01Z"/>
      <path class="cls-1" d="M55.29,4.81l-.53-.23c.08.01.16.02.25.02.33,0,.63-.13.83-.35l-.55.56Z"/>
      <path class="cls-1" d="M54.61,4.52s.1.04.15.06l-.15-.06Z"/>
      <path class="cls-1" d="M55.01,75.91c-.17,0-.3.03-.44.09l.72-.3.55.55c-.2-.21-.5-.34-.83-.34Z"/>
      <path class="cls-1" d="M53.81,3.36c.02-.64.54-1.14,1.2-1.14s1.18.52,1.18,1.18c0,.33-.13.62-.35.84l-.58-.58h-.01s-.03-.04-.03-.04l-.02-.02c.05-.05.08-.12.08-.2,0-.09-.06-.21-.18-.26,0,0-.05-.01-.09-.01-.05,0-.13.02-.2.08h-.01s-.08.12-.08.19h-.91v-.04Z"/>
      <path class="cls-1" d="M54.6,76.08l.34.75c.09-.03.19,0,.26.07l-.19.19-.41-1.01Z"/>
      <path class="cls-1" d="M53.99,5.85l.56-1.35.06.02.15.06.53.23-.48.48.33.33-.19.45c-.34-.01-.66-.08-.96-.22Z"/>
      <path class="cls-1" d="M54.89,76.84l-.33-.81v-.02l.04.07.41,1.01h-.29c0-.1.07-.2.17-.25Z"/>
      <polygon class="cls-1" points="54.56 76 54.56 76.01 54.55 76 54.56 76"/>
      <polygon class="cls-1" points="54.55 75.99 54.56 76 54.55 76 54.55 75.99"/>
      <path class="cls-1" d="M53.81,77.02c.03-.44.29-.81.68-.99l.06-.03h.01v.03l.33.81c-.1.05-.17.15-.17.25h-.91v-.07Z"/>
      <polygon class="cls-1" points="54.56 75.02 54.56 76 54.55 75.99 54.55 75.02 54.56 75.02"/>
      <path class="cls-1" d="M54.55,4.5c-.44-.17-.74-.6-.74-1.1h.91c0,.11.08.21.19.24l-.36.86Z"/>
      <path class="cls-1" d="M54.52,75.93h.01s-.01,0-.01,0Z"/>
      <path class="cls-1" d="M53.15,5.33l.19-.46h.47v-.67l.74.3-.56,1.35s-.04-.01-.06-.02c-.29-.11-.56-.29-.78-.5Z"/>
      <path class="cls-1" d="M53.16,75.19c.23-.24.51-.42.83-.54l.49,1.18.04.1h.01s.02.06.02.06h0s-.06.04-.06.04l-.68.28v-.69h-.47l-.18-.43Z"/>
      <path class="cls-1" d="M54.48,75.83l-.49-1.18h.01s.01-.01.01-.01c.3-.13.63-.19.95-.2l.18.45-.33.33.48.48-.72.3h-.01v-.98h-.01v.97l-.02-.05h-.01s-.04-.11-.04-.11Z"/>
      <path class="cls-1" d="M53.99,5.85l-11.9,28.72c-.3-.13-.61-.23-.93-.3l11.99-28.94c.22.21.49.39.78.5.02.01.04.02.06.02Z"/>
      <path class="cls-1" d="M42.09,45.94l11.9,28.71c-.32.12-.6.3-.83.54l-12-28.95c.32-.07.63-.17.93-.3Z"/>
      <path class="cls-1" d="M55.01,79.75c-.93,0-1.75-.47-2.22-1.19h1.02v-1.47c0,.66.53,1.19,1.2,1.19s1.18-.53,1.18-1.19c0-.33-.13-.62-.35-.84l1.04,1.04.73-.72c.03.17.05.34.05.52,0,1.47-1.19,2.66-2.65,2.66Z"/>
      <path class="cls-1" d="M53.81,3.4c0,.5.3.93.74,1.1l-.74-.3v-.8Z"/>
      <path class="cls-1" d="M53.81,1.94h-1.02c.47-.72,1.29-1.19,2.22-1.19,1.46,0,2.65,1.19,2.65,2.65,0,.18-.02.36-.05.54l-.73-.73-1.03,1.04h-.01c.22-.23.35-.52.35-.85,0-.66-.52-1.18-1.18-1.18s-1.18.5-1.2,1.14v-1.42Z"/>
      <path class="cls-1" d="M54.49,76.03c-.39.18-.65.55-.68.99v-.71l.68-.28Z"/>
      <polygon class="cls-1" points="53.65 76.38 53.34 75.62 53.81 75.62 53.81 76.31 53.65 76.38"/>
      <polygon class="cls-1" points="53.34 4.87 53.65 4.13 53.81 4.2 53.81 4.87 53.34 4.87"/>
      <path class="cls-1" d="M53.65,4.13l-.31.74h-.57c-.27-.43-.43-.93-.43-1.47s.16-1.04.45-1.46h1.02v2.26l-.16-.07Z"/>
      <path class="cls-1" d="M53.34,75.62l.31.76.16-.07v2.25h-1.02c-.29-.42-.45-.93-.45-1.47s.16-1.04.44-1.47h.56Z"/>
      <path class="cls-1" d="M53.34,75.62h-.56c.11-.16.24-.31.38-.43l.18.43Z"/>
      <path class="cls-1" d="M53.34,4.87l-.19.46c-.14-.14-.27-.3-.38-.46h.57Z"/>
      <path class="cls-1" d="M52.79,1.94c-.29.42-.45.92-.45,1.46s.16,1.04.43,1.47h-25.5c.24-.44.37-.95.37-1.47s-.13-1.02-.37-1.46h25.52Z"/>
      <path class="cls-1" d="M52.79,78.56h-26.1c.29-.42.45-.93.45-1.47s-.16-1.04-.44-1.47h26.08c-.28.43-.44.93-.44,1.47s.16,1.05.45,1.47Z"/>
      <path class="cls-1" d="M44.34,41.09c.05-.27.08-.55.08-.84s-.03-.58-.08-.85l1.38-.57c.11.46.17.94.17,1.42s-.06.95-.18,1.41l-1.37-.57Z"/>
      <path class="cls-1" d="M43.6,42.9c.18-.27.34-.56.46-.86l1.36.56c-.12.3-.27.59-.45.87l-1.37-.57Z"/>
      <path class="cls-1" d="M44.06,38.45c-.12-.3-.28-.59-.47-.86l1.39-.57c.17.28.32.57.44.87l-1.36.56Z"/>
      <path class="cls-1" d="M45.72,38.83l-1.38.57c-.06-.33-.16-.65-.28-.95l1.36-.56c.13.31.23.62.3.94Z"/>
      <path class="cls-1" d="M44.06,42.04c.13-.3.22-.62.28-.95l1.37.57c-.06.32-.16.63-.29.94l-1.36-.56Z"/>
      <path class="cls-1" d="M44.42,40.25c0,.29-.03.57-.08.84l-1.4-.58c.02-.08.02-.17.02-.26s0-.18-.02-.27l1.4-.58c.05.27.08.56.08.85Z"/>
      <path class="cls-1" d="M42.96,45.49l-.57-1.38c.48-.32.89-.74,1.21-1.21l1.37.57c-.49.82-1.19,1.52-2.01,2.02Z"/>
      <path class="cls-1" d="M44.06,38.45c.12.3.22.62.28.95l-1.4.58c-.02-.33-.1-.65-.23-.96h-.01s1.36-.57,1.36-.57Z"/>
      <path class="cls-1" d="M42.7,39.01c-.12-.31-.29-.59-.5-.84l1.39-.58c.19.27.35.56.47.86l-1.36.56Z"/>
      <path class="cls-1" d="M42.97,35.02c.82.49,1.51,1.18,2.01,2l-1.39.57c-.31-.47-.72-.87-1.19-1.2l.04-.09.53-1.28Z"/>
      <path class="cls-1" d="M41.82,37.79l.58-1.4c.47.33.88.73,1.19,1.2l-1.39.58c-.12-.14-.25-.26-.38-.38Z"/>
      <path class="cls-1" d="M43.6,42.9c-.32.47-.73.89-1.21,1.21l-.35-.85.7-.71.86.35Z"/>
      <path class="cls-1" d="M42.94,40.51l1.4.58c-.06.33-.15.65-.28.95l-1.36-.56c.14-.32.22-.64.24-.97Z"/>
      <path class="cls-1" d="M42.94,39.98c.02.09.02.18.02.27s0,.18-.02.26l-.65-.26.65-.27Z"/>
      <path class="cls-1" d="M41.53,35.92l.56-1.35s.01.01.02.01c.3.12.59.27.86.44l-.53,1.28-.86-.36-.05-.02Z"/>
      <path class="cls-1" d="M41.53,44.58c.3-.13.59-.28.86-.47l.57,1.38c-.28.18-.57.33-.87.45l-.56-1.36Z"/>
      <path class="cls-1" d="M42.44,36.3l-.04.09c-.25-.17-.53-.33-.82-.45l.86.36Z"/>
      <polygon class="cls-1" points="42.28 40.24 42.29 40.25 42.26 40.26 42.28 40.24"/>
      <path class="cls-1" d="M42.2,38.17l-.65.27.27-.65c.13.12.26.24.38.38Z"/>
      <path class="cls-1" d="M40.97,43.22c.8-.33,1.42-.96,1.73-1.73h0s1.36.55,1.36.55c-.12.3-.28.59-.46.86l-.86-.35-.7.71.35.85c-.27.19-.56.34-.86.47l-.56-1.36Z"/>
      <path class="cls-1" d="M41.82,37.79l-.27.65-1.28.53.7-1.69h.01c.31.13.59.3.84.51Z"/>
      <path class="cls-1" d="M42.7,41.49c-.31.77-.93,1.4-1.73,1.73l-.08-.19,1.62-1.63.19.08h0Z"/>
      <path class="cls-1" d="M42.7,39.02l-1.68.69.53-1.27.65-.27c.21.25.38.53.5.84h0Z"/>
      <path class="cls-1" d="M41.44,35.89l-.81-.34.53-1.28c.32.07.63.17.93.3l-.56,1.35-.09-.03Z"/>
      <path class="cls-1" d="M41.58,35.94c.29.12.57.28.82.45l-.58,1.4c-.25-.21-.53-.38-.84-.51h-.01l.56-1.36.05.02Z"/>
      <polygon class="cls-1" points="41.55 38.44 41.02 39.71 41.02 39.72 39.75 40.25 39.74 40.25 40.27 38.97 41.55 38.44"/>
      <path class="cls-1" d="M41.16,46.24l-.57-1.38c.33-.05.64-.15.94-.28l.56,1.36c-.3.13-.61.23-.93.3Z"/>
      <path class="cls-1" d="M40.01,37.05l.58-1.41c.29.05.58.13.85.25l.09.03-.56,1.36c-.31-.14-.63-.21-.96-.23Z"/>
      <path class="cls-1" d="M40.95,43.23s.01-.01.02-.01l.56,1.36c-.3.13-.61.23-.94.28l-.58-1.41c.33-.02.65-.09.94-.22Z"/>
      <path class="cls-1" d="M40.01,43.45l-.27-.65,2.52-2.54h.03s.65.25.65.25c-.02.33-.1.65-.24.97l-.19-.08-1.62,1.63.08.19s0,.01-.02.01c-.29.13-.61.2-.94.22Z"/>
      <path class="cls-1" d="M40.63,35.55l.81.34c-.27-.12-.56-.2-.85-.25l.04-.09Z"/>
      <polygon class="cls-1" points="41.02 39.72 40.64 40.62 39.75 40.25 41.02 39.72"/>
      <polygon class="cls-1" points="40.27 38.97 39.74 40.25 39.37 39.34 40.27 38.97"/>
      <path class="cls-1" d="M39.75,44.94c-.3,0-.58-.03-.86-.08l.58-1.41c.19.02.37.02.54,0l.58,1.41c-.27.06-.55.08-.84.08Z"/>
      <path class="cls-1" d="M39.74,40.25h.01l.89.37.38-.9h0s1.68-.7,1.68-.7h.01c.13.31.21.63.23.96l-.65.27h-.01s-.02.01-.02.01l-2.15.89-.37-.9Z"/>
      <path class="cls-1" d="M39.37,39.34l.37.91-.9-.38,1.17-2.82c.33.02.65.09.96.23l-.7,1.69-.9.37Z"/>
      <path class="cls-1" d="M39.75,37.03c-.42,0-.83.08-1.23.25v-.03s.89-.37.89-.37l-.51-1.24c.28-.05.56-.08.85-.08s.57.02.84.08l-.58,1.41c-.09-.02-.17-.02-.26-.02Z"/>
      <path class="cls-1" d="M39.75,46.41c-.48,0-.96-.06-1.43-.18l.57-1.37c.28.05.56.08.86.08s.57-.02.84-.08l.57,1.38c-.45.12-.93.17-1.41.17Z"/>
      <path class="cls-1" d="M38.33,34.27c.94-.22,1.92-.22,2.83,0l-.53,1.28-.04.09c-.27-.06-.55-.08-.84-.08s-.57.03-.85.08l-.57-1.37Z"/>
      <path class="cls-1" d="M37.33,38.19l-.05-.02c.33-.39.75-.7,1.24-.89.4-.17.81-.25,1.23-.25.09,0,.17,0,.26.02l-1.17,2.82.9.38.37.9,2.15-.89-2.52,2.54.27.65c-.17.02-.35.02-.54,0l.02-.05-1.81-.75-.02.05c-.14-.11-.26-.24-.37-.38l.05-.02-.74-1.81-.06.03c-.02-.09-.02-.18-.02-.27s0-.18.02-.27l.04.02.75-1.81Z"/>
      <path class="cls-1" d="M37.08,44.1l.58-1.4c.25.22.54.4.85.53.31.12.64.2.96.22l-.58,1.41c-.33-.06-.64-.16-.94-.28-.31-.13-.6-.29-.87-.48Z"/>
      <path class="cls-1" d="M37.6,37.62l-.51-1.23c.27-.19.56-.34.87-.47.3-.13.62-.22.94-.28l.51,1.24-.9.37-.91.37Z"/>
      <path class="cls-1" d="M26.54,5.8l11.79,28.47c-.31.07-.62.17-.92.29-.31.13-.61.28-.89.46L24.73,6.56c.35-.03.69-.11.99-.24s.58-.31.82-.52Z"/>
      <path class="cls-1" d="M38.9,35.64c-.32.06-.64.15-.94.28-.31.13-.6.28-.87.47l-.04-.1-.53-1.27c.28-.18.58-.33.89-.46.3-.12.61-.22.92-.29l.57,1.37Z"/>
      <path class="cls-1" d="M38.89,44.86l-.57,1.37c-.32-.06-.63-.17-.93-.29-.31-.13-.6-.28-.88-.46l.57-1.38c.27.19.56.35.87.48.3.12.61.22.94.28Z"/>
      <path class="cls-1" d="M37.68,42.65l1.81.75-.02.05c-.32-.02-.65-.1-.96-.22-.31-.13-.6-.31-.85-.53l.02-.05Z"/>
      <path class="cls-1" d="M37.09,36.39l.51,1.23.91-.37v.03c-.48.19-.9.5-1.23.89l-1.39-.58c.31-.47.73-.88,1.2-1.2Z"/>
      <path class="cls-1" d="M37.66,42.7l-.58,1.4c-.47-.32-.88-.73-1.19-1.2l1.4-.58c.11.14.23.27.37.38Z"/>
      <path class="cls-1" d="M36.6,40.49l.74,1.81-.05.02c-.22-.25-.39-.53-.52-.84s-.21-.64-.23-.96l.06-.03Z"/>
      <path class="cls-1" d="M34.51,37.02c.5-.81,1.19-1.5,2.01-2l.53,1.27.04.1c-.47.32-.89.73-1.2,1.2l-1.38-.57Z"/>
      <path class="cls-1" d="M36.51,45.48c-.82-.5-1.51-1.2-2-2.01l1.28-.53.1-.04c.31.47.72.88,1.19,1.2l-.57,1.38Z"/>
      <path class="cls-1" d="M37.33,38.19l-.75,1.81-.04-.02c.02-.33.1-.65.23-.97.13-.31.3-.59.51-.84l.05.02Z"/>
      <path class="cls-1" d="M36.77,41.48c.13.31.3.59.52.84l-1.4.58c-.19-.27-.35-.56-.47-.86s-.22-.62-.28-.94l1.4-.58c.02.32.1.65.23.96Z"/>
      <path class="cls-1" d="M36.77,39.01c-.13.32-.21.64-.23.97l-1.4-.58c.06-.33.16-.65.28-.95s.28-.59.47-.86l1.39.58c-.21.25-.38.53-.51.84Z"/>
      <path class="cls-1" d="M36.52,40.25c0,.09,0,.18.02.27l-1.4.58c-.05-.28-.08-.56-.08-.85s.03-.58.08-.85l1.4.58c-.02.09-.02.18-.02.27Z"/>
      <path class="cls-1" d="M34.06,37.89c.12-.3.27-.6.45-.87l1.38.57c-.19.27-.35.56-.47.86s-.22.62-.28.95l-1.38-.57c.07-.32.17-.63.3-.94Z"/>
      <path class="cls-1" d="M34.06,42.6c-.13-.31-.23-.62-.29-.94l1.37-.56c.06.32.16.64.28.94s.28.59.47.86l-.1.04-1.28.53c-.18-.28-.33-.57-.45-.87Z"/>
      <path class="cls-1" d="M33.59,40.25c0-.48.06-.96.17-1.42l1.38.57c-.05.27-.08.56-.08.85s.03.57.08.85l-1.37.56c-.12-.46-.18-.93-.18-1.41Z"/>
      <path class="cls-1" d="M5.59,25.05l28.92,11.97c-.18.27-.33.57-.45.87-.13.31-.23.62-.3.94L4.83,26.85c.22-.22.4-.49.53-.78.14-.31.22-.66.23-1.02Z"/>
      <path class="cls-1" d="M34.51,43.47l-28.95,12c-.01-.36-.08-.7-.2-.96-.13-.32-.32-.61-.56-.85l28.97-12c.06.32.16.63.29.94.12.3.27.59.45.87Z"/>
      <path class="cls-1" d="M27.27,1.94c.24.44.37.93.37,1.46s-.13,1.03-.37,1.47h-1.1V1.94h1.1Z"/>
      <path class="cls-1" d="M26.7,75.62h-.54l.18-.42c.13.13.25.27.36.42Z"/>
      <path class="cls-1" d="M25.59,74.69s-.06-.03-.09-.04c-.3-.14-.63-.21-.97-.21l11.98-28.96c.28.18.57.33.88.46.3.12.61.23.93.29l-11.98,28.97c-.21-.21-.47-.38-.75-.5h0Z"/>
      <path class="cls-1" d="M26.34,75.2l-.18.42h-.49l-.31-.47.23-.45c.28.12.54.29.75.5Z"/>
      <path class="cls-1" d="M27.27,4.87c-.18.36-.43.67-.73.93l-.5-1.21-.13-.3c.16-.24.25-.54.26-.85v1.43h1.1Z"/>
      <path class="cls-1" d="M26.17,3.44c-.01.31-.1.61-.26.85l-.37-.89h.63v.04Z"/>
      <polygon class="cls-1" points="25.67 76 25.67 75.62 25.92 76 25.67 76"/>
      <polygon class="cls-1" points="25.92 76 25.67 75.62 26.16 75.62 25.85 76.38 25.84 76.38 25.83 76.37 25.67 76.3 25.67 76 25.92 76"/>
      <path class="cls-1" d="M26.69,78.56h-1.02v-1.46h0v-.32l.17-.4h.01l.31-.76h.54c.28.43.44.93.44,1.47s-.16,1.05-.45,1.47Z"/>
      <polygon class="cls-1" points="25.84 76.38 25.67 76.78 25.67 76.31 25.83 76.37 25.84 76.38"/>
      <polygon class="cls-1" points="25.67 76.3 25.83 76.37 25.67 76.31 25.67 76.3"/>
      <path class="cls-1" d="M25.67,76.78v.31c0-.09-.01-.17-.03-.25l.03-.06Z"/>
      <path class="cls-1" d="M25.6,76.7c-.11-.31-.34-.56-.64-.69l.71.29h0v.48l-.03.06c-.01-.05-.02-.09-.03-.13h-.01Z"/>
      <polygon class="cls-1" points="25.67 76 25.67 76.3 24.96 76.01 24.95 76 25.67 76"/>
      <polygon class="cls-1" points="24.97 75.93 24.99 75.89 25.36 75.15 25.67 75.62 25.67 76 24.95 76 24.97 75.93"/>
      <path class="cls-1" d="M25.64,76.84c.02.08.03.16.03.25h-.13l.1-.25Z"/>
      <path class="cls-1" d="M25.59,74.69h0s-.23.46-.23.46l-.03-.05h-.01l.18-.45s.06.03.09.04Z"/>
      <path class="cls-1" d="M24.68,3.32l.71-.29.15.37h-.84s-.01-.06-.02-.08Z"/>
      <path class="cls-1" d="M24.74,77.19s.02-.07.02-.1h.78l-.15.37-.65-.26h0Z"/>
      <polygon class="cls-1" points="25.33 75.1 25.36 75.15 24.99 75.89 25.31 75.1 25.32 75.1 25.33 75.1"/>
      <path class="cls-1" d="M24.68,75.22l-.33-.33.18-.45c.34,0,.67.07.97.21l-.18.45h-.01l-.63.12Z"/>
      <path class="cls-1" d="M25.3,76.38h.01s-.01,0-.01,0Z"/>
      <path class="cls-1" d="M25.22,76.3l.08.08-.08-.08Z"/>
      <path class="cls-1" d="M24.7,3.4h.84l.37.89c-.17.3-.44.54-.77.68l-.57-1.38c.07-.02.13-.08.13-.19Z"/>
      <path class="cls-1" d="M24.96,76.01c.3.13.53.38.64.69l-.29-.31h-.01s-.08-.09-.08-.09l-.1-.11-.16-.18Z"/>
      <path class="cls-1" d="M24.49,5.1c.23,0,.45-.05.65-.13.33-.14.6-.38.77-.68l.13.3.5,1.21c-.24.21-.52.39-.82.52s-.64.21-.99.24l-.62-1.5c.12.03.25.04.38.04Z"/>
      <path class="cls-1" d="M24.66,76.68l.2-.48.08-.19.18.18.1.11.08.08h.01s.29.32.29.32h.01s.02.09.03.14l-.1.25h-.78c0-.11-.07-.2-.16-.25l.05-.13v-.03Z"/>
      <polygon class="cls-1" points="24.96 76.01 25.12 76.19 24.94 76.01 24.96 76.01"/>
      <polygon class="cls-1" points="24.97 75.93 24.95 76 24.94 76 24.97 75.93"/>
      <polygon class="cls-1" points="24.96 76.01 24.94 76.01 24.94 76 24.95 76 24.96 76.01"/>
      <polygon class="cls-1" points="24.93 76 24.42 75.48 24.68 75.22 25.31 75.1 24.99 75.89 24.97 75.93 24.94 76 24.93 76"/>
      <rect class="cls-1" x="24.93" y="76" width=".01" height=".01"/>
      <polygon class="cls-1" points="24.85 75.97 24.2 75.7 24.42 75.48 24.93 76 24.85 75.97"/>
      <polygon class="cls-1" points="24.93 76.01 24.94 76.01 24.86 76.2 24.8 76.33 24.9 76.08 24.93 76.01"/>
      <path class="cls-1" d="M24.49,75.91c.13,0,.25.02.36.06l.08.03h-.9c.14-.06.29-.09.46-.09Z"/>
      <polygon class="cls-1" points="24.86 76.2 24.66 76.68 24.72 76.51 24.8 76.33 24.86 76.2"/>
      <path class="cls-1" d="M24.74,77.19l-.24-.1h.26s-.01.07-.02.1Z"/>
      <polygon class="cls-1" points="24.65 76.68 24.72 76.51 24.66 76.68 24.65 76.68"/>
      <path class="cls-1" d="M24.68,3.32s.02.05.02.08h-.2l.18-.08Z"/>
      <path class="cls-1" d="M24.5,3.4h.2c0,.11-.06.17-.13.19l-.08-.18h.01Z"/>
      <polygon class="cls-1" points="24.68 75.22 24.42 75.48 24.25 75.3 24.68 75.22"/>
      <polygon class="cls-1" points="24.65 76.68 24.66 76.68 24.65 76.71 24.65 76.68"/>
      <polygon class="cls-1" points="24.65 76.68 24.65 76.71 24.64 76.71 24.65 76.68"/>
      <path class="cls-1" d="M24.6,76.84c.09.05.16.14.16.25h-.27l.08-.21.07-.17h.01l-.05.13Z"/>
      <path class="cls-1" d="M24.57,76.88l.07-.17-.07.17Z"/>
      <path class="cls-1" d="M24.49,3.41l.08.18s-.05.03-.08.04c-.06,0-.11-.02-.16-.07l.16-.15Z"/>
      <polygon class="cls-1" points="24.42 77.02 24.9 76.08 24.8 76.33 24.72 76.51 24.65 76.68 24.64 76.71 24.57 76.88 24.49 77.09 24.42 77.03 24.42 77.02"/>
      <path class="cls-1" d="M24.53,74.44l-.18.45-.39-.39c.19-.04.38-.06.57-.06Z"/>
      <path class="cls-1" d="M24.26,3.4c0-.12.1-.21.23-.21.09,0,.16.05.19.13l-.18.08h-.01s-.2.09-.2.09c-.02-.02-.03-.05-.03-.09Z"/>
      <path class="cls-1" d="M24.11,5.06l-.37-.91.59-.59c.05.05.1.07.16.07.03,0,.05-.02.08-.04l.57,1.38c-.2.08-.42.13-.65.13-.13,0-.26-.01-.38-.04Z"/>
      <path class="cls-1" d="M24.49,3.41l-.16.15s-.03-.03-.04-.07l.2-.08Z"/>
      <path class="cls-1" d="M23.83,76.11c.06-.04.13-.08.2-.11h.9s-.03.08-.03.08l-.48.94-.15-.14h-.01s-.03-.04-.03-.04l-.12-.12-.3-.3h-.01s-.06-.08-.06-.08l.09-.23Z"/>
      <path class="cls-1" d="M24.33,3.56l-.59.59-.16-.37.71-.29s.03.06.04.07Z"/>
      <path class="cls-1" d="M24.49,77.09l-.27-.11s.04-.06.06-.08v-.02s.14.14.14.14h0s.07.07.07.07Z"/>
      <path class="cls-1" d="M24.26,76.87h.01s-.01,0-.01,0Z"/>
      <path class="cls-1" d="M24.22,76.98l.27.11h.01l.24.1h0s-.04.08-.07.1l-.18-.18-.11.25c-.13-.05-.18-.18-.18-.27,0-.04.01-.08.02-.11Z"/>
      <path class="cls-1" d="M24.23,76.84l.03.03-.03-.03Z"/>
      <polygon class="cls-1" points="24.04 75.63 24.35 74.89 24.68 75.22 24.25 75.3 24.42 75.48 24.2 75.7 24.04 75.63"/>
      <path class="cls-1" d="M24.11,76.72l.12.12-.12-.12Z"/>
      <path class="cls-1" d="M23.29,4.6l.45-.45.37.91c-.32-.07-.6-.24-.82-.46Z"/>
      <polygon class="cls-1" points="24.2 75.7 23.87 76.03 24.03 75.63 24.04 75.63 24.2 75.7"/>
      <path class="cls-1" d="M23.87,76.03l.33-.33.65.27c-.11-.04-.23-.06-.36-.06-.17,0-.32.03-.46.09-.07.03-.14.07-.2.11l.03-.08h.01Z"/>
      <path class="cls-1" d="M23.65,76.25l.21-.22-.03.08c-.07.04-.13.09-.18.14Z"/>
      <path class="cls-1" d="M23.81,76.42l.3.3-.3-.3Z"/>
      <path class="cls-1" d="M23.8,76.41h.01s-.01,0-.01,0Z"/>
      <polygon class="cls-1" points="23.74 76.34 23.8 76.41 23.73 76.35 23.74 76.34"/>
      <path class="cls-1" d="M24.22,76.98l-.64-.26.15-.37.07.06h.01s.3.31.3.31l.12.12.03.03h.01s.01.03.01.03c-.02.02-.04.05-.06.08Z"/>
      <path class="cls-1" d="M23.83,76.11l-.09.23-.09-.09c.05-.05.11-.1.18-.14Z"/>
      <path class="cls-1" d="M22.79,3.4c0-.93.76-1.68,1.7-1.68s1.68.75,1.68,1.68h-.63l-.15-.37-.71.29c-.03-.08-.1-.13-.19-.13-.13,0-.23.09-.23.21,0,.04.01.07.03.09l-.71.29.16.37-.45.45c-.3-.31-.5-.73-.5-1.2Z"/>
      <polygon class="cls-1" points="23.65 76.25 23.74 76.34 23.73 76.35 23.64 76.26 23.64 76.25 23.65 76.25"/>
      <path class="cls-1" d="M23.29,77.09c0-.32.12-.6.33-.81l.02-.02.09.09-.15.37.64.26s-.02.07-.02.11c0,.09.05.22.18.27l.11-.25.18.18s.05-.06.07-.09l.65.26.15-.37h.13c-.01.67-.53,1.19-1.18,1.19s-1.2-.53-1.2-1.19Z"/>
      <path class="cls-1" d="M24.33,5.64l-1.04-1.04c.22.22.5.39.82.46l.62,1.5c-.08.01-.16.01-.24.01-.33,0-.65-.05-.95-.14l.79-.79Z"/>
      <path class="cls-1" d="M23.54,6.43L5.53,24.43c-.11-.51-.37-.99-.75-1.35-.36-.36-.83-.61-1.34-.7L21.47,4.34c.14.48.4.92.76,1.28.37.38.81.65,1.31.81Z"/>
      <path class="cls-1" d="M23.49,76.1l.15.15-.15-.15Z"/>
      <path class="cls-1" d="M23.43,76.04l.06.06-.06-.06Z"/>
      <path class="cls-1" d="M23.34,75.95l.09.09-.09-.09Z"/>
      <path class="cls-1" d="M23.26,75.87l.07.07-.07-.07Z"/>
      <path class="cls-1" d="M23.12,75.73l.14.14-.14-.14Z"/>
      <path class="cls-1" d="M22.78,75.39l.34.34-.34-.34Z"/>
      <path class="cls-1" d="M23.49,76.1l-.06-.06-.09-.09h-.01s-.07-.08-.07-.08l-.14-.14-.34-.34-.17-.17h0c.37-.38.85-.62,1.35-.72l.39.39-.31.74h-.01l-.16.4h-.01l-.21.22h-.01l-.15-.15Z"/>
      <path class="cls-1" d="M22.61,75.22l.17.17-.17-.17Z"/>
      <path class="cls-1" d="M22.6,77.29l-.73-.73c.11-.51.36-.97.73-1.35h.01s.17.18.17.18l.34.34.14.14.07.07h.01s.09.1.09.1l.06.06.15.15h0s-.02.03-.02.03l-1.02,1.01Z"/>
      <path class="cls-1" d="M22.25,3.56l1.04,1.04,1.04,1.04-.79.79c-.5-.16-.94-.43-1.31-.81-.36-.36-.62-.8-.76-1.28l.78-.78Z"/>
      <path class="cls-1" d="M21.87,76.56l.73.73,1.02-1.01c-.21.21-.33.49-.33.81,0,.66.53,1.19,1.2,1.19s1.17-.52,1.18-1.18v1.46h1.02c-.47.72-1.28,1.19-2.2,1.19-1.47,0-2.67-1.19-2.67-2.66,0-.18.02-.36.05-.53Z"/>
      <path class="cls-1" d="M23.29,4.6l-1.04-1.04-.78.78c-.1-.3-.15-.62-.15-.94,0-1.73,1.42-3.15,3.17-3.15,1.2,0,2.26.69,2.78,1.69h-1.1v1.46c0-.93-.75-1.68-1.68-1.68s-1.7.75-1.7,1.68c0,.47.2.89.5,1.2Z"/>
      <path class="cls-1" d="M5.59,24.98v.07l-.48-.2.42-.42c.04.18.06.36.06.55Z"/>
      <path class="cls-1" d="M5.56,55.51c0,.18-.02.36-.05.53l-.39-.39.44-.18v.04Z"/>
      <polygon class="cls-1" points="4.3 55.79 4.78 55.31 5.12 55.65 4.37 55.96 4.3 55.79"/>
      <path class="cls-1" d="M4.36,26.65l.47.2c-.14.14-.3.27-.47.38v-.58Z"/>
      <path class="cls-1" d="M4.8,53.66l-.44.18v-.55c.16.1.31.23.44.37Z"/>
      <polygon class="cls-1" points="4.4 24.56 5.11 24.85 4.79 25.17 4.34 24.72 4.4 24.56"/>
      <path class="cls-1" d="M4.34,24.72l-.43-.42-.15-.16h0s-.01-.01-.01-.01l-.05-.05-.98-.98.72-.72c.51.09.98.34,1.34.7.38.36.64.84.75,1.35l-.42.42-.71-.29-.06.16Z"/>
      <path class="cls-1" d="M4.78,57.39l-1.03-1.04.55-.56.07.17.75-.31.39.39c-.11.51-.36.98-.73,1.35Z"/>
      <polygon class="cls-1" points="3.69 54.32 3.62 54.15 4.36 53.84 4.36 54.32 3.69 54.32"/>
      <polygon class="cls-1" points="4.36 26.65 3.65 26.36 3.73 26.18 4.36 26.18 4.36 26.65"/>
      <path class="cls-1" d="M3.99,55.06l-.3-.74h.67v-.48l.44-.18c.24.24.43.53.56.85.12.26.19.6.2.96l-.44.18-.34-.34-.48.48-.31-.73Z"/>
      <path class="cls-1" d="M4.03,25.46v-.04s.31-.7.31-.7l.45.45.32-.32.48.2c-.01.36-.09.71-.23,1.02-.13.29-.31.56-.53.78l-.47-.2v-.47h-.63l.28-.68.02-.04Z"/>
      <path class="cls-1" d="M4.12,24.98c0-.25-.08-.49-.21-.68l.43.42-.3.7c.05-.13.08-.28.08-.44Z"/>
      <path class="cls-1" d="M3.11,24.78l.65-.64.15.16c.13.19.21.43.21.68,0,.16-.03.31-.08.44v.04s-.86-.35-.86-.35c.02-.04.03-.08.03-.13,0-.08-.04-.15-.1-.2Z"/>
      <path class="cls-1" d="M3.74,56.35c.22-.22.35-.51.35-.84,0-.16-.03-.31-.1-.45l.31.73-.55.56h-.01Z"/>
      <path class="cls-1" d="M3.75,56.35l1.03,1.04c.37-.37.62-.84.73-1.35l18.45,18.46c-.5.1-.98.34-1.35.71h0s-.01,0-.01,0c-.37.38-.62.84-.73,1.35L3.43,58.11c.5-.1.97-.35,1.34-.72l-1.03-1.03h0s.01-.01.01-.01Z"/>
      <path class="cls-1" d="M3.15,55.4l.84-.34c.07.14.1.29.1.45,0,.33-.13.62-.35.84l-.39-.39-.19-.19-.06-.07c.05-.05.08-.11.08-.19,0-.04-.01-.07-.03-.1h0Z"/>
      <path class="cls-1" d="M2.71,57.39l1.03-1.03,1.03,1.03c-.37.37-.84.62-1.34.72h-.01l-.71-.72Z"/>
      <polygon class="cls-1" points="3.76 24.13 3.76 24.14 3.75 24.13 3.76 24.13"/>
      <path class="cls-1" d="M2.94,26.18c.47,0,.87-.28,1.07-.68l-.28.68h-.79Z"/>
      <path class="cls-1" d="M3.99,55.06c-.17-.44-.59-.74-1.09-.74h.79l.3.74Z"/>
      <path class="cls-1" d="M3.62,54.15l.07.17H1.43v-1.02c.42-.29.92-.45,1.47-.45s1.04.16,1.46.44v.55l-.74.31Z"/>
      <path class="cls-1" d="M2.9,55.24v-.92c.5,0,.92.3,1.09.74l-.84.34c-.04-.09-.14-.15-.25-.15h0Z"/>
      <polygon class="cls-1" points="3.35 55.96 3.74 56.35 3.73 56.35 3.58 56.2 3.35 55.96"/>
      <polygon class="cls-1" points="3.35 55.96 3.58 56.2 3.34 55.96 3.35 55.96"/>
      <path class="cls-1" d="M2.9,25.25c.11.01.22-.05.28-.14l.85.35-.02.04c-.2.4-.6.68-1.07.68h-.04v-.93Z"/>
      <path class="cls-1" d="M2.9,24.99l.21-.21c.06.05.1.12.1.2,0,.05-.01.09-.03.13l-.28-.12Z"/>
      <polygon class="cls-1" points="3.16 55.77 3.35 55.96 3.34 55.96 3.19 55.81 3.16 55.77"/>
      <polygon class="cls-1" points="3.16 55.77 3.19 55.81 3.15 55.77 3.16 55.77"/>
      <path class="cls-1" d="M3.18,25.11c-.06.09-.17.15-.28.14v-.26l.28.12Z"/>
      <path class="cls-1" d="M3.09,55.71l-.19-.2.25-.1s.03.06.03.1c0,.08-.03.14-.08.19l.06.07h-.01l-.06-.06Z"/>
      <path class="cls-1" d="M2.9,55.51v-.26c.11,0,.21.06.25.15h0s-.25.11-.25.11Z"/>
      <path class="cls-1" d="M2.9,24.99v.26c-.06-.01-.12-.03-.17-.07-.05-.06-.07-.13-.07-.2,0,0,0-.06.02-.11.05-.11.2-.14.27-.16.06,0,.12.02.16.07l-.21.21Z"/>
      <path class="cls-1" d="M2.94,26.18h.79l-.08.18.71.29v.58c-.42.26-.91.41-1.42.41-.57-.02-1.09-.2-1.51-.49v-.97h1.51Z"/>
      <path class="cls-1" d="M2.94,27.64c.51,0,1-.15,1.42-.41v26.06c-.42-.28-.93-.44-1.46-.44s-1.05.16-1.47.45v-26.15c.42.29.94.47,1.51.49Z"/>
      <path class="cls-1" d="M2.9,55.25v.26l.19.2c-.11.11-.39.06-.43-.04-.02-.05-.04-.11-.04-.16,0-.07.03-.14.08-.19h0c.05-.07.13-.09.2-.08h0Z"/>
      <path class="cls-1" d="M2.9,25.25v.93c-.64-.03-1.15-.55-1.15-1.2s.53-1.18,1.19-1.18c.29,0,.56.1.76.28l.05.05h.01s-.65.65-.65.65c-.04-.05-.1-.07-.16-.07-.07.02-.22.05-.27.16-.02.05-.02.11-.02.11,0,.07.02.14.07.2.05.04.11.06.17.07Z"/>
      <path class="cls-1" d="M2.66,55.67c.04.1.32.15.43.04l.06.06.04.04.15.15.24.24.15.15c-.21.22-.51.35-.83.35-.66,0-1.19-.54-1.19-1.19s.53-1.19,1.19-1.19v.92c-.07-.01-.15.01-.2.07h0c-.05.06-.08.13-.08.2,0,.05.02.11.04.16Z"/>
      <path class="cls-1" d="M2.94,23.8c-.66,0-1.19.52-1.19,1.18s.51,1.17,1.15,1.2h-1.47v.97c-.71-.48-1.15-1.27-1.15-2.17,0-1.46,1.19-2.65,2.66-2.65.17,0,.33.02.5.05l-.72.72.98.98c-.2-.18-.47-.28-.76-.28Z"/>
      <path class="cls-1" d="M2.9,56.7c.32,0,.62-.13.83-.35h.01s-1.03,1.04-1.03,1.04l.71.72c-.17.03-.34.05-.52.05-1.47,0-2.65-1.19-2.65-2.65,0-.93.47-1.74,1.18-2.21v1.02h1.47c-.66,0-1.19.53-1.19,1.19s.53,1.19,1.19,1.19Z"/>
    </g>
  </g>
</svg>