<?xml version="1.0" encoding="UTF-8"?>
<svg id="Layer_2" xmlns="http://www.w3.org/2000/svg" viewBox="0 0 80 80">
  <defs>
    <style>
      .cls-1 {
        fill: #f3bb1c;
      }

      .cls-2 {
        fill: #e13a2c;
      }

      .cls-3 {
        fill: #26255e;
      }
    </style>
  </defs>
  <g id="Layer_1-2" data-name="Layer_1">
    <g>
      <path class="cls-3" d="M40,23.35c9.18,0,16.65,7.47,16.65,16.65s-7.47,16.65-16.65,16.65-16.65-7.47-16.65-16.65,7.47-16.65,16.65-16.65Z"/>
      <path class="cls-3" d="M40,9.83c16.64,0,30.17,13.53,30.17,30.17s-13.53,30.18-30.17,30.18-30.17-13.54-30.17-30.18,13.53-30.17,30.17-30.17ZM63.11,40c0-12.74-10.37-23.11-23.11-23.11s-23.11,10.37-23.11,23.11,10.37,23.11,23.11,23.11,23.11-10.37,23.11-23.11Z"/>
      <path class="cls-2" d="M71.89,33.28c3.49.25,6.25,3.17,6.25,6.72s-2.76,6.47-6.25,6.72c.46-2.17.7-4.42.7-6.72s-.24-4.55-.7-6.72Z"/>
      <path class="cls-1" d="M71.5,48.37c.07-.27.14-.55.2-.83,4.03-.16,7.24-3.47,7.24-7.54s-3.21-7.38-7.24-7.54c-.06-.28-.13-.56-.2-.83,4.57.07,8.25,3.8,8.25,8.37s-3.68,8.3-8.25,8.37Z"/>
      <path class="cls-1" d="M78.94,40c0,4.07-3.21,7.38-7.24,7.54.07-.27.14-.54.19-.82,3.49-.25,6.25-3.17,6.25-6.72s-2.76-6.47-6.25-6.72c-.05-.28-.12-.55-.19-.82,4.03.16,7.24,3.47,7.24,7.54Z"/>
      <path class="cls-1" d="M71.38,33.25c-.27,0-.54.01-.81.04l-.09-.75v-.05c.29-.03.6-.05.9-.05.11,0,.22,0,.32.02.07.27.14.54.19.82-.17-.02-.34-.03-.51-.03Z"/>
      <path class="cls-1" d="M71.38,46.75c.17,0,.34-.01.51-.03-.05.28-.12.55-.19.82-.1.02-.21.02-.32.02-.26,0-.52-.01-.77-.04l.08-.8c.23.02.46.03.69.03Z"/>
      <path class="cls-1" d="M70.61,47.52l-.07-7.52-.06-7.46.09.75c.27-.03.54-.04.81-.04.17,0,.34.01.51.03.46,2.17.7,4.42.7,6.72s-.24,4.55-.7,6.72c-.17.02-.34.03-.51.03-.23,0-.46-.01-.69-.03l-.08.8Z"/>
      <path class="cls-1" d="M71.7,47.54c-.06.28-.13.56-.2.83h-.12c-.29,0-.57-.02-.85-.05l.08-.8c.25.03.51.04.77.04.11,0,.22,0,.32-.02Z"/>
      <path class="cls-1" d="M71.5,31.63c.07.27.14.55.2.83-.1-.02-.21-.02-.32-.02-.3,0-.61.02-.9.05l-.1-.8c.33-.04.67-.06,1-.06h.12Z"/>
      <path class="cls-1" d="M66.94,21.67c-.24.3-.51.57-.8.82l-.52-.62c.31-.26.6-.56.83-.89.17.23.33.46.49.69Z"/>
      <path class="cls-1" d="M66.83,58.49c-.16.23-.32.46-.49.68-.25-.32-.53-.61-.85-.86l.5-.63c.31.25.59.52.84.81Z"/>
      <path class="cls-2" d="M62.19,13.3c2.49,0,4.51,2.02,4.51,4.51,0,.9-.26,1.76-.75,2.49-1.79-2.36-3.89-4.46-6.25-6.25.73-.48,1.59-.75,2.49-.75Z"/>
      <path class="cls-2" d="M66.7,62.49c0,2.49-2.02,4.51-4.51,4.51-.99,0-1.93-.32-2.7-.9,2.39-1.78,4.53-3.89,6.35-6.26.56.76.86,1.68.86,2.65Z"/>
      <path class="cls-1" d="M65.95,20.3c.17.22.34.45.5.68-.23.33-.52.63-.83.89l-.03-.03-.49-.58c.33-.28.62-.6.85-.96Z"/>
      <path class="cls-1" d="M66.34,59.17c-.16.23-.33.45-.5.67-.24-.33-.53-.63-.86-.89l.51-.64c.32.25.6.54.85.86Z"/>
      <path class="cls-1" d="M62.19,11.68c3.38,0,6.13,2.75,6.13,6.13,0,1.42-.5,2.78-1.38,3.86-.16-.23-.32-.46-.49-.69.67-.88,1.06-1.98,1.06-3.17,0-2.94-2.38-5.32-5.32-5.32-1.19,0-2.29.39-3.17,1.05l-.69-.48c1.08-.89,2.44-1.38,3.86-1.38Z"/>
      <path class="cls-1" d="M62.19,67c2.49,0,4.51-2.02,4.51-4.51,0-.97-.3-1.89-.86-2.65.17-.22.34-.44.5-.67.73.91,1.17,2.07,1.17,3.32,0,2.94-2.38,5.32-5.32,5.32-1.28,0-2.46-.45-3.37-1.21.23-.16.45-.33.67-.5.77.58,1.71.9,2.7.9Z"/>
      <path class="cls-1" d="M66.7,17.81c0-2.49-2.02-4.51-4.51-4.51-.9,0-1.76.27-2.49.75-.22-.17-.45-.34-.68-.51.88-.66,1.98-1.05,3.17-1.05,2.94,0,5.32,2.38,5.32,5.32,0,1.19-.39,2.29-1.06,3.17-.16-.23-.33-.46-.5-.68.49-.73.75-1.59.75-2.49Z"/>
      <path class="cls-1" d="M62.19,68.62c-1.52,0-2.95-.55-4.06-1.55.23-.15.46-.31.69-.47.91.76,2.09,1.21,3.37,1.21,2.94,0,5.32-2.38,5.32-5.32,0-1.25-.44-2.41-1.17-3.32.17-.22.33-.45.49-.68.96,1.1,1.49,2.51,1.49,4,0,3.38-2.75,6.13-6.13,6.13Z"/>
      <path class="cls-1" d="M59.02,13.54c.23.17.46.34.68.51-.37.24-.7.54-.99.89l-.62-.51c.27-.33.58-.63.93-.89Z"/>
      <path class="cls-1" d="M58.61,65.24c.26.33.55.62.88.86-.22.17-.44.34-.67.5-.32-.25-.6-.55-.85-.87l.64-.49Z"/>
      <path class="cls-1" d="M58.33,13.06l.69.48c-.35.26-.66.56-.93.89l-.63-.52c.26-.32.56-.6.87-.85Z"/>
      <path class="cls-1" d="M65.59,21.84l-7.5-7.41.62.51c.29-.35.62-.65.99-.89,2.36,1.79,4.46,3.89,6.25,6.25-.23.36-.52.68-.85.96l.49.58Z"/>
      <path class="cls-1" d="M57.97,65.73l7.52-7.42-.51.64c.33.26.62.56.86.89-1.82,2.37-3.96,4.48-6.35,6.26-.33-.24-.62-.53-.88-.86l-.64.49Z"/>
      <path class="cls-1" d="M57.97,65.73c.25.32.53.62.85.87-.23.16-.46.32-.69.47-.29-.25-.56-.54-.8-.85l.64-.49Z"/>
      <path class="cls-1" d="M40,16.89c12.74,0,23.11,10.37,23.11,23.11s-10.37,23.11-23.11,23.11-23.11-10.37-23.11-23.11,10.37-23.11,23.11-23.11ZM56.65,40c0-9.18-7.47-16.65-16.65-16.65s-16.65,7.47-16.65,16.65,7.47,16.65,16.65,16.65,16.65-7.47,16.65-16.65Z"/>
      <path class="cls-1" d="M48.37,8.62c0,.29-.02.57-.05.85l-.8-.08c.03-.25.04-.51.04-.77,0-.11,0-.22-.02-.33.28.06.56.13.83.2v.13Z"/>
      <path class="cls-1" d="M47.56,71.38c0-.3-.02-.61-.05-.91l.8-.09c.04.33.06.67.06,1v.13c-.27.07-.55.14-.83.2.02-.11.02-.22.02-.33Z"/>
      <path class="cls-1" d="M47.54,8.29c.02.11.02.22.02.33,0,.26,0,.52-.04.77l-.8-.08c.02-.23.03-.46.03-.69,0-.18-.01-.35-.03-.52.27.06.55.12.82.19Z"/>
      <path class="cls-1" d="M47.51,70.47c.03.3.05.61.05.91,0,.11,0,.22-.02.33-.27.07-.55.13-.82.19.02-.17.03-.34.03-.52,0-.27-.01-.54-.05-.81l.81-.1Z"/>
      <path class="cls-2" d="M46.72,8.1c-2.17-.46-4.42-.7-6.72-.7s-4.55.24-6.72.7c.26-3.49,3.18-6.24,6.72-6.24s6.46,2.75,6.72,6.24Z"/>
      <path class="cls-2" d="M40,72.6c2.3,0,4.55-.24,6.72-.7-.26,3.49-3.18,6.24-6.72,6.24s-6.46-2.75-6.72-6.24c2.17.46,4.42.7,6.72.7Z"/>
      <path class="cls-1" d="M47.52,9.39l-7.52.07-7.46.06.75-.09c-.03-.27-.04-.54-.04-.81,0-.18.01-.35.03-.52,2.17-.46,4.42-.7,6.72-.7s4.55.24,6.72.7c.02.17.03.34.03.52,0,.23-.01.46-.03.69l.8.08Z"/>
      <path class="cls-1" d="M70.17,40c0-16.64-13.53-30.17-30.17-30.17v-.37l7.52-.07.8.08c.03-.28.05-.56.05-.85v-.13c3.6.96,6.96,2.52,9.96,4.57-.31.25-.61.53-.87.85l.63.52,7.5,7.41.03.03.52.62c.29-.25.56-.52.8-.82,2.04,3,3.6,6.35,4.56,9.96h-.12c-.33,0-.67.02-1,.06l.1.8v.05l.06,7.46h-.37Z"/>
      <path class="cls-1" d="M47.51,70.47h-7.51v-.29c16.64,0,30.17-13.54,30.17-30.18h.37l.07,7.52-.08.8c.28.03.56.05.85.05h.12c-.98,3.67-2.57,7.08-4.67,10.12-.25-.29-.53-.56-.84-.81l-.5.63-7.52,7.42-.64.49c.24.31.51.6.8.85-2.95,1.99-6.24,3.5-9.76,4.44v-.13c0-.33-.02-.67-.06-1l-.8.09Z"/>
      <path class="cls-1" d="M32.46,8.29c.16-4.03,3.47-7.23,7.54-7.23s7.38,3.2,7.54,7.23c-.27-.07-.55-.13-.82-.19-.26-3.49-3.18-6.24-6.72-6.24s-6.46,2.75-6.72,6.24c-.27.06-.55.12-.82.19Z"/>
      <path class="cls-1" d="M40,78.94c-4.07,0-7.38-3.2-7.54-7.23.27.07.55.13.82.19.26,3.49,3.18,6.24,6.72,6.24s6.46-2.75,6.72-6.24c.27-.06.55-.12.82-.19-.16,4.03-3.47,7.23-7.54,7.23Z"/>
      <path class="cls-1" d="M40,72.6c-2.3,0-4.55-.24-6.72-.7-.02-.17-.03-.34-.03-.52,0-.27.01-.54.05-.81l-.81-.1h15.02l-.81.1c.04.27.05.54.05.81,0,.18-.01.35-.03.52-2.17.46-4.42.7-6.72.7Z"/>
      <path class="cls-1" d="M33.25,8.62c0,.27.01.54.04.81l-.75.09h-.05c-.03-.3-.05-.6-.05-.9,0-.11,0-.22.02-.33.27-.07.55-.13.82-.19-.02.17-.03.34-.03.52Z"/>
      <path class="cls-1" d="M33.25,71.38c0,.18.01.35.03.52-.27-.06-.55-.12-.82-.19-.02-.11-.02-.22-.02-.33,0-.3.02-.61.05-.91l.81.1c-.04.27-.05.54-.05.81Z"/>
      <path class="cls-1" d="M40,1.06c-4.07,0-7.38,3.2-7.54,7.23-.28.06-.56.13-.83.2.07-4.56,3.8-8.24,8.37-8.24s8.3,3.68,8.37,8.24c-.27-.07-.55-.14-.83-.2-.16-4.03-3.47-7.23-7.54-7.23Z"/>
      <path class="cls-1" d="M32.46,71.71c.16,4.03,3.47,7.23,7.54,7.23s7.38-3.2,7.54-7.23c.28-.06.56-.13.83-.2-.07,4.56-3.8,8.24-8.37,8.24s-8.3-3.68-8.37-8.24c.27.07.55.14.83.2Z"/>
      <path class="cls-1" d="M31.63,71.51v-.13c0-.33.02-.67.06-1l.8.09c-.03.3-.05.61-.05.91,0,.11,0,.22.02.33-.28-.06-.56-.13-.83-.2Z"/>
      <path class="cls-1" d="M31.69,9.62c-.04-.33-.06-.67-.06-1v-.13c.27-.07.55-.14.83-.2-.02.11-.02.22-.02.33,0,.3.02.6.05.9l-.8.1Z"/>
      <path class="cls-1" d="M21.9,65.64l.65.48c-.24.32-.51.62-.8.87-.22-.15-.45-.31-.67-.46.3-.27.58-.56.82-.89Z"/>
      <path class="cls-1" d="M22.38,13.96l-.67.55.04-.05c-.25-.31-.54-.6-.86-.84.22-.17.44-.33.67-.48.3.23.57.51.82.82Z"/>
      <path class="cls-1" d="M21.25,65.16l.65.48c-.24.33-.52.62-.82.89-.23-.17-.45-.33-.67-.51.31-.24.6-.53.84-.86Z"/>
      <path class="cls-1" d="M21.75,14.46l-.04.05-.58.46c-.27-.33-.58-.62-.92-.85.22-.17.45-.34.68-.5.32.24.61.53.86.84Z"/>
      <path class="cls-2" d="M20.41,66.02c-.79.63-1.77.98-2.79.98-2.49,0-4.52-2.02-4.52-4.51,0-1.03.34-2,.96-2.78,1.82,2.39,3.95,4.51,6.35,6.31Z"/>
      <path class="cls-2" d="M17.62,13.3c.94,0,1.84.29,2.59.82-2.36,1.81-4.47,3.93-6.26,6.31-.55-.75-.85-1.66-.85-2.62,0-2.49,2.03-4.51,4.52-4.51Z"/>
      <path class="cls-1" d="M14.45,58.22l7.45,7.42-.65-.48c-.24.33-.53.62-.84.86-2.4-1.8-4.53-3.92-6.35-6.31.25-.31.54-.59.87-.84l-.48-.65Z"/>
      <path class="cls-1" d="M14.45,58.22l.48.65c-.33.25-.62.53-.87.84-.17-.22-.34-.44-.5-.67.27-.31.57-.58.89-.82Z"/>
      <path class="cls-1" d="M14.81,21.34c-.33-.26-.62-.57-.86-.91,1.79-2.38,3.9-4.5,6.26-6.31.34.23.65.52.92.85l.58-.46-7.4,7.47.5-.64Z"/>
      <path class="cls-1" d="M14.81,21.34l-.5.64h0c-.32-.26-.6-.55-.85-.87.17-.23.33-.46.5-.68.24.34.53.65.86.91Z"/>
      <path class="cls-1" d="M13.96,57.57l.49.65c-.32.24-.62.51-.89.82-.16-.22-.31-.44-.47-.67.25-.29.55-.56.87-.8Z"/>
      <path class="cls-1" d="M14.3,21.98l-.5.63c-.31-.25-.59-.52-.83-.81l.48-.69c.25.32.53.61.85.87Z"/>
      <path class="cls-1" d="M13.1,62.49c0,2.49,2.03,4.51,4.52,4.51,1.02,0,2-.35,2.79-.98.22.18.44.34.67.51-.93.8-2.14,1.28-3.46,1.28-2.94,0-5.32-2.38-5.32-5.32,0-1.32.48-2.52,1.26-3.45.16.23.33.45.5.67-.62.78-.96,1.75-.96,2.78Z"/>
      <path class="cls-1" d="M12.3,17.81c0-2.94,2.38-5.32,5.32-5.32,1.23,0,2.37.42,3.27,1.13-.23.16-.46.33-.68.5-.75-.53-1.65-.82-2.59-.82-2.49,0-4.52,2.02-4.52,4.51,0,.96.3,1.87.85,2.62-.17.22-.33.45-.5.68-.72-.9-1.15-2.05-1.15-3.3Z"/>
      <path class="cls-1" d="M17.62,12.49c-2.94,0-5.32,2.38-5.32,5.32,0,1.25.43,2.4,1.15,3.3l-.48.69c-.96-1.1-1.48-2.5-1.48-3.99,0-3.38,2.75-6.13,6.13-6.13,1.46,0,2.84.51,3.94,1.46-.23.15-.45.31-.67.48-.9-.71-2.04-1.13-3.27-1.13Z"/>
      <path class="cls-1" d="M12.3,62.49c0,2.94,2.38,5.32,5.32,5.32,1.32,0,2.53-.48,3.46-1.28.22.15.45.31.67.46-1.12,1.04-2.59,1.63-4.13,1.63-3.38,0-6.13-2.75-6.13-6.13,0-1.53.58-3,1.6-4.12.16.23.31.45.47.67-.78.93-1.26,2.13-1.26,3.45Z"/>
      <path class="cls-1" d="M32.49,9.52h.05l7.46-.06v.37c-16.64,0-30.17,13.53-30.17,30.17h-.3v-7.5h0s.1-.81.1-.81c-.34-.04-.68-.06-1.01-.06h-.12c.94-3.55,2.47-6.87,4.47-9.83.24.29.52.56.83.81l.5-.63h0l7.4-7.47.67-.55c-.25-.31-.52-.59-.82-.82,3.03-2.09,6.42-3.68,10.07-4.65v.13c0,.33.02.67.06,1l.8-.1Z"/>
      <path class="cls-1" d="M9.53,32.5v14.95s-.1-.75-.1-.75c-.27.04-.54.05-.81.05-.17,0-.34-.01-.51-.03-.46-2.17-.7-4.42-.7-6.72s.24-4.55.7-6.72c.17-.02.34-.03.51-.03.27,0,.54.01.81.05l.1-.8Z"/>
      <path class="cls-1" d="M8.62,32.44c.31,0,.61.02.91.05h0s-.1.81-.1.81c-.27-.04-.54-.05-.81-.05-.17,0-.34.01-.51.03.05-.28.12-.55.19-.82.1-.02.21-.02.32-.02Z"/>
      <path class="cls-1" d="M9.52,47.51l.1.8c-.33.04-.67.06-1,.06h-.12c-.07-.27-.14-.55-.2-.83.1.02.21.02.32.02.3,0,.61-.02.9-.05Z"/>
      <path class="cls-1" d="M9.53,32.49c-.3-.03-.6-.05-.91-.05-.11,0-.22,0-.32.02.06-.28.13-.56.2-.83h.12c.33,0,.67.02,1.01.06l-.1.8Z"/>
      <path class="cls-1" d="M9.83,40c0,16.64,13.53,30.18,30.17,30.18v.29h-7.51l-.8-.09c-.04.33-.06.67-.06,1v.13c-3.57-.95-6.9-2.49-9.88-4.52.29-.25.56-.55.8-.87l-.65-.48-7.45-7.42-.49-.65c-.32.24-.62.51-.87.8-2.06-3.01-3.63-6.38-4.59-10h.12c.33,0,.67-.02,1-.06l-.1-.8v-7.51h.31Z"/>
      <path class="cls-1" d="M9.52,47.45v.06c-.29.03-.6.05-.9.05-.11,0-.22,0-.32-.02-.07-.27-.14-.54-.19-.82.17.02.34.03.51.03.27,0,.54-.01.81-.05l.09.75Z"/>
      <path class="cls-2" d="M8.11,33.28c-.46,2.17-.7,4.42-.7,6.72s.24,4.55.7,6.72c-3.49-.25-6.25-3.17-6.25-6.72s2.76-6.47,6.25-6.72Z"/>
      <path class="cls-1" d="M8.3,47.54c-4.03-.16-7.24-3.47-7.24-7.54s3.21-7.38,7.24-7.54c-.07.27-.14.54-.19.82-3.49.25-6.25,3.17-6.25,6.72s2.76,6.47,6.25,6.72c.05.28.12.55.19.82Z"/>
      <path class="cls-1" d="M8.5,31.63c-.07.27-.14.55-.2.83-4.03.16-7.24,3.47-7.24,7.54s3.21,7.38,7.24,7.54c.06.28.13.56.2.83-4.57-.07-8.25-3.8-8.25-8.37s3.68-8.3,8.25-8.37Z"/>
    </g>
  </g>
</svg>