<?xml version="1.0" encoding="UTF-8"?>
<svg id="Layer_2" xmlns="http://www.w3.org/2000/svg" viewBox="0 0 66.45 80">
  <defs>
    <style>
      .cls-1 {
        fill: #f3bb1c;
      }

      .cls-2 {
        fill: #e13a2c;
      }

      .cls-3 {
        fill: #26255e;
      }
    </style>
  </defs>
  <g id="Layer_1-2" data-name="Layer_1">
    <g>
      <g>
        <polygon class="cls-3" points="42.63 54.26 40.19 59.22 33.23 42.56 26.27 59.22 23.83 54.25 33.23 31.76 42.63 54.26"/>
        <polygon class="cls-3" points="63.29 11.93 55.36 11.93 59.24 5.22 63.29 11.93"/>
        <polygon class="cls-3" points="62.15 14.46 46.56 46.24 33.3 14.46 62.15 14.46"/>
        <polygon class="cls-3" points="11.07 11.93 3.14 11.93 7.02 5.22 11.07 11.93"/>
        <polygon class="cls-3" points="33.16 14.46 19.89 46.23 4.31 14.46 33.16 14.46"/>
        <polygon class="cls-1" points="59.19 .25 66.2 11.87 66.1 11.93 63.29 11.93 59.24 5.22 55.36 11.93 52.54 11.93 52.47 11.89 59.19 .25"/>
        <polygon class="cls-1" points="66.1 11.93 64.04 13.18 63.29 11.93 66.1 11.93"/>
        <polygon class="cls-1" points="55.36 11.93 54.65 13.16 52.54 11.93 55.36 11.93"/>
        <polygon class="cls-1" points="46.56 46.24 47.2 47.78 43.27 55.8 42.63 54.26 46.56 46.24"/>
        <polygon class="cls-1" points="33.3 14.46 46.56 46.24 42.63 54.26 33.23 31.76 23.83 54.25 19.89 46.23 33.16 14.46 33.3 14.46"/>
        <polygon class="cls-1" points="40.19 59.22 40.86 60.82 40.08 61.15 39.7 60.23 40.19 59.22"/>
        <polygon class="cls-1" points="33.23 42.56 40.19 59.22 39.7 60.23 33.23 44.74 26.76 60.22 26.27 59.22 33.23 42.56"/>
        <polygon class="cls-1" points="39.7 60.23 40.08 61.15 40.07 61.15 39.39 60.86 39.7 60.23"/>
        <polygon class="cls-1" points="40.07 61.15 39.31 61.47 39.21 61.23 39.24 61.15 40.07 61.15"/>
        <polygon class="cls-1" points="40.07 61.15 39.24 61.15 39.39 60.86 40.07 61.15"/>
        <polygon class="cls-1" points="39.31 61.47 40.07 61.15 40.08 61.15 33.22 77.57 26.37 61.16 26.38 61.16 26.39 61.16 27.15 61.48 27.25 61.23 27.67 62.07 33.22 75.39 38.78 62.1 39.21 61.23 39.31 61.47"/>
        <polygon class="cls-1" points="39.39 60.86 39.24 61.15 39.18 61.15 39.31 60.83 39.39 60.86"/>
        <polygon class="cls-1" points="39.24 61.15 39.21 61.23 39.18 61.15 39.24 61.15"/>
        <polygon class="cls-1" points="39.18 61.15 39.21 61.23 38.78 62.1 39.18 61.15"/>
        <polygon class="cls-2" points="39.18 61.15 38.78 62.1 33.23 73.41 27.67 62.07 27.29 61.16 39.18 61.15"/>
        <polygon class="cls-2" points="39.18 61.15 27.29 61.15 33.23 46.92 39.18 61.15"/>
        <polygon class="cls-1" points="38.78 62.1 33.22 75.39 27.67 62.07 33.23 73.41 38.78 62.1"/>
        <polygon class="cls-1" points="33.23 79.13 34.92 75.69 33.22 79.75 31.44 75.48 33.23 79.13"/>
        <polygon class="cls-1" points="33.3 14.46 33.16 14.46 33.23 14.3 33.3 14.46"/>
        <polygon class="cls-1" points="33.23 79.13 31.44 75.48 25.6 61.48 26.37 61.16 33.22 77.57 40.08 61.15 40.86 61.48 34.92 75.69 33.23 79.13"/>
        <polygon class="cls-1" points="27.67 62.07 27.25 61.23 27.28 61.16 27.29 61.16 27.67 62.07"/>
        <polygon class="cls-1" points="27.29 61.15 27.29 61.16 27.28 61.16 27.22 61.16 27.22 61.15 27.28 61.15 27.29 61.15"/>
        <polygon class="cls-1" points="27.28 61.16 27.25 61.23 27.22 61.16 27.28 61.16"/>
        <polygon class="cls-1" points="27.15 60.83 27.28 61.15 27.22 61.15 27.07 60.86 27.15 60.83"/>
        <polygon class="cls-1" points="27.22 61.16 27.25 61.23 27.15 61.48 26.39 61.16 27.22 61.16"/>
        <polygon class="cls-1" points="27.22 61.15 27.22 61.16 26.39 61.16 26.38 61.16 26.39 61.15 27.22 61.15"/>
        <polygon class="cls-1" points="27.22 61.15 26.39 61.15 27.07 60.86 27.22 61.15"/>
        <polygon class="cls-1" points="26.76 60.22 33.23 44.74 39.7 60.23 39.39 60.86 39.31 60.83 39.18 61.15 33.23 46.92 27.29 61.15 27.28 61.15 27.15 60.83 27.07 60.86 26.76 60.22"/>
        <polygon class="cls-1" points="26.76 60.22 27.07 60.86 26.39 61.15 26.37 61.15 26.76 60.22"/>
        <polygon class="cls-1" points="26.27 59.22 26.76 60.22 26.37 61.15 25.6 60.83 26.27 59.22"/>
        <polygon class="cls-1" points="26.39 61.15 26.38 61.16 26.37 61.16 26.37 61.15 26.39 61.15"/>
        <polygon class="cls-1" points="19.89 46.23 23.83 54.25 23.18 55.8 19.25 47.77 19.89 46.23"/>
        <polygon class="cls-1" points="6.97 .25 13.98 11.87 13.88 11.93 11.07 11.93 7.02 5.22 3.14 11.93 .32 11.93 .25 11.89 6.97 .25"/>
        <polygon class="cls-1" points="13.88 11.93 11.82 13.18 11.07 11.93 13.88 11.93"/>
        <polygon class="cls-1" points="33.23 14.3 33.16 14.46 4.31 14.46 19.89 46.23 19.25 47.77 23.18 55.8 23.83 54.25 26.27 59.22 25.6 60.83 26.37 61.15 26.37 61.16 25.6 61.48 31.44 75.48 .26 11.93 .32 11.93 2.43 13.16 3.14 11.93 11.07 11.93 11.82 13.18 13.88 11.93 52.54 11.93 54.65 13.16 55.36 11.93 63.29 11.93 64.04 13.18 66.1 11.93 66.2 11.93 34.92 75.69 40.86 61.48 40.08 61.15 40.86 60.82 40.19 59.22 42.63 54.26 43.27 55.8 47.2 47.78 46.56 46.24 62.15 14.46 33.3 14.46 33.23 14.3"/>
        <polygon class="cls-1" points="3.14 11.93 2.43 13.16 .32 11.93 3.14 11.93"/>
      </g>
      <path class="cls-2" d="M31.62,63.84c3.22,0,3.22-5,0-5s-3.22,5,0,5h0Z"/>
      <path class="cls-2" d="M31.59,58.83c-.06-.01-.12-.02-.18-.03-.28-.04-.56-.08-.84-.11-.13-.01-.25-.02-.38-.02-.34-.01-.67.06-.96.22-.31.1-.58.27-.8.52-.24.23-.42.49-.52.8-.16.3-.23.62-.22.96l.09.66c.12.42.33.79.64,1.1l.51.39c.39.23.81.34,1.26.34.17,0,.33.02.5.04l-.66-.09c.08.01.16.02.24.04.33.1.66.12,1,.04.33-.02.64-.11.93-.3.29-.16.53-.37.7-.64.22-.24.37-.52.45-.85l.09-.66c0-.45-.12-.87-.34-1.26l-.39-.51c-.31-.31-.68-.52-1.1-.64h0Z"/>
      <path class="cls-2" d="M38.29,61.81c.8,0,.81-1.25,0-1.25s-.81,1.25,0,1.25h0Z"/>
      <path class="cls-2" d="M38.43,61.78c.8,0,.81-1.25,0-1.25s-.81,1.25,0,1.25h0Z"/>
      <path class="cls-2" d="M28.04,61.81c.8,0,.81-1.25,0-1.25s-.81,1.25,0,1.25h0Z"/>
      <path class="cls-2" d="M28,61.78c.8,0,.81-1.25,0-1.25s-.81,1.25,0,1.25h0Z"/>
      <path class="cls-2" d="M27.4,61.19s.03-.05,0-.05-.03.05,0,.05h0Z"/>
      <path class="cls-2" d="M27.36,61.18s.03-.05,0-.05-.03.05,0,.05h0Z"/>
      <path class="cls-2" d="M27.33,61.18s.03-.05,0-.05-.03.05,0,.05h0Z"/>
      <path class="cls-2" d="M27.33,61.18s.03-.05,0-.05-.03.05,0,.05h0Z"/>
      <path class="cls-2" d="M27.32,61.18s.03-.05,0-.05-.03.05,0,.05h0Z"/>
      <path class="cls-2" d="M27.32,61.18s.03-.05,0-.05-.03.05,0,.05h0Z"/>
      <path class="cls-2" d="M27.32,61.18s.03-.05,0-.05-.03.05,0,.05h0Z"/>
      <path class="cls-2" d="M28.19,61.28s.03-.05,0-.05-.03.05,0,.05h0Z"/>
      <path class="cls-2" d="M34.38,61.16l1.66.04s.03-.03.01-.05-.04-.03-.06-.04c-.03-.02-.05.03-.03.04.02.01.04.03.06.04v-.05c-.54-.01-1.1-.03-1.65-.04-.03,0-.03.05,0,.05h0Z"/>
      <path class="cls-2" d="M30.15,61.19c.28,0,.57.01.84.11v-.05c-.13-.04-.26-.11-.37-.2v.05c.11,0,.22.02.33.07.03.01.05-.03.03-.04-.12-.06-.24-.08-.37-.08-.03,0-.03.03-.01.05.12.09.26.16.4.2.03,0,.04-.04.01-.05-.27-.1-.56-.11-.85-.11-.03,0-.03.05,0,.05h0Z"/>
    </g>
  </g>
</svg>