<svg id="Layer_2" data-name="Layer 2" xmlns="http://www.w3.org/2000/svg" viewBox="0 0 620.18 49.61"><defs><style>.cls-3{fill:#e11f2a}</style></defs><g id="Layer_3" data-name="Layer 3"><path class="cls-3" d="M158.77 17.95s-12.45 1.02-34.08 12.86c-7.96 4.29-28.37 9.59-34.9 11.43-25.92 7.35-52.04 3.06-69.59-1.63L4.9 37.75 0 33.87s35.92 9.59 76.12 3.06c8.37-1.43 31.83-8.78 37.34-11.22 20.2-8.57 30.2-14.69 37.55-12.24l7.75 4.49Zm115.3 2.25 4.9 3.88s-35.92-9.59-76.12-3.06c-8.37 1.43-31.63 8.78-37.35 11.22-20.2 8.57-30 14.69-37.55 12.24l-7.75-4.49s12.65-1.02 34.08-12.86c7.96-4.29 28.37-9.59 34.9-11.43 25.92-7.35 52.04-3.06 69.79 1.63l15.1 2.86ZM361.22 17.34c17.75-4.69 43.88-8.98 69.79-1.63 6.53 1.84 26.94 7.14 34.9 11.43C487.34 38.98 499.99 40 499.99 40l-7.75 4.49c-7.55 2.45-17.35-3.67-37.55-12.25-5.71-2.45-28.98-9.79-37.34-11.22-40.2-6.53-76.12 3.06-76.12 3.06l4.9-3.88 15.1-2.86Zm107.95-3.88c7.35-2.45 17.35 3.67 37.55 12.24 5.51 2.45 28.98 9.8 37.35 11.22 40.2 6.53 76.12-3.06 76.12-3.06l-4.9 3.88-15.31 2.86c-17.55 4.69-43.67 8.98-69.59 1.63-6.53-1.84-26.94-7.14-34.9-11.43-21.63-11.84-34.08-12.86-34.08-12.86l7.76-4.49Z"/><path d="M332.16 16.81V33.1c-.1.06-.2.14-.27.23l-18.07-7.49c.07-.29.11-.58.11-.88s-.04-.6-.11-.89l18.08-7.48c.08.08.17.16.26.22Z" style="fill:#f3bb1c"/><path d="m331.45 34.82-11.5 11.5c-.11-.02-.22-.03-.33-.03h-.03l-7.48-18.07c.51-.31.93-.74 1.24-1.25l18.07 7.48v.03c0 .12.01.23.03.34Z" style="fill:#00b2d9"/><path class="cls-3" d="M331.46 15.11c-.03.1-.04.21-.04.32v.04l-18.07 7.47c-.31-.51-.75-.94-1.25-1.25l7.48-18.06h.03c.12 0 .23-.01.34-.03l11.51 11.51Z"/><path d="M333.99 33.09V16.82c.45-.3.75-.81.75-1.39 0-.91-.75-1.65-1.66-1.65-.11 0-.22.01-.33.03l-11.51-11.5c.02-.11.03-.23.03-.34 0-.92-.74-1.66-1.66-1.66-.57 0-1.08.29-1.38.74h-15.92c-.33-.63-.99-1.05-1.74-1.05-1.09 0-1.97.88-1.97 1.97 0 .2.03.39.1.57l-11.27 11.27c-.1-.02-.2-.03-.3-.03-.92 0-1.67.74-1.67 1.65 0 .56.28 1.06.72 1.36v16.3c-.44.3-.74.81-.74 1.39 0 .91.75 1.66 1.66 1.66.11 0 .23-.01.33-.03l11.51 11.51c-.02.1-.03.21-.03.32 0 .92.74 1.67 1.66 1.67.57 0 1.08-.3 1.38-.75h16.28c.3.45.81.75 1.38.75.92 0 1.66-.75 1.66-1.67 0-.11-.01-.22-.03-.32s11.5-11.51 11.5-11.51c.11.02.22.03.34.03.91 0 1.66-.75 1.66-1.66 0-.58-.3-1.09-.75-1.39ZM319.58 3.63h.03c.12 0 .23-.01.34-.03l11.51 11.51c-.03.1-.04.21-.04.32v.04l-18.07 7.47c-.31-.51-.75-.94-1.25-1.25l7.48-18.06Zm-17.27-.75h15.91c.07.1.14.2.23.28l-7.48 18.06c-.56-.13-1.17-.13-1.76.01l-7.36-17.76c.19-.17.35-.37.46-.59Zm-2.32.97c.18.06.38.09.58.09.05 0 .11 0 .16-.01l7.35 17.76c-.52.31-.95.74-1.25 1.25l-18.05-7.48v-.03c0-.12-.01-.24-.03-.35l11.24-11.23Zm-11.98 29.24V16.83c.11-.06.21-.15.3-.24l18.05 7.48c-.07.29-.11.59-.11.89s.04.59.11.88l-18.07 7.49c-.08-.09-.18-.17-.28-.24Zm12.58 13.21c-.12 0-.24.01-.35.03l-11.51-11.51c.02-.11.03-.22.03-.34v-.03l18.07-7.48c.31.51.74.95 1.25 1.26l-7.49 18.07Zm17.63.73h-16.27c-.07-.1-.14-.19-.23-.27l7.48-18.07c.29.07.59.11.9.11s.6-.03.88-.1l7.48 18.06c-.09.08-.17.17-.24.27Zm1.73-.71c-.11-.02-.22-.03-.33-.03h-.03l-7.48-18.07c.51-.31.93-.74 1.24-1.25l18.07 7.48v.03c0 .12.01.23.03.34l-11.5 11.5Zm12.21-13.22c-.1.06-.2.14-.27.23l-18.07-7.49c.07-.29.11-.58.11-.88s-.04-.6-.11-.89l18.08-7.48c.08.08.17.16.26.22V33.1Z" style="fill:#154a8b"/></g></svg>