<svg id="Layer_2" data-name="Layer 2" xmlns="http://www.w3.org/2000/svg" viewBox="0 0 231.26 61.15"><defs><style>.cls-1{fill:#e11f2a}</style></defs><g id="Layer_3" data-name="Layer 3"><path class="cls-1" d="M19.92 14.12c-3.15 3.72-4.86 8.58-4.29 13.45.86 10.02 9.73 18.03 19.17 20.6 1.72.57 3.72.86 5.44.86-1.43 0 1.14-.29 1.43-.29 1.43-.29 3.15-.86 4.58-1.43 6.01-1.72 11.73-4.58 17.46-7.44 11.45-5.72 22.32-12.02 33.48-18.03 10.87-6.01 22.03-11.45 34.05-15.45C142.69 2.67 154.7.67 167.01.09c20.89-.86 44.35 3.43 58.38 20.32 3.72 4.86 6.58 10.87 5.72 17.17-.86 5.44-4.58 10.59-8.87 14.31-5.44 4.29-12.3 6.58-18.89 7.73-8.3 1.43-16.88 1.72-25.47 1.43-.86 0-5.72-.29-2.86-1.43 2.86-1.43 7.44-1.43 10.59-1.14 5.44 0 8.58.29 14.02-2 4.86-1.72 9.44-5.15 12.59-9.73 6.87-10.3 2-21.75-6.58-29.47-7.44-6.87-17.17-11.16-27.18-13.16-2-.57-4.29-.86-6.58-1.15-2.58-.29-4.58-.29-6.58-.29h-1.43c1.72 0-.86.29-1.14.29h-2.58c-1.72.29-3.72.57-6.01 1.15-24.04 5.44-45.21 19.46-66.67 30.9-11.45 6.29-23.18 12.3-36.06 14.88-12.59 2.58-27.76 3.72-39.2-3.43C2.76 40.74-3.54 29.29 2.18 18.7 8.76 5.83 25.08 3.54 37.95 5.54c3.43.29-2 1.72-2.58 2-3.43.57-8.58.86-9.44 1.43-2.29 1.43-4.29 3.15-6.01 5.15Z"/><path class="cls-1" d="M44.03 22.26c.69.57 1.26 1.83 1.49 3.66.23 2.52-.23 5.84-1.95 7.67-1.37 1.37-3.32 1.95-5.27 1.95-2.17 0-4.23-.69-5.04-1.49-1.37-1.26-1.83-3.43-2.06-4.92-.46-2.63 0-4.69 1.72-6.41 3.09-3.43 8.01-2.63 11.1-.46ZM197.66 29.86c.69.57 1.26 1.83 1.49 3.66.23 2.52-.23 5.84-1.95 7.67-1.37 1.37-3.32 1.95-5.27 1.95-2.17 0-4.23-.69-5.04-1.49-1.37-1.26-1.83-3.43-2.06-4.92-.46-2.63 0-4.69 1.72-6.41 3.09-3.43 8.01-2.63 11.1-.46Z"/></g></svg>