<svg id="Layer_2" data-name="Layer 2" xmlns="http://www.w3.org/2000/svg" viewBox="0 0 178.58 121.72"><defs><style>.cls-1,.cls-2{fill:#f3bb1c}.cls-3{fill:#00b2d9}.cls-4{fill:#e11f2a}.cls-2{stroke:#f3bb1c;stroke-miterlimit:10;stroke-width:.71px}.cls-5{fill:#26255e}</style></defs><g id="Layer_1-2" data-name="Layer 1"><path class="cls-3" d="M168.97 64.69c.25.08.2.55-.05.6-1.36.28-2.59 1.18-3.37 2.34-.86 1.33-1.16 2.92-1.08 4.48 0 .33-.35.45-.43.1-.33-1.58-.65-3.22-1.53-4.6-.75-1.13-1.99-2.16-3.34-2.41h-.03c-.28.03-.28-.58 0-.65 1.23-.28 2.44-.63 3.37-1.56s1.31-2.31 1.31-3.65v-.35c0-.4.4-.4.43 0 .03.18.03.35.03.53.05 1.26.3 2.54 1.23 3.45.96.93 2.24 1.33 3.47 1.74Zm-1.03.25c-1.06-.4-2.09-.91-2.84-1.74-.53-.6-.86-1.33-1.03-2.06-.23.83-.58 1.63-1.16 2.29-.7.78-1.74 1.33-2.77 1.61.35.1.68.25.98.45.63.4 1.16.96 1.58 1.58.7 1.03 1.11 2.21 1.38 3.42.15-1.18.5-2.34 1.16-3.32.65-1.01 1.58-1.81 2.69-2.24Z"/><path class="cls-3" d="M165.1 63.21c.75.83 1.79 1.33 2.84 1.74-1.11.43-2.04 1.23-2.69 2.24-.65.98-1.01 2.14-1.16 3.32-.28-1.21-.68-2.39-1.38-3.42-.43-.63-.96-1.18-1.58-1.58-.3-.2-.63-.35-.98-.45 1.03-.28 2.06-.83 2.77-1.61.58-.65.93-1.46 1.16-2.29.18.73.5 1.46 1.03 2.06Z"/><path class="cls-1" d="M8.33 93.42c-3.48 16.16 5.91 8.34 7.67 3.52-.02-.2 3.94 1.14 3.92 1.3C9.9 118.02 1.27 105.18.36 100.98-.79 96.66.27 82.05 11.02 78.27c14.38-1.58 10.49 11.64 10.53 11.61 0 0-4.12.77-4.24.51 1.08-1.95-1.51-16.74-8.98 3.03ZM39.77 103.94c-.7.65-5.7 1.07-6.35.58-.29-.05.6-4.55.58-6.06-1.98.03-5.22.48-6.48.82-.41 1.16-1.76 5.33-2.27 6.1-.79.45-3.32.42-4.45.08-.88-.78 9.56-28.37 10.51-28.81.71-.53 10.08-.71 10.62-.14.46.64-1.53 26.84-2.17 27.42Zm-3.72-27.05c-.08-.01-7.19 16.86-6.6 16.81.49-.06 4.65-.47 4.66-.46.61-5.45 1.26-10.9 1.94-16.35ZM59.46 90.84c-.18-.08 4.93 10.51 4.66 11.32-.29.83-6.25.99-7 .33-.74-.68-3.74-10.1-3.76-10.09-.02 0-3.25 11.42-4.17 11.65-.86.17-6.69-.98-7.28-2.15-.64-1.21 9.26-24.67 9.81-25.58.61-.26-.13-2.28 7.24-1.66 16.35 2.95 7.4 16.91.49 16.18Zm3.21-6.05c2.4-6-3.18-6.36-3.54-6.1-.38.29-3.71 8.51-3.46 8.98.28.45 5.28 1.03 7.01-2.88ZM82.03 74.61c.52.63 2.45 14.47 2.76 14.63.2.15 6.06-14.4 6.49-14.82.42-.51 4.27-.31 4.64.26.2.48-11.99 27.35-12.48 27.67-.63.28-3.7.03-4.1-.52-.43-.59-2.51-17.42-2.77-17.49-.28-.05-7.14 17.5-7.48 18.2-.42.72-2.8.73-3.16-.37-.52-1.2 10.19-27.39 10.35-27.36 1.4-1.02 5.22-.86 5.77-.19ZM108.66 102.4c-.78.55-5.78.34-6.37-.23-.28-.09 1.17-4.44 1.34-5.94-1.97-.22-5.23-.18-6.52-.01-.55 1.1-2.42 5.06-3.02 5.77-.84.34-3.34 0-4.42-.48-.78-.88 13.07-26.93 14.07-27.25.77-.44 10.08.57 10.55 1.21.37.69-4.92 26.43-5.63 26.92Zm-.25-27.3c-.07-.02-9.27 15.81-8.67 15.84.49 0 4.67.13 4.67.13 1.3-5.33 2.63-10.65 4-15.97ZM119.09 75.19c.69-.25 6.27.35 6.36.92.09.56-1.17 14.48-1.16 14.48-.06-.02 9.13-14.13 10.04-14.15.81-.09 3.32-.03 3.63.72.03.62-16.76 26.06-17.45 26.71-.87.61-4.68-.36-5.09-.89-.52-.5 2.96-27.54 3.68-27.78ZM148.25 105.5c-.82.5-5.8-.09-6.34-.69-.27-.11 1.49-4.34 1.78-5.82-1.95-.37-5.21-.57-6.51-.49-.63 1.05-2.78 4.87-3.44 5.53-.86.28-3.34-.25-4.37-.8-.71-.94 15.02-25.9 16.04-26.14.8-.38 10.02 1.31 10.44 1.99.32.71-6.85 26-7.6 26.43ZM150 78.26c-.07-.03-10.41 15.08-9.82 15.16.49.04 4.65.47 4.65.48 1.69-5.22 3.41-10.43 5.16-15.64ZM168.59 108.92c-1.11-.11-15.33-2.28-16.54-2.96-.22-.15-.4-.37-.42-.49-.08-.33 1.19-3.24 3.05-7 3.48-7.15 9.01-17.18 10-18.4 1.39-.29 5.81 0 6.51.95.55.76-5.82 12.77-10.15 20.21 6.39 1.2 10.48 1.67 10.66 2.3.27 1.08-2.1 4.52-3.12 5.4Z"/><path class="cls-4" d="M10.32 95.41c-3.48 16.16 5.91 8.34 7.67 3.52-.02-.2 3.94 1.14 3.92 1.3-10.02 19.78-18.65 6.94-19.56 2.74-1.15-4.32-.09-18.93 10.66-22.71C27.39 78.68 23.5 91.9 23.54 91.87c0 0-4.12.77-4.24.51 1.08-1.95-1.51-16.74-8.98 3.03ZM41.76 105.93c-.7.65-5.7 1.07-6.35.58-.29-.05.6-4.55.58-6.06-1.98.03-5.22.48-6.48.82-.41 1.16-1.76 5.33-2.27 6.1-.79.45-3.32.42-4.45.08-.88-.78 9.56-28.37 10.51-28.81.71-.53 10.08-.71 10.62-.14.46.64-1.53 26.84-2.17 27.42Zm-3.72-27.05c-.08-.01-7.19 16.86-6.6 16.81.49-.06 4.65-.47 4.66-.46.61-5.45 1.26-10.9 1.94-16.35ZM61.45 92.82c-.18-.08 4.93 10.51 4.66 11.32-.29.83-6.25.99-7 .33-.74-.68-3.74-10.1-3.76-10.09-.02 0-3.25 11.42-4.17 11.65-.86.17-6.69-.98-7.28-2.15-.64-1.21 9.26-24.67 9.81-25.58.61-.26-.13-2.28 7.24-1.66 16.35 2.95 7.4 16.91.49 16.18Zm3.21-6.04c2.4-6-3.18-6.36-3.54-6.1-.38.29-3.71 8.51-3.46 8.98.28.45 5.28 1.03 7.01-2.88ZM84.02 76.6c.52.63 2.45 14.47 2.76 14.63.2.15 6.06-14.4 6.49-14.82.42-.51 4.27-.31 4.64.26.2.48-11.99 27.35-12.48 27.67-.63.28-3.7.03-4.1-.52-.43-.59-2.51-17.42-2.77-17.49-.28-.05-7.14 17.5-7.48 18.2-.42.72-2.8.73-3.16-.37-.52-1.2 10.19-27.39 10.35-27.36 1.4-1.02 5.22-.86 5.77-.19ZM110.65 104.39c-.78.55-5.78.34-6.37-.23-.28-.09 1.17-4.44 1.34-5.94-1.97-.22-5.23-.18-6.52-.01-.55 1.1-2.42 5.06-3.02 5.77-.84.34-3.34 0-4.42-.48-.78-.88 13.07-26.93 14.07-27.25.77-.44 10.08.57 10.55 1.21.37.69-4.92 26.43-5.63 26.92Zm-.25-27.3c-.07-.02-9.27 15.81-8.67 15.84.49 0 4.67.13 4.67.13 1.3-5.33 2.63-10.65 4-15.97ZM121.08 77.17c.69-.25 6.27.35 6.36.92.09.56-1.17 14.48-1.16 14.48-.06-.02 9.13-14.13 10.04-14.15.81-.09 3.32-.03 3.63.72.03.62-16.76 26.06-17.45 26.71-.87.61-4.68-.36-5.09-.89-.52-.5 2.96-27.54 3.68-27.78ZM150.24 107.49c-.82.5-5.8-.09-6.34-.69-.27-.11 1.49-4.34 1.78-5.82-1.95-.37-5.21-.57-6.51-.49-.63 1.05-2.78 4.87-3.44 5.53-.86.28-3.34-.25-4.37-.8-.71-.94 15.02-25.9 16.04-26.14.8-.38 10.02 1.31 10.44 1.99.32.71-6.85 26-7.6 26.43Zm1.75-27.24c-.07-.03-10.41 15.08-9.82 15.16.49.04 4.65.47 4.65.48 1.69-5.22 3.41-10.43 5.16-15.64ZM170.58 110.91c-1.11-.11-15.33-2.28-16.54-2.96-.22-.15-.4-.37-.42-.49-.08-.33 1.19-3.24 3.05-7 3.48-7.15 9.01-17.18 10-18.4 1.39-.29 5.81 0 6.51.95.55.76-5.82 12.77-10.15 20.21 6.39 1.2 10.48 1.67 10.66 2.3.27 1.08-2.1 4.52-3.12 5.4Z"/><path class="cls-5" d="M9.33 94.42c-3.48 16.16 5.91 8.34 7.67 3.52-.02-.2 3.94 1.14 3.92 1.3-10.02 19.78-18.65 6.94-19.56 2.74-1.15-4.32-.09-18.93 10.66-22.71 14.38-1.58 10.49 11.64 10.53 11.61 0 0-4.12.77-4.24.51 1.08-1.95-1.51-16.74-8.98 3.03ZM40.76 104.93c-.7.65-5.7 1.07-6.35.58-.29-.05.6-4.55.58-6.06-1.98.03-5.22.48-6.48.82-.41 1.16-1.76 5.33-2.27 6.1-.79.45-3.32.42-4.45.08-.88-.78 9.56-28.37 10.51-28.81.71-.53 10.08-.71 10.62-.14.46.64-1.53 26.84-2.17 27.42Zm-3.71-27.04c-.08-.01-7.19 16.86-6.6 16.81.49-.06 4.65-.47 4.66-.46.61-5.45 1.26-10.9 1.94-16.35ZM60.46 91.83c-.18-.08 4.93 10.51 4.66 11.32-.29.83-6.25.99-7 .33-.74-.68-3.74-10.1-3.76-10.09-.02 0-3.25 11.42-4.17 11.65-.86.17-6.69-.98-7.28-2.15-.64-1.21 9.26-24.67 9.81-25.58.61-.26-.13-2.28 7.24-1.66 16.35 2.95 7.4 16.91.49 16.18Zm3.2-6.05c2.4-6-3.18-6.36-3.54-6.1-.38.29-3.71 8.51-3.46 8.98.28.45 5.28 1.03 7.01-2.88ZM83.03 75.6c.52.63 2.45 14.47 2.76 14.63.2.15 6.06-14.4 6.49-14.82.42-.51 4.27-.31 4.64.26.2.48-11.99 27.35-12.48 27.67-.63.28-3.7.03-4.1-.52-.43-.59-2.51-17.42-2.77-17.49-.28-.05-7.14 17.5-7.48 18.2-.42.72-2.8.73-3.16-.37-.52-1.2 10.19-27.39 10.35-27.36 1.4-1.02 5.22-.86 5.77-.19ZM109.66 103.4c-.78.55-5.78.34-6.37-.23-.28-.09 1.17-4.44 1.34-5.94-1.97-.22-5.23-.18-6.52-.01-.55 1.1-2.42 5.06-3.02 5.77-.84.34-3.34 0-4.42-.48-.78-.88 13.07-26.93 14.07-27.25.77-.44 10.08.57 10.55 1.21.37.69-4.92 26.43-5.63 26.92Zm-.25-27.3c-.07-.02-9.27 15.81-8.67 15.84.49 0 4.67.13 4.67.13 1.3-5.33 2.63-10.65 4-15.97ZM120.08 76.18c.69-.25 6.27.35 6.36.92.09.56-1.17 14.48-1.16 14.48-.06-.02 9.13-14.13 10.04-14.15.81-.09 3.32-.03 3.63.72.03.62-16.76 26.06-17.45 26.71-.87.61-4.68-.36-5.09-.89-.52-.5 2.96-27.54 3.68-27.78ZM149.25 106.5c-.82.5-5.8-.09-6.34-.69-.27-.11 1.49-4.34 1.78-5.82-1.95-.37-5.21-.57-6.51-.49-.63 1.05-2.78 4.87-3.44 5.53-.86.28-3.34-.25-4.37-.8-.71-.94 15.02-25.9 16.04-26.14.8-.38 10.02 1.31 10.44 1.99.32.71-6.85 26-7.6 26.43ZM151 79.25c-.07-.03-10.41 15.08-9.82 15.16.49.04 4.65.47 4.65.48 1.69-5.22 3.41-10.43 5.16-15.64ZM169.58 109.91c-1.11-.11-15.33-2.28-16.54-2.96-.22-.15-.4-.37-.42-.49-.08-.33 1.19-3.24 3.05-7 3.48-7.15 9.01-17.18 10-18.4 1.39-.29 5.81 0 6.51.95.55.76-5.82 12.77-10.15 20.21 6.39 1.2 10.48 1.67 10.66 2.3.27 1.08-2.1 4.52-3.12 5.4Z"/><path class="cls-1" d="M8.33 93.42c-3.48 16.16 5.91 8.34 7.67 3.52-.02-.2 3.94 1.14 3.92 1.3C9.9 118.02 1.27 105.18.36 100.98-.79 96.66.27 82.05 11.02 78.27c14.38-1.58 10.49 11.64 10.53 11.61 0 0-4.12.77-4.24.51 1.08-1.95-1.51-16.74-8.98 3.03ZM39.77 103.94c-.7.65-5.7 1.07-6.35.58-.29-.05.6-4.55.58-6.06-1.98.03-5.22.48-6.48.82-.41 1.16-1.76 5.33-2.27 6.1-.79.45-3.32.42-4.45.08-.88-.78 9.56-28.37 10.51-28.81.71-.53 10.08-.71 10.62-.14.46.64-1.53 26.84-2.17 27.42Zm-3.72-27.05c-.08-.01-7.19 16.86-6.6 16.81.49-.06 4.65-.47 4.66-.46.61-5.45 1.26-10.9 1.94-16.35ZM59.46 90.84c-.18-.08 4.93 10.51 4.66 11.32-.29.83-6.25.99-7 .33-.74-.68-3.74-10.1-3.76-10.09-.02 0-3.25 11.42-4.17 11.65-.86.17-6.69-.98-7.28-2.15-.64-1.21 9.26-24.67 9.81-25.58.61-.26-.13-2.28 7.24-1.66 16.35 2.95 7.4 16.91.49 16.18Zm3.21-6.05c2.4-6-3.18-6.36-3.54-6.1-.38.29-3.71 8.51-3.46 8.98.28.45 5.28 1.03 7.01-2.88ZM82.03 74.61c.52.63 2.45 14.47 2.76 14.63.2.15 6.06-14.4 6.49-14.82.42-.51 4.27-.31 4.64.26.2.48-11.99 27.35-12.48 27.67-.63.28-3.7.03-4.1-.52-.43-.59-2.51-17.42-2.77-17.49-.28-.05-7.14 17.5-7.48 18.2-.42.72-2.8.73-3.16-.37-.52-1.2 10.19-27.39 10.35-27.36 1.4-1.02 5.22-.86 5.77-.19ZM108.66 102.4c-.78.55-5.78.34-6.37-.23-.28-.09 1.17-4.44 1.34-5.94-1.97-.22-5.23-.18-6.52-.01-.55 1.1-2.42 5.06-3.02 5.77-.84.34-3.34 0-4.42-.48-.78-.88 13.07-26.93 14.07-27.25.77-.44 10.08.57 10.55 1.21.37.69-4.92 26.43-5.63 26.92Zm-.25-27.3c-.07-.02-9.27 15.81-8.67 15.84.49 0 4.67.13 4.67.13 1.3-5.33 2.63-10.65 4-15.97ZM119.09 75.19c.69-.25 6.27.35 6.36.92.09.56-1.17 14.48-1.16 14.48-.06-.02 9.13-14.13 10.04-14.15.81-.09 3.32-.03 3.63.72.03.62-16.76 26.06-17.45 26.71-.87.61-4.68-.36-5.09-.89-.52-.5 2.96-27.54 3.68-27.78ZM148.25 105.5c-.82.5-5.8-.09-6.34-.69-.27-.11 1.49-4.34 1.78-5.82-1.95-.37-5.21-.57-6.51-.49-.63 1.05-2.78 4.87-3.44 5.53-.86.28-3.34-.25-4.37-.8-.71-.94 15.02-25.9 16.04-26.14.8-.38 10.02 1.31 10.44 1.99.32.71-6.85 26-7.6 26.43ZM150 78.26c-.07-.03-10.41 15.08-9.82 15.16.49.04 4.65.47 4.65.48 1.69-5.22 3.41-10.43 5.16-15.64ZM168.59 108.92c-1.11-.11-15.33-2.28-16.54-2.96-.22-.15-.4-.37-.42-.49-.08-.33 1.19-3.24 3.05-7 3.48-7.15 9.01-17.18 10-18.4 1.39-.29 5.81 0 6.51.95.55.76-5.82 12.77-10.15 20.21 6.39 1.2 10.48 1.67 10.66 2.3.27 1.08-2.1 4.52-3.12 5.4ZM6.3 28.83c.53-.33 6.8-1.11 6.96-.64.17.46 1.43 12.13 1.44 12.13-.04 0 5.14-13.16 5.88-13.34.66-.19 6.16-1.04 6.47-.48.27.54-3.12 23.92-3.53 24.15-.49.19-4.67.9-5.09.62-.46-.32 2.91-17.1 2.48-17.52-.51-.4-6.56 17.49-7.12 18.13-.64.6-3.91.43-4.37.09-.48-.38-.55-14.96-1.07-14.99-.54 0-3.63 15.74-3.66 16.2-.08.42-3.37 1-3.62.56-.35-.48 4.63-24.59 5.23-24.9ZM42.31 48.88c-.61.55-4.89.89-5.44.47-.25-.05.54-3.9.53-5.19-1.69.01-4.46.38-5.54.66-.35.99-1.54 4.55-1.98 5.22-.68.38-2.85.34-3.81.04-.72-.67 8.36-24.25 9.15-24.62.6-.45 8.57-.56 9.03-.07.39.55-1.36 23-1.93 23.49Zm-3.08-23.19c-.05 0-6.19 14.41-5.69 14.38.41-.04 3.98-.37 3.98-.37.55-4.67 1.12-9.34 1.71-14.01ZM57.29 24.39c.47.52 2.64 12.3 2.92 12.42.18.12 4.59-12.57 4.93-12.95.34-.46 3.62-.44 3.95.03.21.41-9.09 23.9-9.53 24.19-.53.26-3.16.17-3.53-.29-.39-.49-2.8-14.82-3.02-14.87-.23-.03-5.45 15.24-5.73 15.85-.33.64-2.37.72-2.72-.2-.47-1.01 7.73-23.82 7.85-23.8 1.15-.92 4.4-.93 4.89-.38ZM79.1 23.59c.88.96-7.07 23.54-8.51 24.11-1.52.55-5.18.15-5.51-.58-.38-.75 6.45-21.59 7.48-23.39 1.16-.41 5.85-.81 6.54-.13ZM102.05 26.77c-.68.3-9.37.12-9.62.24-.22.1-2.32 4.39-2.25 4.5.1.09 6.88-.38 7.43.15.52.52-.58 3.31-1.11 3.81-.53.48-8.22.39-8.46.47-.27.09-5.4 11.38-6.32 11.49-.99.07-4.32.16-5.05-.33-.76-.29-.04-1.83.32-3.13.07-.8 8.2-20.2 9.18-20.62 1.17-.6 15.62-.08 15.93.19.31.25.6 2.87-.05 3.22ZM122.57 27.79c-.62.31-9.34-.21-9.55-.1-.22.12-2.48 4.31-2.41 4.41.1.09 6.85-.17 7.35.45.53.54-.63 3.23-1.18 3.71-.58.46-8.26.09-8.51.2-.26.05-4.14 6.58-3.83 6.96.26.36 8.4-.31 9.2.19.77.44-.2 4.2-1.19 4.26-.96-.02-13.29-.21-13.96-.69-.78-.32-1.5-1.96-1.14-3.21.13-.87 9.39-19.73 10.39-20.08 1.19-.55 14.69.42 14.99.72.31.22.5 2.85-.16 3.18ZM135.28 28.24c-2.53-.45-4.28 4.83-3.42 6.94.6 1.31 5.11 9.73-2.47 13.15-13.74 4.16-12.21-7.28-10.76-8.7 1.33-.27 3.11.15 3.28.74.17.66-.99 6.49 2.93 4.88 4.19-3.25-1.58-6.1-2.45-10.32-.91-4.23 2.3-10.53 9.51-10.59 10.91.25 7.54 9.68 7.26 9.8-.29.14-2.79-.25-3.1-.79 0 0 .71-4.09-.77-5.1Z"/><path class="cls-1" d="M147.47 30.45c-.15-.3-5.62-.23-5.72-1.87-.25-1.11-.39-1.5.25-2.26 1.08-.47 15.61 1.09 17.9 1.99.57.59.28 2.33-.24 2.98-.54.57-6.33-.4-6.77-.07-.46.32 0 .07.41.76.42 1.91-9.09 17.48-9.76 18.08-.74.57-5.08-.19-5.36-1.68-.07-.02 9.33-17.7 9.29-17.93Z"/><path class="cls-1" d="M157.91 52.17c-9.12-5.59 4.82-27.95 15.54-22.42 10.19 5.52-6.87 27.98-15.54 22.42Zm14.24-19.56c-2.47-.6-13.22 12.53-11.25 16.94 4.19 2.93 16-14.92 11.25-16.94Z"/><path class="cls-4" d="M8.29 30.82c.53-.33 6.8-1.11 6.96-.64.17.46 1.43 12.13 1.44 12.13-.04 0 5.14-13.16 5.88-13.34.66-.19 6.16-1.04 6.47-.48.27.54-3.12 23.92-3.53 24.15-.49.19-4.67.9-5.09.62-.46-.32 2.91-17.1 2.48-17.52-.51-.4-6.56 17.49-7.12 18.13-.64.6-3.91.43-4.37.09-.48-.38-.55-14.96-1.07-14.99-.54 0-3.63 15.74-3.66 16.2-.08.42-3.37 1-3.62.56-.35-.48 4.63-24.59 5.23-24.9ZM44.3 50.87c-.61.55-4.89.89-5.44.47-.25-.05.54-3.9.53-5.19-1.69.01-4.46.38-5.54.66-.35.99-1.54 4.55-1.98 5.22-.68.38-2.85.34-3.81.04-.72-.67 8.36-24.25 9.15-24.62.6-.45 8.57-.56 9.03-.07.39.55-1.36 23-1.93 23.49Zm-3.08-23.2c-.05 0-6.19 14.41-5.69 14.38.41-.04 3.98-.37 3.98-.37.55-4.67 1.12-9.34 1.71-14.01ZM59.28 26.37c.47.52 2.64 12.3 2.92 12.42.18.12 4.59-12.57 4.93-12.95.34-.46 3.62-.44 3.95.03.21.41-9.09 23.9-9.53 24.19-.53.26-3.16.17-3.53-.29-.39-.49-2.8-14.82-3.02-14.87-.23-.03-5.45 15.24-5.73 15.85-.33.64-2.37.72-2.72-.2-.47-1.01 7.73-23.82 7.85-23.8 1.15-.92 4.4-.93 4.89-.38ZM81.09 25.58c.88.96-7.07 23.54-8.51 24.11-1.52.55-5.18.15-5.51-.58-.38-.75 6.45-21.59 7.48-23.39 1.16-.41 5.85-.81 6.54-.13ZM104.04 28.76c-.68.3-9.37.12-9.62.24-.22.1-2.32 4.39-2.25 4.5.1.09 6.88-.38 7.43.15.52.52-.58 3.31-1.11 3.81-.53.48-8.22.39-8.46.47-.27.09-5.4 11.38-6.32 11.49-.99.07-4.32.16-5.05-.33-.76-.29-.04-1.83.32-3.13.07-.8 8.2-20.2 9.18-20.62 1.17-.6 15.62-.08 15.93.19.31.25.6 2.87-.05 3.22ZM124.56 29.78c-.62.31-9.34-.21-9.55-.1-.22.12-2.48 4.31-2.41 4.41.1.09 6.85-.17 7.35.45.53.54-.63 3.23-1.18 3.71-.58.46-8.26.09-8.51.2-.26.05-4.14 6.58-3.83 6.96.26.36 8.4-.31 9.2.19.77.44-.2 4.2-1.19 4.26-.96-.02-13.29-.21-13.96-.69-.78-.32-1.5-1.96-1.14-3.21.13-.87 9.39-19.73 10.39-20.08 1.19-.55 14.69.42 14.99.72.31.22.5 2.85-.16 3.18ZM137.27 30.23c-2.53-.45-4.28 4.83-3.42 6.94.6 1.31 5.11 9.73-2.47 13.15-13.74 4.16-12.21-7.28-10.76-8.7 1.33-.27 3.11.15 3.28.74.17.66-.99 6.49 2.93 4.88 4.19-3.25-1.58-6.1-2.45-10.32-.91-4.23 2.3-10.53 9.51-10.59 10.91.25 7.54 9.68 7.26 9.8-.29.14-2.79-.25-3.1-.79 0 0 .71-4.09-.77-5.1Z"/><path class="cls-4" d="M149.46 32.44c-.15-.3-5.62-.23-5.72-1.87-.25-1.11-.39-1.5.25-2.26 1.08-.47 15.61 1.09 17.9 1.99.57.59.28 2.33-.24 2.98-.54.57-6.33-.4-6.77-.07-.46.32 0 .07.41.76.42 1.91-9.09 17.48-9.76 18.08-.74.57-5.08-.19-5.36-1.68-.07-.02 9.33-17.7 9.29-17.93Z"/><path class="cls-4" d="M159.9 54.15c-9.12-5.59 4.82-27.95 15.54-22.42 10.19 5.52-6.87 27.98-15.54 22.42Zm14.24-19.55c-2.47-.6-13.22 12.53-11.25 16.94 4.19 2.93 16-14.92 11.25-16.94Z"/><path class="cls-5" d="M7.29 29.82c.53-.33 6.8-1.11 6.96-.64.17.46 1.43 12.13 1.44 12.13-.04 0 5.14-13.16 5.88-13.34.66-.19 6.16-1.04 6.47-.48.27.54-3.12 23.92-3.53 24.15-.49.19-4.67.9-5.09.62-.46-.32 2.91-17.1 2.48-17.52-.51-.4-6.56 17.49-7.12 18.13-.64.6-3.91.43-4.37.09-.48-.38-.55-14.96-1.07-14.99-.54 0-3.63 15.74-3.66 16.2-.08.42-3.37 1-3.62.56-.35-.48 4.63-24.59 5.23-24.9ZM43.31 49.88c-.61.55-4.89.89-5.44.47-.25-.05.54-3.9.53-5.19-1.69.01-4.46.38-5.54.66-.35.99-1.54 4.55-1.98 5.22-.68.38-2.85.34-3.81.04-.72-.67 8.36-24.25 9.15-24.62.6-.45 8.57-.56 9.03-.07.39.55-1.36 23-1.93 23.49Zm-3.08-23.2c-.05 0-6.19 14.41-5.69 14.38.41-.04 3.98-.37 3.98-.37.55-4.67 1.12-9.34 1.71-14.01ZM58.28 25.38c.47.52 2.64 12.3 2.92 12.42.18.12 4.59-12.57 4.93-12.95.34-.46 3.62-.44 3.95.03.21.41-9.09 23.9-9.53 24.19-.53.26-3.16.17-3.53-.29-.39-.49-2.8-14.82-3.02-14.87-.23-.03-5.45 15.24-5.73 15.85-.33.64-2.37.72-2.72-.2-.47-1.01 7.73-23.82 7.85-23.8 1.15-.92 4.4-.93 4.89-.38ZM80.09 24.58c.88.96-7.07 23.54-8.51 24.11-1.52.55-5.18.15-5.51-.58-.38-.75 6.45-21.59 7.48-23.39 1.16-.41 5.85-.81 6.54-.13ZM103.05 27.76c-.68.3-9.37.12-9.62.24-.22.1-2.32 4.39-2.25 4.5.1.09 6.88-.38 7.43.15.52.52-.58 3.31-1.11 3.81-.53.48-8.22.39-8.46.47-.27.09-5.4 11.38-6.32 11.49-.99.07-4.32.16-5.05-.33-.76-.29-.04-1.83.32-3.13.07-.8 8.2-20.2 9.18-20.62 1.17-.6 15.62-.08 15.93.19.31.25.6 2.87-.05 3.22ZM123.57 28.79c-.62.31-9.34-.21-9.55-.1-.22.12-2.48 4.31-2.41 4.41.1.09 6.85-.17 7.35.45.53.54-.63 3.23-1.18 3.71-.58.46-8.26.09-8.51.2-.26.05-4.14 6.58-3.83 6.96.26.36 8.4-.31 9.2.19.77.44-.2 4.2-1.19 4.26-.96-.02-13.29-.21-13.96-.69-.78-.32-1.5-1.96-1.14-3.21.13-.87 9.39-19.73 10.39-20.08 1.19-.55 14.69.42 14.99.72.31.22.5 2.85-.16 3.18ZM136.27 29.24c-2.53-.45-4.28 4.83-3.42 6.94.6 1.31 5.11 9.73-2.47 13.15-13.74 4.16-12.21-7.28-10.76-8.7 1.33-.27 3.11.15 3.28.74.17.66-.99 6.49 2.93 4.88 4.19-3.25-1.58-6.1-2.45-10.32-.91-4.23 2.3-10.53 9.51-10.59 10.91.25 7.54 9.68 7.26 9.8-.29.14-2.79-.25-3.1-.79 0 0 .71-4.09-.77-5.1Z"/><path class="cls-5" d="M148.47 31.45c-.15-.3-5.62-.23-5.72-1.87-.25-1.11-.39-1.5.25-2.26 1.08-.47 15.61 1.09 17.9 1.99.57.59.28 2.33-.24 2.98-.54.57-6.33-.4-6.77-.07-.46.32 0 .07.41.76.42 1.91-9.09 17.48-9.76 18.08-.74.57-5.08-.19-5.36-1.68-.07-.02 9.33-17.7 9.29-17.93Z"/><path class="cls-5" d="M158.9 53.16c-9.12-5.59 4.82-27.95 15.54-22.42 10.19 5.52-6.87 27.98-15.54 22.42Zm14.25-19.56c-2.47-.6-13.22 12.53-11.25 16.94 4.19 2.93 16-14.92 11.25-16.94Z"/><path class="cls-1" d="M6.3 28.83c.53-.33 6.8-1.11 6.96-.64.17.46 1.43 12.13 1.44 12.13-.04 0 5.14-13.16 5.88-13.34.66-.19 6.16-1.04 6.47-.48.27.54-3.12 23.92-3.53 24.15-.49.19-4.67.9-5.09.62-.46-.32 2.91-17.1 2.48-17.52-.51-.4-6.56 17.49-7.12 18.13-.64.6-3.91.43-4.37.09-.48-.38-.55-14.96-1.07-14.99-.54 0-3.63 15.74-3.66 16.2-.08.42-3.37 1-3.62.56-.35-.48 4.63-24.59 5.23-24.9ZM42.31 48.88c-.61.55-4.89.89-5.44.47-.25-.05.54-3.9.53-5.19-1.69.01-4.46.38-5.54.66-.35.99-1.54 4.55-1.98 5.22-.68.38-2.85.34-3.81.04-.72-.67 8.36-24.25 9.15-24.62.6-.45 8.57-.56 9.03-.07.39.55-1.36 23-1.93 23.49Zm-3.08-23.19c-.05 0-6.19 14.41-5.69 14.38.41-.04 3.98-.37 3.98-.37.55-4.67 1.12-9.34 1.71-14.01ZM57.29 24.39c.47.52 2.64 12.3 2.92 12.42.18.12 4.59-12.57 4.93-12.95.34-.46 3.62-.44 3.95.03.21.41-9.09 23.9-9.53 24.19-.53.26-3.16.17-3.53-.29-.39-.49-2.8-14.82-3.02-14.87-.23-.03-5.45 15.24-5.73 15.85-.33.64-2.37.72-2.72-.2-.47-1.01 7.73-23.82 7.85-23.8 1.15-.92 4.4-.93 4.89-.38ZM79.1 23.59c.88.96-7.07 23.54-8.51 24.11-1.52.55-5.18.15-5.51-.58-.38-.75 6.45-21.59 7.48-23.39 1.16-.41 5.85-.81 6.54-.13ZM102.05 26.77c-.68.3-9.37.12-9.62.24-.22.1-2.32 4.39-2.25 4.5.1.09 6.88-.38 7.43.15.52.52-.58 3.31-1.11 3.81-.53.48-8.22.39-8.46.47-.27.09-5.4 11.38-6.32 11.49-.99.07-4.32.16-5.05-.33-.76-.29-.04-1.83.32-3.13.07-.8 8.2-20.2 9.18-20.62 1.17-.6 15.62-.08 15.93.19.31.25.6 2.87-.05 3.22ZM122.57 27.79c-.62.31-9.34-.21-9.55-.1-.22.12-2.48 4.31-2.41 4.41.1.09 6.85-.17 7.35.45.53.54-.63 3.23-1.18 3.71-.58.46-8.26.09-8.51.2-.26.05-4.14 6.58-3.83 6.96.26.36 8.4-.31 9.2.19.77.44-.2 4.2-1.19 4.26-.96-.02-13.29-.21-13.96-.69-.78-.32-1.5-1.96-1.14-3.21.13-.87 9.39-19.73 10.39-20.08 1.19-.55 14.69.42 14.99.72.31.22.5 2.85-.16 3.18ZM135.28 28.24c-2.53-.45-4.28 4.83-3.42 6.94.6 1.31 5.11 9.73-2.47 13.15-13.74 4.16-12.21-7.28-10.76-8.7 1.33-.27 3.11.15 3.28.74.17.66-.99 6.49 2.93 4.88 4.19-3.25-1.58-6.1-2.45-10.32-.91-4.23 2.3-10.53 9.51-10.59 10.91.25 7.54 9.68 7.26 9.8-.29.14-2.79-.25-3.1-.79 0 0 .71-4.09-.77-5.1Z"/><path class="cls-1" d="M147.47 30.45c-.15-.3-5.62-.23-5.72-1.87-.25-1.11-.39-1.5.25-2.26 1.08-.47 15.61 1.09 17.9 1.99.57.59.28 2.33-.24 2.98-.54.57-6.33-.4-6.77-.07-.46.32 0 .07.41.76.42 1.91-9.09 17.48-9.76 18.08-.74.57-5.08-.19-5.36-1.68-.07-.02 9.33-17.7 9.29-17.93Z"/><path class="cls-1" d="M157.91 52.17c-9.12-5.59 4.82-27.95 15.54-22.42 10.19 5.52-6.87 27.98-15.54 22.42Zm14.24-19.56c-2.47-.6-13.22 12.53-11.25 16.94 4.19 2.93 16-14.92 11.25-16.94Z"/><path class="cls-2" d="M26.62 69.92c-.11.01-.25-.02-.41-.11-.17-.08-.3-.17-.39-.25-.19-.18-.32-.41-.41-.69-.09-.28-.15-.58-.19-.92-.03-.28-.06-.59-.08-.92-.02-.33-.02-.69 0-1.07-.31.45-.66.89-1.06 1.32-.4.44-.81.8-1.24 1.1-.43.3-.84.47-1.25.52-1.02.13-1.6-.35-1.74-1.42-.14-1.12.12-2.24.79-3.38.34-.56.73-1.11 1.18-1.64.45-.53.94-.98 1.48-1.34.53-.36 1.07-.58 1.63-.64.41-.05.8.07 1.15.34.02-.06.05-.15.08-.28.04-.13.09-.29.17-.49.25-.74.54-1.51.86-2.32.32-.81.61-1.48.88-2.01.3-.59.62-.91.94-.94.22-.02.35.13.39.47.06.58-.36 2-1.25 4.25-.06.13-.15.36-.29.7-.14.34-.3.72-.48 1.16-.18.44-.37.87-.56 1.3-.19.43-.36.82-.51 1.15-.15.34-.26.57-.33.7-.08.62-.13 1.21-.15 1.77-.02.56 0 1.12.07 1.7.02.22.06.41.1.59.04.18.11.32.2.42.08.07.16.13.25.17.09.04.19.07.3.1.17.02.26.11.28.26.03.24-.1.38-.39.41Zm-5.27-1.61c.4-.05.8-.23 1.21-.55.41-.32.79-.68 1.15-1.09.32-.37.61-.74.87-1.12.26-.38.5-.77.72-1.16.06-.48.13-.96.22-1.44.09-.47.2-.95.33-1.43-.26-.31-.59-.45-.99-.4-.41.05-.86.25-1.32.61-.47.36-.91.79-1.31 1.29-.41.5-.75.97-1.03 1.42-.58.99-.8 1.99-.67 2.99.08.63.36.92.83.86Zm5.28-6.95c.43-.94.8-1.81 1.12-2.61.32-.81.57-1.56.75-2.26-.48.76-.87 1.55-1.16 2.38-.29.82-.53 1.66-.71 2.5ZM29.26 68.01c-.79.09-1.23-.24-1.31-.98-.05-.49 0-1.02.19-1.61.18-.59.44-1.17.8-1.75.35-.58.76-1.11 1.23-1.6.46-.49.95-.9 1.46-1.22.51-.32 1.02-.5 1.52-.55.88-.09 1.37.3 1.45 1.15.05.55-.06.84-.33.87-.25.02-.38-.08-.41-.31 0-.09 0-.19.04-.3.04-.11.05-.22.04-.34-.04-.38-.32-.54-.84-.49-.84.08-1.84.82-2.97 2.21-.27.34-.53.74-.77 1.19-.24.45-.43.9-.57 1.34-.14.44-.19.86-.15 1.23.04.36.26.52.67.48.36-.04.72-.19 1.1-.45.38-.26.71-.52.99-.78.56-.51 1.11-1.18 1.66-2.01.09-.12.19-.27.33-.46.13-.19.29-.4.46-.64.06-.07.14-.12.24-.13.22-.02.34.08.36.29-.22.41-.45.82-.67 1.23-.45.81-.64 1.46-.6 1.94.03.35.22.51.57.48.29-.03.59-.13.92-.32.33-.18.59-.36.8-.53.41-.33.84-.72 1.28-1.19.44-.47.86-.94 1.26-1.41.05-.06.13-.09.24-.1.21-.02.32.05.33.22.01.15-.07.33-.24.53-.5.59-.95 1.1-1.35 1.52-.4.43-.79.78-1.16 1.06-.25.17-.55.36-.92.56-.37.2-.79.32-1.29.37-.67.07-1.04-.25-1.11-.95-.03-.27-.02-.5.03-.68-1.13 1.3-2.21 2.01-3.28 2.12Z"/><path class="cls-2" d="M38.12 67.6c-.76.07-1.17-.14-1.22-.64-.03-.31.05-.63.25-.96.2-.33.44-.64.73-.93.29-.29.57-.51.83-.67.08-.05.19-.1.33-.15.14-.05.26-.08.36-.09.11 0 .17.03.18.11 0 .07-.06.15-.21.24-.6.35-1.06.75-1.37 1.2-.31.44-.45.79-.43 1.05.02.24.25.35.67.31.35-.03.73-.16 1.13-.37.4-.21.78-.48 1.13-.79.35-.32.64-.65.86-.99.22-.35.32-.67.29-.96-.02-.2-.1-.38-.24-.53-.14-.15-.36-.25-.66-.31-.47-.1-.93-.19-1.4-.29-.35-.08-.61-.2-.78-.36-.17-.16-.26-.35-.28-.57-.04-.41.09-.78.37-1.14.28-.35.65-.64 1.1-.87.45-.23.9-.36 1.35-.4.44-.04.84.04 1.19.22s.54.45.57.8c.02.2-.03.4-.13.58-.1.19-.23.28-.38.3-.23.02-.36-.07-.38-.26 0-.07.03-.16.09-.26.07-.11.1-.21.09-.3-.03-.41-.37-.58-1-.53-.35.03-.68.13-1.01.3-.33.17-.59.38-.79.63-.2.25-.29.51-.26.78.02.27.32.46.88.58.45.1.9.19 1.36.29.41.09.7.23.87.43.17.2.26.42.28.68.05.61-.28 1.27-.97 1.98-1.13 1.17-2.25 1.81-3.38 1.91ZM49.14 66.55c-.22.02-.33-.06-.35-.24 0-.08.01-.16.05-.25.04-.08.07-.15.1-.21.53-1.29 1.07-2.58 1.62-3.87.69-1.65 1.04-2.56 1.03-2.74-.01-.19.08-.29.27-.3.26-.02.4.1.42.36 0 .14-.04.36-.15.66-.11.31-.24.66-.41 1.07-.29.73-.53 1.29-.72 1.68.38-.5.77-.98 1.17-1.42.4-.45.81-.87 1.23-1.28 1.24-1.21 2.23-1.83 2.93-1.86.49-.03.74.18.76.63.02.43-.11.66-.4.67-.14 0-.25-.1-.33-.33-.05-.16-.15-.24-.3-.23-.24.01-.68.29-1.33.83-.71.59-1.43 1.28-2.13 2.07-.7.79-1.44 1.79-2.19 3-.31.5-.62.99-.93 1.49-.05.07-.1.13-.14.18-.04.05-.11.08-.21.09ZM62.17 65.97c-.67.03-1.03-.43-1.07-1.4-.02-.51.07-1.14.28-1.89-1.57 1.99-2.82 3.01-3.76 3.06-.78.04-1.2-.4-1.25-1.34-.02-.35.01-.78.1-1.28.09-.5.22-1.02.39-1.56s.36-1.05.57-1.52c.21-.47.43-.86.65-1.16.08-.1.18-.15.3-.16.07 0 .14.02.21.06.07.04.11.11.11.21 0 .08-.04.2-.13.35-.57 1.04-.96 1.93-1.19 2.69-.28.87-.41 1.62-.37 2.24.03.58.2.87.5.85.19-.01.44-.12.74-.33.3-.21.62-.46.94-.75.32-.29.6-.57.84-.83.65-.75 1.23-1.55 1.75-2.39.23-.39.44-.77.62-1.14.18-.37.35-.75.5-1.15.06-.15.12-.27.16-.34.05-.08.12-.12.21-.12.29-.01.44.09.45.31 0 .14-.04.23-.13.29-1.29 2.87-1.9 4.83-1.85 5.89.01.28.05.48.11.6.06.11.16.17.3.16.19 0 .48-.14.88-.41.39-.26.85-.65 1.38-1.18.69-.68 1.39-1.36 2.09-2.04.11-.11.21-.17.3-.17.22 0 .33.09.34.29 0 .18-.41.67-1.25 1.47-.36.35-.68.65-.95.89-.28.24-.54.46-.78.64-.45.35-.85.62-1.2.82-.35.2-.62.3-.81.31Z"/><path class="cls-2" d="M66.93 65.29c-.79.03-1.2-.33-1.23-1.07-.02-.49.08-1.02.3-1.59.22-.57.53-1.13.92-1.68s.84-1.06 1.34-1.51c.5-.46 1.01-.83 1.54-1.11.53-.28 1.05-.43 1.55-.44.89-.02 1.34.39 1.36 1.25.01.56-.12.84-.39.84-.25 0-.38-.11-.38-.34 0-.09.02-.19.06-.3.05-.1.07-.22.06-.34-.01-.38-.28-.56-.81-.55-.85.02-1.89.69-3.12 1.99-.29.32-.58.7-.85 1.13-.27.43-.5.86-.67 1.3-.17.43-.25.84-.23 1.22.01.37.23.54.64.53.36-.01.73-.14 1.13-.37.4-.23.74-.47 1.04-.71.59-.47 1.19-1.1 1.8-1.89.09-.11.21-.26.36-.44s.31-.38.5-.6c.07-.07.15-.11.25-.11.22 0 .33.1.34.32-.25.39-.5.79-.75 1.18-.5.77-.74 1.41-.73 1.89.01.35.19.52.53.51.29 0 .6-.09.94-.25.34-.16.62-.31.83-.47.43-.3.88-.66 1.36-1.1.47-.44.92-.88 1.36-1.32.05-.05.14-.08.25-.09.21 0 .31.08.31.24 0 .15-.09.32-.28.51-.54.55-1.03 1.03-1.46 1.42-.43.4-.84.72-1.23.98-.26.16-.58.32-.95.49-.38.17-.82.27-1.31.28-.67.02-1.02-.32-1.04-1.03 0-.27.02-.5.08-.67-1.21 1.22-2.35 1.85-3.42 1.89Z"/><path class="cls-2" d="M75.79 65.5c-.77.02-1.15-.23-1.17-.73 0-.31.1-.63.32-.94.22-.32.48-.61.8-.87.31-.26.6-.47.88-.61.08-.04.19-.09.34-.13.14-.04.26-.07.36-.07.11 0 .17.04.17.12 0 .07-.07.14-.22.23-.63.31-1.11.68-1.45 1.1-.34.42-.51.76-.5 1.02 0 .24.22.36.64.35.36 0 .74-.1 1.16-.29.41-.18.81-.42 1.18-.71.37-.29.68-.6.92-.93.24-.33.36-.64.36-.94 0-.2-.07-.39-.2-.55-.13-.16-.35-.28-.64-.36-.46-.13-.91-.26-1.37-.39-.35-.1-.6-.24-.75-.41-.16-.17-.23-.37-.24-.59 0-.41.14-.78.45-1.11.31-.33.69-.6 1.16-.79.47-.2.93-.3 1.37-.3.44 0 .83.09 1.17.3.34.21.5.49.51.84 0 .2-.06.39-.17.57-.12.18-.25.27-.4.27-.23 0-.35-.09-.36-.28 0-.07.04-.15.11-.26.07-.1.11-.2.11-.3 0-.41-.33-.61-.96-.6-.35 0-.69.08-1.03.23-.34.15-.62.34-.83.57-.22.23-.32.49-.32.76s.28.48.84.64c.44.13.89.26 1.33.39.4.12.68.28.83.49.15.21.23.44.24.7 0 .61-.36 1.25-1.11 1.91-1.21 1.09-2.37 1.64-3.51 1.67ZM79.56 68.53c-.24 0-.37-.1-.37-.32 0-.07.03-.13.08-.17.05-.05.15-.12.28-.22.62-.46 1.15-.93 1.59-1.42.44-.49.72-1.03.84-1.62-.08-.01-.17-.06-.25-.15-.08-.09-.13-.19-.13-.29 0-.43.19-.65.57-.66.23 0 .4.07.51.2.1.14.16.31.18.53 0 .31-.09.66-.28 1.03-.19.37-.43.75-.73 1.13-.3.38-.61.72-.95 1.04-.34.32-.65.57-.93.76-.05.04-.12.08-.19.11s-.15.05-.21.05ZM91.57 65.42c-.77 0-1.15-.26-1.14-.76 0-.31.12-.62.35-.93.23-.31.5-.59.82-.85.32-.25.62-.45.89-.58.08-.04.2-.08.34-.12.15-.04.27-.06.36-.06.11 0 .16.04.16.12 0 .07-.08.14-.23.22-.64.29-1.13.64-1.49 1.05-.35.41-.53.75-.53 1 0 .24.21.37.63.37.36 0 .74-.08 1.16-.25.42-.17.82-.4 1.2-.68s.7-.58.95-.9c.25-.32.38-.63.39-.93 0-.2-.06-.39-.19-.55-.13-.16-.34-.29-.63-.38-.45-.14-.91-.28-1.36-.43-.34-.11-.59-.26-.74-.44-.15-.18-.22-.38-.22-.59 0-.41.16-.77.48-1.09.32-.32.71-.58 1.18-.76.47-.18.93-.27 1.38-.26.44 0 .83.12 1.16.34.33.22.49.5.48.85 0 .2-.07.39-.19.57-.12.17-.26.26-.41.26-.24 0-.35-.1-.35-.29 0-.07.04-.15.12-.25.08-.1.12-.2.12-.29 0-.41-.31-.62-.95-.63-.35 0-.69.06-1.03.2-.34.14-.63.32-.85.55-.22.23-.34.48-.34.75s.27.49.82.66c.44.14.88.28 1.32.43.4.13.67.3.82.51.15.21.22.45.21.71-.01.61-.4 1.23-1.17 1.87-1.24 1.05-2.42 1.57-3.56 1.56ZM99.2 64.77c-1.11-.03-1.65-.65-1.63-1.89.01-.57.16-1.16.45-1.78.29-.62.67-1.19 1.14-1.72.47-.53.99-.95 1.56-1.27.57-.32 1.15-.48 1.73-.46.51.02.88.22 1.11.6.22.39.33.81.31 1.27-.02.61-.16 1.23-.43 1.85-.27.62-.62 1.19-1.06 1.71-.44.52-.93.93-1.48 1.24-.54.31-1.11.46-1.7.45Zm-.01-.65c.08 0 .13 0 .14-.02.54-.05 1.03-.23 1.5-.53.46-.3.87-.68 1.22-1.14.35-.46.62-.96.82-1.49.2-.54.3-1.07.32-1.6 0-.31-.07-.56-.25-.74-.17-.18-.4-.28-.68-.28-.4-.01-.83.14-1.29.45-.46.31-.89.72-1.3 1.21-.41.49-.74 1.01-1 1.55s-.4 1.03-.4 1.47c-.02.73.29 1.11.92 1.12ZM110.07 65.93c-.67-.03-.98-.53-.94-1.49.02-.51.17-1.13.45-1.85-1.75 1.84-3.08 2.75-4.02 2.71-.78-.03-1.15-.51-1.12-1.44.01-.35.08-.77.22-1.27.13-.49.31-1 .53-1.52.22-.52.45-1.01.71-1.46.25-.45.5-.82.75-1.09.09-.09.19-.14.32-.13.07 0 .14.03.21.08.07.05.1.12.1.22 0 .08-.06.19-.16.34-.66.98-1.14 1.84-1.42 2.57-.36.84-.55 1.58-.57 2.2-.02.58.12.88.42.89.19 0 .45-.08.77-.26s.66-.4 1-.66c.35-.26.65-.51.91-.75.72-.69 1.37-1.43 1.96-2.22.27-.37.51-.73.72-1.08.22-.35.42-.72.6-1.1.08-.15.14-.25.19-.33.05-.07.13-.11.22-.1.29.01.43.13.42.35 0 .14-.06.23-.16.28-1.55 2.74-2.33 4.64-2.37 5.7-.01.28 0 .49.06.6.05.12.14.18.28.19.19 0 .49-.1.91-.33.42-.23.91-.58 1.48-1.05.75-.62 1.51-1.23 2.26-1.84.12-.1.22-.15.32-.15.22.01.32.12.31.32 0 .18-.47.63-1.37 1.35-.39.32-.73.59-1.03.8-.3.22-.58.41-.83.57-.48.3-.9.54-1.27.7-.36.17-.64.25-.83.24ZM119.09 66.41c-.23-.01-.34-.13-.33-.35 0-.01.09-.18.28-.49.18-.31.45-.78.79-1.4.4-.7.79-1.4 1.19-2.11.48-.85.84-1.53 1.06-2.03.22-.5.34-.83.35-.98.01-.22.13-.32.35-.3.22.01.32.13.31.35-.01.18-.09.45-.23.81-.14.36-.37.83-.67 1.39-.4.76-.81 1.52-1.21 2.29 3.1-3.39 5.43-5.01 6.9-4.9.28.02.48.15.62.38.13.24.19.49.17.76-.05.65-.62 1.74-1.69 3.28.78-.68 1.58-1.35 2.39-2.03.81-.68 1.63-1.34 2.45-1.99.21-.16.38-.23.5-.22.17.01.3.1.4.27.1.16.14.34.12.51-.01.14-.09.3-.23.49-.21.28-.4.62-.59 1.02-.19.4-.4.85-.63 1.35-.27.56-.47 1.06-.6 1.48-.13.42-.21.77-.23 1.04-.03.34.03.59.18.76.15.17.31.26.47.27.29.02.61-.02.96-.14.35-.12.65-.24.88-.37.46-.25.95-.56 1.47-.94.52-.38 1.02-.77 1.5-1.16.06-.05.14-.07.26-.06.21.02.3.11.29.27-.01.15-.13.31-.34.48-.6.49-1.14.91-1.61 1.25-.47.35-.92.62-1.34.83-.27.13-.6.25-.98.38s-.79.18-1.21.14c-.4-.03-.72-.18-.96-.45-.25-.27-.34-.8-.27-1.59.03-.31.11-.67.25-1.09.14-.42.35-.88.61-1.39.44-.82.87-1.64 1.31-2.46-1.07.89-2.14 1.78-3.2 2.68-.37.31-.68.57-.91.79-.24.21-.43.39-.58.53-.28.25-.53.5-.75.74-.22.24-.4.45-.55.63-.11.14-.22.21-.35.2-.23-.02-.34-.12-.33-.31.03-.42.48-1.36 1.37-2.82.89-1.46 1.34-2.33 1.37-2.63.01-.14-.14-.21-.44-.24-1.23-.09-3.59 1.71-6.97 5.45-.28.35-.75.87-1.4 1.56-.04.05-.11.07-.21.07Z"/><path class="cls-2" d="M137.03 67.49c-.57-.05-1-.29-1.3-.71-.29-.42-.41-.92-.36-1.48.09-.97.51-1.94 1.27-2.91.21-.27.44-.53.7-.78.26-.25.54-.5.84-.73.45-.35.92-.63 1.4-.84.48-.21.94-.3 1.37-.25.71.07 1.03.43.96 1.08-.08.81-.64 1.49-1.67 2.06-.95.5-1.86.72-2.73.63-.15-.01-.28-.04-.4-.07-.11-.03-.22-.06-.31-.1-.16.24-.32.56-.46.96-.15.39-.24.74-.26 1.04-.08.89.27 1.37 1.06 1.45.64.06 1.26 0 1.86-.16.6-.17 1.32-.52 2.18-1.06.53-.33.93-.59 1.2-.8.27-.2.56-.42.88-.64.09-.04.17-.06.24-.06.07 0 .14.03.2.08s.09.11.08.19c-.02.15-.18.34-.48.58-.26.19-.53.39-.81.6-.29.21-.73.49-1.33.85-.65.4-1.34.69-2.08.87-.74.19-1.42.25-2.04.19Zm.42-4.6c.44.04.87.01 1.28-.08.41-.1.81-.25 1.19-.48.86-.5 1.31-1.01 1.37-1.52.02-.23-.11-.36-.4-.39-.55-.06-1.23.21-2.03.8-.39.29-.71.55-.96.8-.25.24-.49.51-.71.8.08.04.17.06.26.07Z"/><path class="cls-2" d="M147.85 68.96c-.67-.08-.95-.59-.84-1.55.06-.51.25-1.12.58-1.82-1.88 1.71-3.27 2.52-4.21 2.42-.78-.08-1.12-.59-1.02-1.52.04-.35.14-.77.31-1.25.17-.48.38-.97.64-1.48.26-.5.52-.97.81-1.41.28-.43.56-.78.82-1.04.09-.09.2-.12.33-.11.07 0 .14.04.2.09.06.05.09.13.08.22 0 .08-.07.19-.18.33-.73.93-1.26 1.75-1.6 2.47-.42.81-.66 1.53-.73 2.15-.06.58.06.89.36.92.19.02.45-.05.79-.2.33-.15.68-.35 1.05-.59s.69-.47.96-.68c.76-.64 1.47-1.33 2.11-2.07.29-.35.56-.69.8-1.02.24-.33.47-.69.68-1.06.09-.14.16-.24.22-.31s.13-.1.23-.09c.29.03.42.16.4.38-.02.13-.08.22-.18.27-1.74 2.62-2.65 4.46-2.78 5.51-.03.28-.03.49.01.61s.13.19.27.21c.19.02.5-.06.93-.26.43-.2.95-.51 1.56-.94.8-.56 1.59-1.12 2.39-1.68.12-.09.23-.13.33-.12.22.03.32.14.29.34-.02.18-.51.59-1.47 1.25-.41.29-.77.53-1.09.73-.31.19-.6.36-.87.51-.5.27-.94.47-1.32.61-.38.14-.66.2-.85.18ZM73.9 18.37c-.12.01-.24-.02-.37-.11s-.2-.19-.21-.29c-.01-.1 0-.22.03-.36.03-.13.07-.29.11-.46.58-2.85 1.55-5.58 2.97-8.15 1.78-3.21 3.36-5.28 4.53-6.25.32-.25.53-.42.65-.49.11-.07.21-.11.3-.11.42-.01.63.14.64.45v.93c0 .44 0 .97.02 1.58.04 1.3.23 2.85.56 4.68.33 1.82.79 3.76 1.36 5.82 1.03-1.42 1.97-2.69 2.8-3.84.83-1.14 1.58-2.22 2.24-3.24.48-.74.99-1.51 1.52-2.31s1.04-1.56 1.52-2.29.88-1.38 1.18-1.96c.31-.58.48-1.01.5-1.32.01-.21.14-.31.37-.29.35.02.52.18.5.47-.03.44-.22.96-.55 1.56-.33.6-.83 1.37-1.49 2.32-.65.94-1.49 2.15-2.48 3.64-.79 1.21-1.47 2.23-2.04 3.07-.57.84-1.16 1.66-1.76 2.47-.25.32-.55.72-.89 1.21-.34.49-.73 1.07-1.16 1.74-.1.18-.24.27-.41.28-.12 0-.21-.03-.28-.11-.06-.07-.13-.21-.19-.4-.28-.82-.55-1.73-.8-2.73-.26-1-.49-2.02-.71-3.07-.21-1.05-.39-2.07-.53-3.07s-.22-1.92-.26-2.76c-.02-.53-.04-1.05-.06-1.58-1.35 1.23-2.83 3.21-4.32 5.96-.82 1.49-1.45 2.92-1.92 4.29s-.81 2.75-1.05 4.13c-.08.39-.18.59-.3.6ZM93.96 16.66c-1.24-.09-1.82-.81-1.74-2.18.04-.63.23-1.29.59-1.96.36-.67.83-1.29 1.41-1.84s1.22-.99 1.91-1.31c.7-.32 1.39-.44 2.08-.36.61.07 1.03.33 1.25.78.23.45.31.93.24 1.44-.08.67-.31 1.34-.68 2-.37.66-.83 1.26-1.37 1.79-.55.53-1.13.95-1.77 1.25-.63.3-1.27.43-1.93.38Zm.03-.73c.09 0 .15 0 .16-.01.61-.03 1.18-.19 1.72-.49s1.03-.68 1.47-1.16c.44-.48.8-1 1.07-1.58.27-.58.45-1.15.52-1.74.04-.34-.03-.63-.22-.85-.19-.22-.45-.35-.77-.38-.47-.05-1 .08-1.56.39s-1.1.73-1.6 1.25-.92 1.08-1.24 1.67c-.33.59-.5 1.13-.53 1.61-.05.81.28 1.24.98 1.29Z"/><path class="cls-4" d="M61.31 3.53c-.25-.14-1.68-.09-2.64-.17-.16-.06-1.7-.33-.76-.49 3.51-.86 8.06-.63 10.19 2.77 1.83 2.78.37 6.09-2.09 7.9-2.99 2.25-7.2 2.3-10.74 1.89-3.62-.4-7-1.77-10.31-3.24-6.2-2.64-12.38-6-19.15-6.92-.65-.1-1.2-.13-1.69-.17-.24.02-.47.04-.63.06.08 0 .32-.03-.08 0-.08 0-.8 0-.32-.05-.16.01-.24.02-.39.03-.55.05-1.11.1-1.81.24-.62.13-1.25.27-1.79.47-2.72.79-5.3 2.21-7.18 4.29-2.18 2.34-3.25 5.62-1.1 8.29.98 1.19 2.33 2.02 3.71 2.38 1.56.5 2.42.35 3.92.21.86-.16 2.12-.27 2.95.06.82.25-.52.44-.76.46-2.36.29-4.74.41-7.06.22-1.84-.16-3.79-.62-5.4-1.68-1.27-.92-2.43-2.25-2.79-3.73-.39-1.72.26-3.44 1.16-4.88 3.46-5 9.83-6.75 15.62-7.02 3.41-.14 6.77.12 10.02.87 3.41.81 6.62 2.05 9.77 3.44 3.22 1.39 6.38 2.86 9.67 4.17 1.65.65 3.3 1.3 5 1.63.41.12.9.24 1.3.28.08 0 .8 0 .4.04.47-.04 1.02-.17 1.48-.37 2.54-.94 4.8-3.36 4.79-6.15.04-1.36-.55-2.66-1.51-3.61-.52-.51-1.12-.94-1.78-1.28Z"/><path class="cls-4" d="M59.71 7.49c.52.43.69.99.63 1.73-.03.42-.1 1.03-.45 1.41-.2.24-.75.48-1.35.53-.54.05-1.09-.06-1.5-.41-.52-.46-.72-1.37-.72-2.07.02-.51.15-.87.32-1.05.8-.67 2.14-1.01 3.07-.14ZM17.5 13.3c.52.43.69.99.63 1.73-.03.42-.1 1.03-.45 1.41-.2.24-.75.48-1.35.53-.54.05-1.09-.06-1.5-.41-.52-.46-.72-1.37-.72-2.07.02-.51.15-.87.32-1.05.8-.67 2.14-1.02 3.07-.14ZM111.15 4.8c-.96.95-1.55 2.25-1.51 3.61 0 2.78 2.25 5.21 4.79 6.15.46.2 1.01.33 1.48.37-.39-.03.32-.05.4-.04.4-.04.89-.16 1.3-.28 1.7-.33 3.35-.98 5-1.63 3.3-1.3 6.45-2.78 9.67-4.17 3.15-1.4 6.36-2.63 9.77-3.44 3.25-.75 6.61-1.01 10.02-.87 5.79.27 12.16 2.02 15.62 7.02.91 1.43 1.55 3.16 1.16 4.88-.37 1.48-1.52 2.81-2.79 3.73-1.6 1.05-3.55 1.52-5.4 1.68-2.32.19-4.7.07-7.06-.22-.24-.02-1.57-.22-.76-.46.82-.33 2.09-.22 2.95-.06 1.5.13 2.36.29 3.92-.21 1.38-.36 2.73-1.19 3.71-2.38 2.14-2.68 1.08-5.95-1.1-8.29-1.89-2.07-4.47-3.49-7.18-4.29-.54-.21-1.16-.34-1.79-.47-.7-.14-1.26-.19-1.81-.24-.16-.01-.24-.02-.4-.03.47.04-.24.06-.32.05-.39-.03-.16-.01-.08 0-.16-.01-.39-.03-.63-.06-.48.04-1.04.07-1.69.17-6.76.92-12.95 4.28-19.15 6.92-3.31 1.46-6.69 2.84-10.31 3.24-3.54.41-7.75.36-10.73-1.89-2.47-1.81-3.93-5.12-2.09-7.9 2.13-3.39 6.68-3.63 10.19-2.77.94.16-.59.43-.76.49-.96.07-2.39.03-2.64.17-.67.34-1.26.77-1.78 1.28Z"/><path class="cls-4" d="M117.6 7.63c.18.17.3.54.32 1.05 0 .7-.2 1.61-.72 2.07-.41.35-.96.46-1.5.41-.6-.05-1.15-.29-1.35-.53-.35-.38-.42-.99-.45-1.41-.06-.74.11-1.3.63-1.73.94-.87 2.27-.53 3.07.14ZM159.81 13.44c.18.17.3.54.32 1.05 0 .7-.2 1.61-.72 2.07-.41.35-.96.46-1.5.41-.6-.05-1.15-.29-1.35-.53-.35-.38-.42-.99-.45-1.41-.06-.74.11-1.3.63-1.73.94-.87 2.27-.53 3.07.14Z"/><path class="cls-3" d="M12.7 65.28c.25.08.2.55-.05.6-1.36.28-2.59 1.18-3.37 2.34-.86 1.33-1.16 2.92-1.08 4.48 0 .33-.35.45-.43.1-.33-1.58-.65-3.22-1.53-4.6-.75-1.13-1.99-2.16-3.34-2.41h-.03c-.28.03-.28-.58 0-.65 1.23-.28 2.44-.63 3.37-1.56s1.31-2.31 1.31-3.65v-.35c0-.4.4-.4.43 0 .03.18.03.35.03.53.05 1.26.3 2.54 1.23 3.45.96.93 2.24 1.33 3.47 1.74Zm-1.03.25c-1.06-.4-2.09-.91-2.84-1.74-.53-.6-.86-1.33-1.03-2.06-.23.83-.58 1.63-1.16 2.29-.7.78-1.74 1.33-2.77 1.61.35.1.68.25.98.45.63.4 1.16.96 1.58 1.58.7 1.03 1.11 2.21 1.38 3.42.15-1.18.5-2.34 1.16-3.32.65-1.01 1.58-1.81 2.69-2.24Z"/><path class="cls-3" d="M8.83 63.8c.75.83 1.79 1.33 2.84 1.74-1.11.43-2.04 1.23-2.69 2.24-.65.98-1.01 2.14-1.16 3.32-.28-1.21-.68-2.39-1.38-3.42-.43-.63-.96-1.18-1.58-1.58-.3-.2-.63-.35-.98-.45 1.03-.28 2.06-.83 2.77-1.61.58-.65.93-1.46 1.16-2.29.18.73.5 1.46 1.03 2.06Z"/><path class="cls-4" d="M44.34 112.95s-3.45.28-9.44 3.56c-2.2 1.19-7.86 2.66-9.67 3.17-7.18 2.04-14.42.85-19.28-.45l-4.24-.79-1.36-1.07s9.95 2.66 21.09.85c2.32-.4 8.82-2.43 10.35-3.11 5.6-2.37 8.37-4.07 10.4-3.39l2.15 1.24Zm31.94.62 1.36 1.07s-9.95-2.66-21.09-.85c-2.32.4-8.76 2.43-10.35 3.11-5.6 2.37-8.31 4.07-10.4 3.39l-2.15-1.24s3.51-.28 9.44-3.56c2.2-1.19 7.86-2.66 9.67-3.17 7.18-2.04 14.42-.85 19.34.45l4.18.79ZM100.41 112.78c4.92-1.3 12.16-2.49 19.34-.45 1.81.51 7.46 1.98 9.67 3.17 5.94 3.28 9.44 3.56 9.44 3.56l-2.15 1.24c-2.09.68-4.81-1.02-10.4-3.39-1.58-.68-8.03-2.71-10.35-3.11-11.14-1.81-21.09.85-21.09.85l1.36-1.07 4.18-.79Zm29.91-1.07c2.04-.68 4.81 1.02 10.4 3.39 1.53.68 8.03 2.71 10.35 3.11 11.14 1.81 21.09-.85 21.09-.85l-1.36 1.07-4.24.79c-4.86 1.3-12.1 2.49-19.28.45-1.81-.51-7.46-1.98-9.67-3.17-5.99-3.28-9.44-3.56-9.44-3.56l2.15-1.24Z"/><path class="cls-1" d="M92.62 112.05c.11 0 .21.09.21.2s-.09.21-.21.21v-.2l-.14-.14s.09-.06.14-.06ZM92.62 117.32c.11 0 .21.09.21.21s-.09.2-.21.2c-.06 0-.11-.02-.14-.06l.14-.14v-.21Z"/><path class="cls-1" d="M92.62 117.32v.21l-.19-.08c.03-.08.1-.13.19-.13ZM92.62 112.25v.2c-.08 0-.16-.05-.19-.13l.19-.08Z"/><path class="cls-1" d="m92.48 112.11.14.14-.19.08s-.02-.05-.02-.08c0-.06.02-.11.06-.14ZM92.62 117.53l-.14.14s-.06-.09-.06-.14c0-.03 0-.05.02-.08l.19.08Z"/><path class="cls-3" d="m92.48 117.67-3.44 3.44s-.09-.06-.14-.06c-.03 0-.05 0-.08.02l-2.25-5.43c.2-.08.36-.24.44-.44l5.43 2.25s-.02.05-.02.08c0 .06.02.11.06.14Z"/><path class="cls-4" d="M92.48 112.11s-.06.09-.06.14c0 .03 0 .05.02.08l-5.43 2.25c-.08-.2-.24-.36-.44-.44l2.25-5.43s.05.02.08.02c.06 0 .11-.02.14-.06l3.44 3.44Z"/><path class="cls-1" d="M89.1 108.52c0 .06-.02.11-.06.14l-.14-.14h-.21c0-.11.09-.2.21-.2s.2.09.2.2ZM89.04 121.12s.06.09.06.14c0 .11-.09.21-.2.21s-.21-.09-.21-.21h.21l.14-.14Z"/><path class="cls-1" d="M89.04 108.67c-.04.04-.09.06-.14.06-.03 0-.05 0-.08-.02l.08-.19.14.14ZM89.04 121.12l-.14.14-.08-.19s.05-.02.08-.02c.06 0 .11.02.14.06ZM88.89 108.52l-.08.19c-.08-.03-.13-.1-.13-.19h.21ZM88.81 121.07l.08.19h-.21c0-.08.05-.16.13-.19ZM85.94 115.64c-.2-.08-.36-.24-.44-.44-.04-.1-.06-.2-.06-.31s.02-.22.06-.31c.08-.2.24-.36.44-.44.1-.04.2-.06.31-.06s.21.02.31.06l-.31.75.75-.31c.04.09.06.2.06.31s-.02.21-.06.31l-.27-.11-.28.28.11.27c-.1.04-.2.06-.31.06s-.22-.02-.31-.06Z"/><path class="cls-1" d="m87 114.58-.75.31.31-.75c.2.08.36.24.44.44ZM86.73 115.09l.27.11c-.08.2-.24.36-.44.44l-.11-.27.28-.28ZM83.91 108.52h-.29l-.21.21c-.05-.05-.09-.13-.09-.21 0-.16.13-.29.29-.29s.29.13.29.29Z"/><path class="cls-1" d="M83.62 108.52h.29c0 .12-.07.23-.18.27l-.11-.27ZM83.82 121.26h-.2l.08-.19c.07.03.13.1.13.19Z"/><path class="cls-1" d="M83.62 121.26h.2c0 .11-.09.21-.2.21s-.21-.09-.21-.21c0-.06.02-.11.06-.14l.14.14ZM83.62 108.52l.11.27s-.07.02-.11.02c-.08 0-.15-.03-.21-.09l.21-.21Z"/><path class="cls-1" d="m83.69 121.07-.08.19-.14-.14s.09-.06.14-.06c.03 0 .05 0 .08.02ZM80.07 117.45s.02.05.02.08c0 .06-.02.11-.06.14l-.14-.14.19-.08ZM80.1 112.25s0 .06-.02.08l-.2-.08.15-.15s.06.09.06.15Z"/><path class="cls-1" d="m79.88 112.25.2.08c-.03.07-.1.12-.19.12v-.2ZM80.07 117.45l-.19.08v-.21c.09 0 .16.05.19.13Z"/><path class="cls-1" d="m80.03 112.11-.15.15v.2c-.11 0-.2-.09-.2-.21s.09-.2.21-.2c.05 0 .11.02.14.06ZM79.88 117.53l.14.14s-.09.06-.14.06c-.11 0-.2-.09-.2-.2s.09-.21.2-.21v.21Z"/><path class="cls-1" transform="rotate(-45.02 90.7366 110.3812)" d="M90.5 107.96h.51v4.86h-.51z"/><path class="cls-1" d="M92.37 112.46h.51v4.86h-.51zM83.82 121.01h4.86v.51h-4.86z"/><path class="cls-1" transform="rotate(-44.98 81.7674 119.3998)" d="M81.5 116.96h.51v4.86h-.51z"/><path class="cls-1" d="M79.63 112.46h.51v4.86h-.51z"/><path class="cls-1" transform="rotate(-45 81.7265 110.4178)" d="M79.33 110.16h4.78v.51h-4.78z"/><path class="cls-1" d="M83.91 108.27h4.78v.51h-4.78zM86.26 115.96c-.14 0-.28-.03-.41-.08-.26-.11-.47-.32-.58-.58-.05-.13-.08-.27-.08-.41s.03-.28.08-.41c.1-.26.32-.47.58-.57.26-.11.56-.11.81 0 .26.1.47.31.57.57.05.13.08.27.08.41s-.03.28-.08.41c-.11.26-.32.47-.58.58-.12.05-.26.08-.4.08Zm0-1.62c-.07 0-.14.01-.21.04-.14.06-.25.16-.3.3-.03.07-.04.14-.04.21s.01.14.04.21c.06.14.16.25.3.3.14.06.3.06.42 0 .14-.06.25-.17.3-.3.03-.07.04-.14.04-.21s-.01-.15-.04-.21c-.05-.14-.16-.25-.3-.3-.07-.03-.14-.04-.21-.04Z"/><path class="cls-1" transform="rotate(-45 90.7526 119.389)" d="M88.32 119.14h4.87v.51h-4.87z"/><path class="cls-1" d="m88.66 121.14-2.41-5.81.44-.44 6 2.48-.13.32-.19-.08-5.6-2.32-.12.12 2.32 5.6-.31.13zM85.88 114.44l-.09-.23-2.33-5.62.31-.13.12.27 2.31 5.58-.32.13z"/><path class="cls-1" transform="rotate(-22.27 92.526 112.282)" d="M92.43 112.12h.2v.34h-.2z"/><path class="cls-1" transform="rotate(-22.51 89.3418 113.6145)" d="M86 113.44h6.69v.34H86z"/><path class="cls-1" d="m80.14 117.61-.13-.31 5.7-2.37.13.32-.27.11-5.43 2.25z"/><path class="cls-1" transform="rotate(-67.51 82.9228 113.5163)" d="M82.76 110.43h.34v6.16h-.34z"/><path class="cls-1" transform="rotate(-67.74 83.657 121.1669)" d="M83.55 121h.2v.34h-.2z"/><path class="cls-1" transform="rotate(-67.52 84.8702 118.2225)" d="M81.79 118.05h6.17v.34h-6.17z"/><path class="cls-1" transform="rotate(-67.49 86.4183 114.5184)" d="M86 114.35h.81v.34H86z"/><path class="cls-1" transform="rotate(-67.49 87.692 111.429)" d="M84.75 111.26h5.88v.34h-5.88z"/><path class="cls-1" d="M79.89 112.71c-.27 0-.46-.21-.46-.46s.21-.46.46-.46c.12 0 .24.05.32.13.09.08.14.2.14.33 0 .07-.01.13-.04.19-.07.16-.24.27-.42.27Zm-.03-.42s.08 0 .08-.04c0-.02-.02-.05-.05-.05-.01 0-.04 0-.05.03v.02c0 .01 0 .02.01.04ZM88.89 108.98c-.07 0-.13-.01-.19-.04-.16-.06-.27-.23-.27-.42 0-.25.21-.46.46-.46s.46.21.46.46c0 .12-.05.23-.13.32-.09.09-.2.14-.33.14Zm.03-.42.16.15-.15-.15s.01-.02.01-.03c0-.02 0-.04-.03-.05h-.02s-.02 0-.03.01-.01.02-.01.03c0 .04.05.06.08.04ZM92.62 112.71c-.19 0-.35-.11-.42-.28-.02-.06-.04-.12-.04-.18 0-.08.02-.16.06-.23V112l.07-.08c.09-.09.2-.13.32-.13.25 0 .46.21.46.46s-.21.46-.46.46Zm-.04-.44-.18.08.18-.08s.06.04.08.01l-.03-.03.04-.02v-.01l-.05.02-.03-.03s-.01.02-.01.03v.01Zm.08.02Z"/><path class="cls-1" d="m92.43 112.5-.15-.1.03-.19.12.12v-.17.17l.16-.06-.16.06.13.12-.13-.12v.17zM92.62 117.99c-.12 0-.24-.05-.32-.13-.09-.09-.13-.2-.13-.32 0-.06.01-.13.04-.18.06-.16.23-.28.42-.28.25 0 .46.21.46.46s-.21.46-.46.46Zm0-.51s-.05.02-.05.05c0 .05.08.06.09.02s0 0 0-.02c0-.01 0-.03-.01-.03 0 0-.02-.01-.03-.01ZM88.89 121.72c-.25 0-.46-.21-.46-.46 0-.19.11-.35.29-.42.17-.07.37-.03.5.1.08.08.13.2.13.32 0 .25-.21.46-.46.46Zm-.02-.5s-.03.02-.03.04c0 .01 0 .03.01.03.01.01.03.02.05.01h.01s.02-.03.02-.04c0-.03-.03-.05-.06-.05l-.08-.17.07.18ZM88.81 121.24v-.34.34zM83.62 121.72c-.25 0-.46-.21-.46-.46 0-.12.05-.24.13-.32l.29.29s-.01.02-.01.03c0 .02 0 .04.03.05l.02-.04.03.03s.01-.02.01-.03c0-.02-.01-.04-.03-.04l.16-.38c.17.07.28.24.28.42 0 .25-.21.46-.46.46Z"/><path class="cls-1" d="m83.63 121.23.06-.16h-.16.16l-.11-.12.18-.03.1.15h-.16l.11.12-.12-.12-.06.16z"/><path class="cls-1" d="m83.6 121.25-.31-.31c.14-.14.35-.17.51-.09l-.2.4ZM79.88 117.99c-.25 0-.46-.21-.46-.46s.21-.46.46-.46c.19 0 .36.11.43.29.02.05.04.11.04.17 0 .12-.05.24-.13.32l-.29-.29s.01-.02.01-.03c0-.04-.06-.06-.08-.03s-.01.02-.01.03v.03c0 .02.06.03.07 0l.29.29c-.09.09-.2.13-.32.13ZM83.62 109.07c-.15 0-.29-.06-.39-.16-.1-.1-.16-.24-.16-.38 0-.3.25-.54.55-.54s.54.24.54.54c0 .22-.13.42-.33.5-.06.03-.14.04-.21.04Zm0-.58s-.04.02-.04.04c0 .01 0 .02.01.03 0 0 .02.01.03.01.02 0 .04-.01.04-.04 0-.02-.02-.04-.04-.04Z"/></g></svg>