<svg data-name="Layer 2" xmlns="http://www.w3.org/2000/svg" viewBox="0 0 36.84 49.61"><path d="M36.06 23.89c-4.9 1-9.35 4.27-12.17 8.44-3.08 4.81-4.17 10.53-3.9 16.16 0 1.18-1.27 1.63-1.54.36-1.18-5.72-2.36-11.62-5.54-16.61-2.72-4.08-7.17-7.81-12.07-8.71h-.1c-.99.09-.99-2.09 0-2.36 4.45-1.01 8.81-2.27 12.17-5.64 3.45-3.45 4.72-8.35 4.72-13.17V1.09c0-1.45 1.45-1.45 1.54 0 .09.64.09 1.27.09 1.91.19 4.54 1.09 9.17 4.45 12.44 3.45 3.36 8.08 4.82 12.53 6.27.91.27.73 2-.18 2.18Z" style="fill:#00b2d9" data-name="Layer 3"/></svg>