<?xml version="1.0" encoding="UTF-8"?>
<svg id="Layer_2" data-name="Layer 2" xmlns="http://www.w3.org/2000/svg" viewBox="0 0 72.07 73.62">
  <defs>
    <style>
      .cls-1 {
        fill: #e11f2a;
      }
    </style>
  </defs>
  <g id="Layer_1-2" data-name="Layer 1">
    <path class="cls-1" d="M71.33,34.85c.99.14.99,2.96,0,2.96-8.6.71-17.34.99-26.08,1.27,6.91,5.22,13.68,10.43,19.88,16.5.14,0,.14.14.14.14.56.42.42,3.24-.42,2.68-9.16-5.64-18.19-11.56-27.21-17.62-.28,10.57-.85,21.15-2.12,31.72-.14.28-.28,1.13-.7,1.13s-.56-.85-.56-1.13c-.99-9.87-1.13-19.74-.99-29.47-6.91,7.19-13.96,14.1-21.57,20.59-.42.42-.71-.56-.71-.85-.14-.56-.14-1.41.14-1.83,5.64-7.47,11.7-14.52,18.05-21.43-9.45.14-19.03,0-28.48-.71-.99-.14-.85-2.96,0-3.1,8.74-1.13,17.62-1.83,26.51-2.12-7.05-4.93-13.82-10.01-20.3-15.51-.56-.56-.56-3.38.42-2.96,9.02,4.79,17.62,10.29,26.08,15.93.42-10.15,1.27-20.3,3.24-30.31.14-.28.42-.85.85-.71.42.28.42,1.13.42,1.55.28,9.45.14,19.03,0,28.62,7.05-7.19,14.38-14.24,22.42-20.3.56-.28.85.71.85.99.14.42.14,1.41-.28,1.83-5.92,6.91-12.13,13.68-18.47,20.44,9.73-.14,19.46.14,28.9,1.69Z"/>
  </g>
</svg>