<svg id="Layer_2" data-name="Layer 2" xmlns="http://www.w3.org/2000/svg" viewBox="0 0 133.82 113.39"><defs><style>.cls-2{fill:#00b2d9}.cls-3{fill:#e11f2a}.cls-4{fill:#26255e}.cls-5{fill:#fbcc0b}</style></defs><g id="Layer_1-2" data-name="Layer 1"><path class="cls-2" transform="rotate(-29.93 117.855 27.273)" d="M100.26 25.84h35.2v2.87h-35.2z"/><path class="cls-4" d="m133.81 36.95-25.44 14.69-3.71 2.15-1.48.85-.61.35-2.11 1.22-50.76 29.3-2.11 1.22-2.08 1.2-44.08 25.46L0 110.9l47.25-27.28 54.49-31.47 5.2-3 25.44-14.68 1.43 2.48z"/><path class="cls-5" d="M104.77 56.69c0 20.88-16.99 37.87-37.87 37.87-7.69 0-15.08-2.29-21.39-6.63l2.08-1.2 2.11-1.22c5.19 3.11 11.09 4.74 17.2 4.74 18.51 0 33.56-15.05 33.56-33.56v-.48l2.11-1.22.61-.35 1.48-.85c.07.96.11 1.93.11 2.9Z"/><path class="cls-2" transform="rotate(-29.99 51.6584 65.4926)" d="M-7.17 64.06H110.5v2.87H-7.17z"/><path class="cls-3" d="M100.46 56.21v.48c0 18.51-15.05 33.56-33.56 33.56-6.11 0-12.01-1.63-17.2-4.74l50.76-29.3Z"/><path d="M87.54 27.54h-.01.01Z" style="fill:#f3bb1c"/><path class="cls-5" d="m88.3 25.45-1.48.86-.6.34-2.12 1.22c-5.18-3.11-11.08-4.74-17.2-4.74-18.5 0-33.55 15.06-33.55 33.56 0 .16 0 .32.01.48l-2.12 1.23-2.09 1.2c-.07-.96-.11-1.94-.11-2.91 0-20.88 16.98-37.86 37.86-37.86 7.7 0 15.09 2.28 21.4 6.62Z"/><path class="cls-3" d="m84.1 27.87-50.74 29.3c-.01-.16-.01-.32-.01-.48 0-18.5 15.05-33.56 33.55-33.56 6.12 0 12.02 1.63 17.2 4.74Z"/><path class="cls-4" d="M132.38 0 93.77 22.29l-5.47 3.16-1.48.86-.6.34-2.12 1.22-50.74 29.3-2.12 1.23-2.09 1.2-5.54 3.2L0 76.43l1.43 2.49 32.21-18.6 54.61-31.53 6.95-4.01 38.61-22.29L132.38 0ZM87.53 27.55v-.02h.01-.01Z"/></g></svg>