<svg id="Layer_2" data-name="Layer 2" xmlns="http://www.w3.org/2000/svg" viewBox="0 0 128.62 127.55"><defs><style>.cls-1{fill:#f3bb1c}.cls-3{fill:#e11f2a}.cls-4{fill:#26255e}</style></defs><g id="Layer_1-2" data-name="Layer 1"><path class="cls-1" d="M117.67 25.79c-.47-8.52-4.03-16.45-10.13-22.51L104.23 0v25.8H41.58l-17.29-.01V.06l-3.32 3.32c-6.04 6.04-9.56 13.94-10.03 22.4S0 25.78 0 25.78v3.88h11.73L46.89 88.6c-3.85 4.28-5.95 9.77-5.95 15.57 0 12.89 10.48 23.37 23.37 23.37s23.37-10.48 23.37-23.36c0-5.82-2.1-11.29-5.95-15.58l35.17-58.94h11.72v-3.88h-10.95ZM80.3 29.67h-.01l-3.06 5.32-12.92 22.39-12.93-22.39-3.06-5.32H80.3Zm3.49 74.52c0 10.74-8.74 19.48-19.48 19.48s-19.49-8.74-19.49-19.49c0-4.42 1.46-8.62 4.18-12.04l15.31 25.67 15.31-25.67c2.71 3.42 4.17 7.62 4.17 12.05Zm-7.12-14.68-12.36 20.72-12.34-20.68-35.72-59.88h27.58l20.48 35.47 20.48-35.46h27.57L76.67 89.51Z"/><path class="cls-4" d="M112.36 29.68 76.67 89.51l-12.36 20.72-12.34-20.68-35.72-59.88h19.81l28.25 48.94 28.24-48.93h19.81z"/><path style="fill:#00b2d9" d="M92.55 29.68 64.31 78.61 36.06 29.67h7.77l20.48 35.47 20.48-35.46h7.76z"/><path class="cls-4" d="M83.79 104.19c0 10.74-8.74 19.48-19.48 19.48s-19.49-8.74-19.49-19.49c0-4.42 1.46-8.62 4.18-12.04l15.31 25.67 15.31-25.67c2.71 3.42 4.17 7.62 4.17 12.05Z"/><path class="cls-3" d="m80.3 29.67-.01.01-31.97-.01H80.3z"/><path class="cls-3" d="m80.29 29.68-3.06 5.31-12.92 22.39-12.93-22.39-3.06-5.32 31.97.01z"/></g></svg>