<svg id="Layer_2" data-name="Layer 2" xmlns="http://www.w3.org/2000/svg" viewBox="0 0 116.81 119.05"><defs><style>.cls-1{fill:#f3bb1c}.cls-2{fill:#00b2d9}.cls-3{fill:#26255e}</style></defs><g id="Layer_1-2" data-name="Layer 1"><path style="fill:#ed1c24" d="m116.5 0-11.19 25.3-5.07-4.78-3.35-3.17-5.7-5.39L116.5 0z"/><path class="cls-1" d="m101.96 115.59-1.23 1.4c.41-.47.81-.95 1.2-1.43l.03.03Z"/><path class="cls-3" d="M92.69 107.45 53.54 73.07l34.03-38.29c9.9 9.24 15.85 21.69 16.82 35.28.98 13.62-3.16 26.82-11.7 37.39ZM84.07 31.79 50.09 70.03 12.31 36.86c19-19.86 50.17-22.07 71.76-5.07Z"/><path class="cls-2" d="M45.86 81.72v12.15h-3.07v-8.69l2.85-3.22s.08-.09.12-.14l.1-.1Z"/><path class="cls-1" d="M45.86 81.68v.04l-.1.1s.07-.09.1-.14ZM42.65 78.52c-.16.11-.31.24-.45.39l.35-.39h.1Z"/><path class="cls-2" d="m42.55 78.52-.35.39-2.38 2.68h-9.31v-3.07h12.04zM39.72 88.63v8.31h-3.07v-4.86l3.07-3.45zM35.72 86.2 33 89.27h-4.02V86.2h6.74z"/><path class="cls-1" d="M116.64 69.18c-1.2-16.81-8.61-32.2-20.92-43.58l4.52-5.08-3.35-3.17-4.65 5.24C65.53 1.09 26.56 3.81 3.08 28.75l-.04-.03L0 32.18l47.03 41.3-4.48 5.04h.1c-.16.11-.31.24-.45.39l-2.38 2.68-4.1 4.61L33 89.27l-1.79 2.02c-.85.95-.76 2.4.19 3.25.44.39.98.58 1.53.58.63 0 1.26-.26 1.72-.78l2-2.26 6.14-6.9 2.85-3.22s.08-.09.12-.14c.04-.04.07-.09.1-.14v.04l4.62-5.2 48.44 42.53 1.81-2.06c.41-.47.81-.95 1.2-1.43 10.71-13.07 15.93-29.46 14.71-46.38Zm-66.55.85L12.31 36.86c19-19.86 50.17-22.07 71.76-5.07L50.09 70.03Zm42.6 37.42L53.54 73.07l34.03-38.29c9.9 9.24 15.85 21.69 16.82 35.28.98 13.62-3.16 26.82-11.7 37.39Z"/></g></svg>