<svg id="Layer_2" data-name="Layer 2" xmlns="http://www.w3.org/2000/svg" viewBox="0 0 118.31 119.05"><defs><style>.cls-4{fill:#26255e}</style></defs><g id="Layer_1-2" data-name="Layer 1"><path d="M110.43 36.24c-.06.26-.08.52-.08.79v.08L66.99 55.06c-.75-1.23-1.79-2.26-3.01-3.01L81.93 8.7H82c.27 0 .53-.02.79-.08l27.64 27.62Z" style="fill:#e11f2a"/><path class="cls-4" d="M112.12 40.35v39.06c-.25.17-.47.36-.67.57L68.1 62.02c.17-.7.25-1.41.25-2.13s-.08-1.43-.25-2.12l43.38-17.95c.19.2.41.38.64.53Z"/><path d="m110.43 83.54-27.64 27.63c-.23-.05-.47-.07-.71-.07h-.14L63.98 67.74c1.22-.75 2.25-1.79 3-3.01l43.37 17.95v.07c0 .27.02.53.08.79Z" style="fill:#00b2d9"/><path class="cls-4" d="M79.23 112.22c-.21.2-.39.41-.55.65H39.61c-.16-.23-.34-.45-.54-.64l17.95-43.37c.7.17 1.41.25 2.14.25s1.44-.08 2.12-.24l17.95 43.35ZM79.22 7.59 61.27 50.93c-1.37-.33-2.84-.33-4.24.01L39.38 8.31c.45-.4.82-.87 1.09-1.4h38.19c.17.25.35.48.56.68ZM54.32 52.05c-1.23.75-2.27 1.79-3.03 3.01L8 37.13v-.1c0-.28-.03-.56-.08-.83L34.88 9.24c.45.14.93.21 1.42.21.13 0 .25 0 .37-.01l17.65 42.61Z"/><path d="M116.52 79.42V40.35c1.07-.71 1.79-1.94 1.79-3.32 0-2.19-1.79-3.97-3.99-3.97-.27 0-.53.02-.79.08L85.89 5.51c.05-.26.08-.52.08-.8 0-2.19-1.78-3.97-3.97-3.97-1.38 0-2.6.71-3.31 1.78H40.47C39.68 1.02 38.11 0 36.3 0c-2.61 0-4.74 2.11-4.74 4.71 0 .49.08.96.22 1.41l-27 27.01c-.24-.05-.49-.07-.75-.07-2.2 0-3.99 1.78-3.99 3.97 0 1.35.67 2.55 1.73 3.27v39.14C.7 80.14 0 81.36 0 82.75c0 2.19 1.78 3.97 3.97 3.97.27 0 .53-.02.79-.08l27.63 27.64c-.05.26-.08.52-.08.78 0 2.2 1.79 3.99 3.99 3.99 1.38 0 2.6-.71 3.31-1.79h39.07c.71 1.08 1.94 1.79 3.32 1.79 2.19 0 3.97-1.79 3.97-3.99 0-.26-.03-.52-.07-.78l27.63-27.64c.26.06.52.08.79.08 2.2 0 3.99-1.78 3.99-3.97 0-1.39-.72-2.61-1.79-3.33Zm-4.4-39.07v39.06c-.25.17-.47.36-.67.57L68.1 62.02c.17-.7.25-1.41.25-2.13s-.08-1.43-.25-2.12l43.38-17.95c.19.2.41.38.64.53ZM81.93 8.7H82c.27 0 .53-.02.79-.08l27.64 27.62c-.06.26-.08.52-.08.79v.08L66.99 55.06c-.75-1.23-1.79-2.26-3.01-3.01L81.93 8.7ZM40.47 6.91h38.19c.17.25.35.48.56.68L61.27 50.93c-1.37-.33-2.84-.33-4.24.01L39.38 8.31c.45-.4.82-.87 1.09-1.4Zm-5.59 2.33c.45.14.93.21 1.42.21.13 0 .25 0 .37-.01l17.65 42.61c-1.23.75-2.27 1.79-3.03 3.01L8 37.13v-.1c0-.28-.03-.56-.08-.83L34.88 9.24ZM6.17 79.42V40.4c.25-.17.48-.36.7-.57l43.31 17.93c-.16.7-.25 1.41-.25 2.13s.09 1.43.26 2.13L6.83 79.98c-.2-.21-.42-.4-.66-.56Zm30.19 31.68c-.28 0-.56.02-.85.09L7.88 83.54c.05-.26.08-.52.08-.79v-.07L51.3 64.72c.75 1.22 1.78 2.26 3.01 3.01L36.36 111.1Zm42.32 1.77H39.61c-.16-.23-.34-.45-.54-.64l17.95-43.37c.7.17 1.41.25 2.14.25s1.44-.08 2.12-.24l17.95 43.35c-.21.2-.39.41-.55.65Zm4.11-1.7c-.23-.05-.47-.07-.71-.07h-.14L63.98 67.74c1.22-.75 2.25-1.79 3-3.01l43.37 17.95v.07c0 .27.02.53.08.79l-27.64 27.63Z" style="fill:#f3bb1c"/><path class="cls-4" d="M54.31 67.73 36.36 111.1c-.28 0-.56.02-.85.09L7.88 83.54c.05-.26.08-.52.08-.79v-.07L51.3 64.72c.75 1.22 1.78 2.26 3.01 3.01ZM50.19 62.02 6.83 79.98c-.2-.21-.42-.4-.66-.56V40.4c.25-.17.48-.36.7-.57l43.31 17.93c-.16.7-.25 1.41-.25 2.13s.09 1.43.26 2.13Z"/></g></svg>