<svg id="Layer_2" data-name="Layer 2" xmlns="http://www.w3.org/2000/svg" viewBox="0 0 136.43 107.73"><defs><style>.cls-2{fill:#00b2d9}.cls-3{fill:#e11f2a}.cls-4{fill:#26255e}</style></defs><g id="Layer_1-2" data-name="Layer 1"><path class="cls-4" d="M132.8 67.25v15.38h-15.7V25.69c10.14 11.55 15.7 26.19 15.7 41.56Z"/><path class="cls-2" d="M117.1 25.69v56.94h-9.66V16.74c2.69 2 5.21 4.24 7.54 6.63.73.76 1.43 1.52 2.12 2.32Z"/><path class="cls-4" d="M107.44 16.74v65.89H93.28c0-2.94-.52-5.59-1.52-7.91V8.01c4.87 1.87 9.51 4.35 13.86 7.39.6.43 1.21.87 1.82 1.34Z"/><path class="cls-3" d="M91.76 8.01v66.71c-.87-2.04-2.08-3.84-3.62-5.38V6.71c1.21.39 2.43.83 3.62 1.3Z"/><path class="cls-4" d="M88.14 6.71v62.63c-4-4.02-10.19-6.32-18.11-6.61V3.65c6.23.17 12.31 1.22 18.11 3.06Z"/><path class="cls-2" d="M70.03 3.65v59.08c-.57-.04-1.13-.04-1.7-.04h-.71V3.63h.58c.61 0 1.22 0 1.83.02Z"/><path class="cls-4" d="M89.66 82.71c0 11.79-9.56 21.39-21.33 21.39s-21.34-9.6-21.34-21.39c0-2.73.5-5.01 1.37-6.9 3.86-8.41 14.74-9.47 19.97-9.47s15.57 1 19.65 8.86c1.05 2 1.68 4.47 1.68 7.51ZM67.62 3.63v59.06c-8.58.13-15.2 2.56-19.33 6.88V6.71c6.19-1.97 12.68-3.02 19.33-3.08Z"/><path class="cls-3" d="M48.29 6.71v62.86c-1.58 1.63-2.78 3.52-3.63 5.67V8.01c1.2-.47 2.42-.91 3.63-1.3Z"/><path class="cls-4" d="M44.66 8.01v67.23c-.84 2.22-1.3 4.67-1.3 7.39H30.18V15.85c.2-.17.41-.3.61-.45 4.34-3.04 8.99-5.52 13.87-7.39Z"/><path class="cls-2" d="M30.18 15.85v66.78h-9.66V24.39c.28-.33.58-.68.91-1 2.69-2.78 5.62-5.32 8.75-7.54Z"/><path class="cls-4" d="M20.52 24.39v58.24H3.62V67.25c0-15.96 5.98-31.12 16.9-42.86Z"/><path d="M117.58 20.85c-3-3.11-6.32-5.93-9.88-8.43-4.88-3.43-10.14-6.19-15.68-8.21C85.03 1.63 77.63.22 70.03.02 69.42 0 68.81 0 68.2 0c-8.18 0-16.15 1.41-23.67 4.17-5.58 2.02-10.9 4.8-15.83 8.25-3.51 2.48-6.84 5.32-9.88 8.43C6.69 33.42 0 49.9 0 67.25v19h43.62c1.72 12.12 12.14 21.48 24.71 21.48s22.98-9.36 24.69-21.48h43.41v-19c0-17.35-6.71-33.83-18.85-46.4ZM68.33 104.1c-11.77 0-21.34-9.6-21.34-21.39 0-2.73.5-5.01 1.37-6.9 3.86-8.41 14.74-9.47 19.97-9.47s15.57 1 19.65 8.86c1.05 2 1.68 4.47 1.68 7.51 0 11.79-9.56 21.39-21.33 21.39Zm64.47-21.47H93.28c0-2.94-.52-5.59-1.52-7.91-.87-2.04-2.08-3.84-3.62-5.38-4-4.02-10.19-6.32-18.11-6.61-.57-.04-1.13-.04-1.7-.04h-.71c-8.58.13-15.2 2.56-19.33 6.88-1.58 1.63-2.78 3.52-3.63 5.67-.84 2.22-1.3 4.67-1.3 7.39H3.62V67.25c0-15.96 5.98-31.12 16.9-42.86.28-.33.58-.68.91-1 2.69-2.78 5.62-5.32 8.75-7.54.2-.17.41-.3.61-.45 4.34-3.04 8.99-5.52 13.87-7.39 1.2-.47 2.42-.91 3.63-1.3 6.19-1.97 12.68-3.02 19.33-3.08h.58c.61 0 1.22 0 1.83.02 6.23.17 12.31 1.22 18.11 3.06 1.21.39 2.43.83 3.62 1.3 4.87 1.87 9.51 4.35 13.86 7.39.6.43 1.21.87 1.82 1.34 2.69 2 5.21 4.24 7.54 6.63.73.76 1.43 1.52 2.12 2.32 10.14 11.55 15.7 26.19 15.7 41.56v15.38Z" style="fill:#f3bb1c"/></g></svg>